<svg width="39" height="39" viewBox="0 0 39 39" fill="none" xmlns="http://www.w3.org/2000/svg">
<path d="M19.1921 38.2902C29.7916 38.2902 38.3842 29.7186 38.3842 19.1451C38.3842 8.57155 29.7916 0 19.1921 0C8.59261 0 0 8.57155 0 19.1451C0 29.7186 8.59261 38.2902 19.1921 38.2902Z" fill="url(#paint0_linear)"/>
<path d="M10.9556 8.60391C11.3974 7.05591 12.8451 5.88991 14.4327 5.75791C14.9411 5.71291 15.4564 5.76191 15.9479 5.90091C16.7055 6.10891 17.47 6.29591 18.2256 6.51491C15.1536 6.94491 12.2712 8.57091 10.3181 10.9999C10.5276 10.1999 10.7371 9.40091 10.9556 8.60391Z" fill="white"/>
<path d="M18.2664 7.60074C20.561 7.24174 22.9648 7.60374 25.0439 8.64774C27.3971 9.81474 29.3214 11.8367 30.3629 14.2627C31.4174 16.6787 31.5713 19.4737 30.8028 21.9947C29.9966 24.6937 28.1289 27.0417 25.7092 28.4507C23.5248 29.7407 20.9005 30.2417 18.3964 29.8767C15.6451 29.4917 13.0596 28.0297 11.2981 25.8657C9.61119 23.8267 8.6858 21.1677 8.74935 18.5137C8.78708 15.8497 9.82169 13.2187 11.596 11.2447C13.3137 9.30274 15.7136 7.99174 18.2664 7.60074ZM16.2438 10.5317C15.7424 10.6197 15.2618 10.8277 14.8557 11.1367C13.6206 12.0307 13.2115 13.8647 13.9581 15.2017C14.68 16.6317 16.5327 17.3037 17.9973 16.6767C19.4797 16.1167 20.3674 14.3447 19.8878 12.8157C19.4787 11.2657 17.8047 10.2227 16.2438 10.5317ZM24.2278 12.1027C23.5824 12.2377 22.9767 12.5727 22.5259 13.0587C21.5231 14.0907 21.3722 15.8247 22.1883 17.0147C23.0393 18.3717 24.9486 18.8667 26.3496 18.1057C27.693 17.4447 28.4169 15.7607 27.9512 14.3247C27.5153 12.7637 25.7956 11.7457 24.2278 12.1027ZM19.4489 17.4757C18.7847 17.7117 18.3756 18.4907 18.5752 19.1757C18.7628 19.9487 19.6614 20.4387 20.4051 20.1607C21.1547 19.9367 21.5916 19.0237 21.2858 18.2957C21.0276 17.5787 20.1499 17.1857 19.4489 17.4757ZM14.3861 19.0887C13.7258 19.2497 13.1221 19.6297 12.6862 20.1537C11.7162 21.2717 11.6993 23.0757 12.6465 24.2127C13.5699 25.4097 15.3621 25.7757 16.6757 25.0387C18.04 24.3447 18.734 22.5857 18.1889 21.1427C17.6855 19.6087 15.932 18.6707 14.3861 19.0887ZM22.3283 20.6797C21.7733 20.8417 21.2649 21.1597 20.8698 21.5847C19.8401 22.6607 19.7339 24.4757 20.6414 25.6597C21.536 26.9327 23.3888 27.3537 24.7431 26.5987C26.1352 25.8987 26.8232 24.0957 26.2444 22.6377C25.7032 21.0897 23.8813 20.1827 22.3283 20.6797Z" fill="white"/>
<path d="M27.4418 8.95679C28.2729 9.16879 29.101 9.39679 29.9311 9.61279C30.5308 9.76479 31.1027 10.0428 31.5763 10.4468C32.6804 11.3578 33.2275 12.8928 32.9356 14.3028C32.7052 15.2888 32.4014 16.2558 32.18 17.2438C31.7739 13.9898 30.0373 10.9388 27.4418 8.95679Z" fill="white"/>
<path d="M7.71869 20.6611C8.03444 22.2701 8.56763 23.8491 9.4533 25.2351C10.2099 26.4541 11.1869 27.5281 12.3029 28.4221C11.5225 28.2351 10.75 28.0121 9.9726 27.8121C8.87841 27.5151 7.9282 26.7301 7.43174 25.7041C7.05146 24.9401 6.93033 24.0501 7.08522 23.2111C7.26394 22.3531 7.56281 21.5241 7.71869 20.6611Z" fill="white"/>
<path d="M21.7296 30.9216C24.9079 30.4686 27.8797 28.7016 29.798 26.1086C29.5905 26.9826 29.3412 27.8446 29.1168 28.7146C28.8478 29.7496 28.1498 30.6616 27.2224 31.1846C26.3039 31.7176 25.175 31.8566 24.1533 31.5746C23.3461 31.3556 22.5329 31.1566 21.7296 30.9216Z" fill="white"/>
<defs>
<linearGradient id="paint0_linear" x1="32.7662" y1="5.60052" x2="5.68838" y2="32.7447" gradientUnits="userSpaceOnUse">
<stop stop-color="#FC4D3F"/>
<stop offset="1" stop-color="#CD083F"/>
</linearGradient>
</defs>
</svg>
