<svg width="26" height="26" viewBox="0 0 26 26" fill="none" xmlns="http://www.w3.org/2000/svg">
<path d="M22.5459 0.813075C23.0288 0.559169 23.5762 0.426122 24.1221 0.443388C24.5273 0.453036 24.9341 0.428661 25.3388 0.454559C25.6806 0.508388 25.9487 0.805458 26 1.14315V1.34069C25.9609 1.71749 25.64 2.03944 25.2596 2.0628C24.83 2.08159 24.3989 2.06077 23.9688 2.07093C23.464 2.09327 22.9831 2.37663 22.7073 2.79811C22.554 3.02104 22.4859 3.28612 22.4214 3.54511C21.2829 7.81886 20.1419 12.0921 19.0034 16.3664C18.7723 17.413 17.7851 18.2346 16.7091 18.2437C12.7471 18.2427 8.78566 18.2437 4.82371 18.2432C3.81824 18.2321 2.87473 17.5155 2.58375 16.5542C1.72148 13.6374 0.858711 10.7205 0 7.80261V7.5944C0.0391016 7.2689 0.279297 6.97487 0.602266 6.8987C1.01105 6.77632 1.48637 7.03835 1.59301 7.45425C2.43852 10.3137 3.28199 13.1742 4.12699 16.0337C4.21891 16.3598 4.5302 16.6137 4.87195 16.6172C8.78312 16.6198 12.6948 16.6162 16.6065 16.6187C16.8507 16.6279 17.0925 16.5167 17.2489 16.3293C17.4038 16.1485 17.4368 15.9048 17.4997 15.6833C18.6413 11.402 19.7829 7.12061 20.9249 2.83975C21.1539 1.9785 21.7537 1.22339 22.5459 0.813075Z" fill="#D64773"/>
<path d="M10.4294 6.06841C10.7763 6.00544 11.1536 6.1979 11.2983 6.52137C11.3912 6.70266 11.3755 6.91137 11.3755 7.1084C11.3745 7.84067 11.375 8.57293 11.3755 9.3052C12.189 9.30672 13.003 9.30367 13.8166 9.30672C14.1101 9.30926 14.399 9.47481 14.5326 9.73938C14.6895 10.0319 14.6468 10.4188 14.4214 10.6646C14.2695 10.8342 14.0436 10.9404 13.814 10.9317C13.001 10.9297 12.1885 10.9312 11.3755 10.9307C11.3745 11.7386 11.375 12.5466 11.3755 13.355C11.3872 13.6556 11.2145 13.9512 10.9479 14.0898C10.6184 14.2711 10.1694 14.1863 9.93332 13.8918C9.80992 13.7425 9.74441 13.549 9.74949 13.3555C9.75 12.5476 9.7505 11.7391 9.74949 10.9307C8.9375 10.9312 8.1255 10.9297 7.31351 10.9317C6.9814 10.9449 6.65996 10.7205 6.54976 10.4087C6.43652 10.1136 6.51421 9.75613 6.74273 9.53727C6.90523 9.37578 7.1373 9.30063 7.36378 9.3052C8.15902 9.30571 8.95425 9.30571 9.74949 9.3052C9.75101 8.48864 9.74847 7.67157 9.7505 6.8545C9.74593 6.47212 10.0516 6.12223 10.4294 6.06841Z" fill="#D64773"/>
<path d="M6.62492 19.885C7.45571 19.7966 8.31899 20.1003 8.90805 20.6939C9.36711 21.1418 9.66266 21.7522 9.73223 22.3895C9.81602 23.1055 9.61899 23.8535 9.18075 24.4273C8.66633 25.119 7.82032 25.5547 6.95653 25.5572C6.33242 25.5745 5.70527 25.3734 5.20609 24.9986C4.59977 24.5528 4.18641 23.855 4.08891 23.1086C3.96703 22.2702 4.24379 21.3815 4.83133 20.7691C5.29496 20.2684 5.94547 19.9479 6.62492 19.885ZM6.67926 21.5186C6.24863 21.5998 5.87438 21.9284 5.74641 22.3489C5.61895 22.7226 5.70172 23.1532 5.94598 23.4615C6.21207 23.8093 6.6752 23.9952 7.10785 23.916C7.75786 23.8205 8.24536 23.1324 8.10215 22.4875C7.99247 21.8507 7.31453 21.3795 6.67926 21.5186Z" fill="#D64773"/>
<path d="M14.7479 19.885C15.5807 19.7961 16.447 20.1008 17.0361 20.6974C17.4936 21.1443 17.7871 21.7532 17.8572 22.3885C17.941 23.1035 17.745 23.851 17.3078 24.4248C16.7939 25.1174 15.9484 25.5537 15.0846 25.5572C14.461 25.575 13.8343 25.3749 13.3352 25.0012C12.7273 24.5568 12.3134 23.8591 12.2144 23.1126C12.0915 22.2727 12.3683 21.382 12.9568 20.7685C13.4195 20.2683 14.0695 19.9484 14.7479 19.885ZM14.8058 21.5186C14.2142 21.6212 13.7612 22.2067 13.815 22.8054C13.847 23.2629 14.1604 23.6849 14.5884 23.8489C15.0069 24.0211 15.5162 23.9231 15.8468 23.6164C16.182 23.3157 16.3363 22.8206 16.2028 22.3864C16.0474 21.7984 15.404 21.3896 14.8058 21.5186Z" fill="#D64773"/>
</svg>
