<svg id="Capa_1" enableBackground="new 0 0 512 512" height="512" viewBox="0 0 512 512" width="512" xmlns="http://www.w3.org/2000/svg"><g><g><circle cx="256" cy="256" fill="#62dbfb" r="248.5"/><path d="m53.5 256c0-129.486 99.042-235.823 225.5-247.431-7.575-.695-15.243-1.069-23-1.069-137.243 0-248.5 111.257-248.5 248.5s111.257 248.5 248.5 248.5c7.757 0 15.425-.374 23-1.069-126.458-11.608-225.5-117.945-225.5-247.431z" fill="#01d0fb"/><circle cx="256" cy="256" fill="#f07281" r="171.468"/><path d="m122.532 256c0-88.276 66.712-160.96 152.468-170.415-6.24-.688-12.577-1.053-19-1.053-94.699 0-171.468 76.769-171.468 171.468s76.769 171.468 171.468 171.468c6.423 0 12.76-.365 19-1.053-85.756-9.455-152.468-82.139-152.468-170.415z" fill="#eb5569"/></g><g><path d="m496.998 169.473c-1.4-3.898-5.7-5.92-9.595-4.521-3.898 1.401-5.922 5.697-4.521 9.595 8.529 23.726 13.216 48.569 13.99 73.953h-62.071c-2.041-49.242-24.063-93.41-58.165-124.583 23.357-6.351 44.448-14.447 62.912-24.165 11.289 13.28 21.25 27.906 29.621 43.734 1.938 3.661 6.473 5.062 10.137 3.124 3.661-1.937 5.06-6.475 3.123-10.136-44.52-84.181-131.283-136.474-226.429-136.474-68.379 0-132.666 26.629-181.019 74.981-48.352 48.353-74.981 112.64-74.981 181.019s26.629 132.666 74.981 181.019c48.353 48.352 112.64 74.981 181.019 74.981s132.666-26.629 181.019-74.981c48.352-48.353 74.981-112.64 74.981-181.019 0-29.725-5.047-58.837-15.002-86.527zm-57.602 242.695c-18.428-9.682-39.467-17.752-62.76-24.085 34.102-31.173 56.124-75.341 58.165-124.583h62.071c-1.74 56.604-23.092 108.35-57.476 148.668zm-237.725 56.58c-13.16-14.503-24.924-34.133-34.572-57.483 24.532 14.047 52.376 22.31 81.401 23.529v61.682c-16.243-2.24-32.294-11.708-46.829-27.728zm61.829 27.729v-61.675c29.522-1.224 57.222-9.62 81.39-23.508-9.647 23.338-21.406 42.957-34.561 57.454-14.535 16.02-30.586 25.488-46.829 27.729zm156.47-240.477c0 90.414-73.557 163.97-163.97 163.97-59.326 0-114.199-32.199-143.205-84.033-2.021-3.615-6.593-4.905-10.207-2.882-3.615 2.023-4.905 6.593-2.883 10.208 9.52 17.013 21.609 32.07 35.601 44.833-23.276 6.332-44.295 14.397-62.703 24.072-34.384-40.319-55.735-92.065-57.475-148.668h62.062c.65 15.753 3.346 31.261 8.046 46.201 1.243 3.95 5.451 6.146 9.405 4.903 3.951-1.243 6.146-5.454 4.903-9.405-4.985-15.847-7.514-32.4-7.514-49.199 0-90.414 73.557-163.97 163.97-163.97s163.97 73.556 163.97 163.97zm-347.376-156.156c18.439 9.682 39.48 17.749 62.767 24.076-34.1 31.173-56.121 75.34-58.162 124.58h-62.071c1.739-56.598 23.087-108.339 57.466-148.656zm237.735-56.592c13.154 14.497 24.914 34.117 34.561 57.454-24.167-13.887-51.868-22.284-81.39-23.508v-61.675c16.243 2.241 32.294 11.709 46.829 27.729zm-61.829-27.729v61.675c-29.522 1.224-57.222 9.62-81.39 23.508 9.647-23.338 21.406-42.957 34.561-57.454 14.535-16.02 30.586-25.488 46.829-27.729zm180.622 72.739c-18.692 9.448-40.187 17.224-64.092 23.189-14.213-40.74-33.891-71.847-56.575-90.71 46.084 10.226 87.987 33.748 120.667 67.521zm-225.617-67.487c-22.667 18.867-42.33 49.96-56.535 90.677-23.828-5.94-45.267-13.684-63.931-23.093 32.178-33.19 73.789-57.174 120.466-67.584zm-120.457 402.876c18.646-9.409 40.082-17.156 63.921-23.104 14.205 40.717 33.868 71.811 56.536 90.678-46.672-10.409-88.28-34.39-120.457-67.574zm225.447 67.574c22.667-18.866 42.33-49.959 56.535-90.676 23.832 5.947 45.268 13.694 63.92 23.103-32.176 33.184-73.783 57.164-120.455 67.573z"/><path d="m362.033 272.028h-14.375c-4.143 0-7.5 3.358-7.5 7.5s3.357 7.5 7.5 7.5h6.875v59.755c0 4.142 3.357 7.5 7.5 7.5s7.5-3.358 7.5-7.5v-67.255c0-4.142-3.357-7.5-7.5-7.5z"/><path d="m169.415 272.389c-14.859 0-26.948 12.089-26.948 26.948s12.089 26.949 26.948 26.949c1.042 0 2.069-.066 3.08-.181-5.727 9.235-12.077 14.171-12.268 14.317-3.304 2.477-3.985 7.161-1.519 10.477 1.472 1.979 3.733 3.024 6.023 3.024 1.556 0 3.126-.482 4.471-1.482.942-.701 22.977-17.434 26.825-48.867.219-1.381.336-2.795.336-4.237.001-14.859-12.089-26.948-26.948-26.948zm-11.948 26.948c0-6.588 5.36-11.948 11.948-11.948 6.589 0 11.949 5.36 11.949 11.948s-5.36 11.949-11.949 11.949c-6.588 0-11.948-5.36-11.948-11.949z"/><path d="m301.209 270.656c-14.859 0-26.948 12.089-26.948 26.949v31.103c0 14.859 12.089 26.948 26.948 26.948s26.949-12.089 26.949-26.948v-31.103c0-14.86-12.09-26.949-26.949-26.949zm11.949 58.052c0 6.588-5.36 11.948-11.949 11.948-6.588 0-11.948-5.36-11.948-11.948v-31.103c0-6.588 5.36-11.949 11.948-11.949 6.589 0 11.949 5.36 11.949 11.949z"/><path d="m235.312 270.656c-14.859 0-26.948 12.089-26.948 26.949v31.103c0 14.859 12.089 26.948 26.948 26.948s26.948-12.089 26.948-26.948v-31.103c.001-14.86-12.088-26.949-26.948-26.949zm11.949 58.052c0 6.588-5.36 11.948-11.948 11.948s-11.948-5.36-11.948-11.948v-31.103c0-6.588 5.36-11.949 11.948-11.949s11.948 5.36 11.948 11.949z"/><path d="m171.271 241.344c4.143 0 7.5-3.358 7.5-7.5v-70c0-4.142-3.357-7.5-7.5-7.5s-7.5 3.358-7.5 7.5v70c0 4.142 3.358 7.5 7.5 7.5z"/><path d="m222.665 241.344c14.146 0 26.017-8.98 28.226-21.353 1.653-9.262-2.614-21.385-19.552-27.632-8.798-3.245-16.975-6.784-19.269-7.791-1.783-1.365-2.642-3.504-2.31-5.816.211-1.473 1.263-5.066 6.444-6.627 10.547-3.178 20.189 4.5 20.417 4.684 3.169 2.635 7.878 2.217 10.534-.942 2.665-3.171 2.256-7.902-.915-10.567-.641-.538-15.875-13.107-34.362-7.536-9.192 2.769-15.693 9.995-16.966 18.858-1.189 8.286 2.4 16.256 9.37 20.8.331.216.679.405 1.04.566.403.18 10.007 4.455 20.824 8.445 7.111 2.623 10.747 6.604 9.977 10.922-.789 4.418-6.039 8.989-13.459 8.989-7.304 0-14.346-2.958-18.836-7.913-2.783-3.07-7.526-3.301-10.594-.521-3.069 2.781-3.303 7.524-.521 10.594 7.288 8.04 18.484 12.84 29.952 12.84z"/><path d="m305.729 156.344c-23.435 0-42.5 19.065-42.5 42.5 0 23.434 19.065 42.5 42.5 42.5s42.5-19.065 42.5-42.5c0-23.434-19.066-42.5-42.5-42.5zm0 70c-15.163 0-27.5-12.336-27.5-27.5s12.337-27.5 27.5-27.5 27.5 12.336 27.5 27.5c0 15.163-12.337 27.5-27.5 27.5z"/></g></g></svg>
