<svg width="20" height="20" viewBox="0 0 20 20" fill="none" xmlns="http://www.w3.org/2000/svg">
<g clip-path="url(#clip0)">
<path d="M9.48174 0H10.5234C12.3588 0.160417 14.1547 0.95 15.4172 2.30625C16.6338 3.52292 17.3005 5.19167 17.5047 6.88125C18.7942 7.23125 19.8755 8.30208 20.0005 9.67292V12.8333C19.8734 14.1792 18.8234 15.2437 17.5547 15.6021C17.4588 16.6208 17.0317 17.6542 16.1401 18.2208C15.263 18.8729 14.1192 18.7458 13.0922 18.7562C12.7567 19.3354 12.2797 19.8417 11.6067 20H9.67965C9.21924 19.8583 8.74007 19.65 8.46924 19.2292C7.8734 18.4292 8.0609 17.1583 8.89632 16.5938C9.38382 16.2125 10.0359 16.2479 10.6192 16.2333C11.1588 16.2521 11.7505 16.2104 12.2276 16.5063C12.6172 16.7354 12.838 17.1417 13.0922 17.4979C13.9255 17.4812 14.9067 17.6646 15.5838 17.0458C16.0026 16.725 16.1442 16.1979 16.3005 15.7208C15.6651 15.5604 14.9484 15.1562 15.0109 14.3958C14.9901 12.2979 14.9922 10.1979 15.0109 8.10208C14.9526 7.36667 15.6317 6.97292 16.2338 6.775C15.9942 5.40417 15.4276 4.06667 14.4151 3.08958C12.7192 1.35833 9.9734 0.758333 7.72549 1.69167C5.58382 2.48542 4.08799 4.54167 3.76715 6.775C4.37132 6.97292 5.05257 7.37083 4.99007 8.11042C5.0109 10.2042 5.0109 12.3 4.99007 14.3937C5.01716 14.9854 4.55674 15.5521 3.9609 15.6021C3.02757 15.7125 2.00465 15.6104 1.24424 15.0125C0.535905 14.5021 0.115072 13.6812 0.000488281 12.8271V9.66667C0.127572 8.29167 1.21715 7.23125 2.50882 6.87708C2.69215 5.13125 3.42132 3.42292 4.69424 2.19583C5.94632 0.9 7.6984 0.15625 9.48174 0ZM1.80882 8.68125C1.09215 9.33333 1.26715 10.3708 1.24632 11.2375C1.26924 12.1104 1.08382 13.1562 1.80674 13.8188C2.2984 14.3667 3.06715 14.4021 3.75049 14.3875C3.75049 12.2958 3.75049 10.2021 3.75049 8.11042C3.06924 8.10833 2.2984 8.13125 1.80882 8.68125ZM16.2505 8.11042C16.2505 10.2021 16.2505 12.2958 16.2505 14.3875C17.2838 14.5333 18.4755 14.0167 18.7005 12.9167C18.7859 11.8083 18.788 10.6812 18.6984 9.575C18.4692 8.475 17.2797 7.97708 16.2505 8.11042ZM9.7984 17.5333C9.51507 17.675 9.29424 17.9708 9.39007 18.3042C9.73174 19.0021 10.6359 18.7042 11.2526 18.7396C11.8442 18.7604 12.1213 17.8854 11.5672 17.6021C11.0172 17.3958 10.3797 17.5021 9.7984 17.5333Z" fill="#959499"/>
</g>
<defs>
<clipPath id="clip0">
<rect width="20" height="20" fill="white" transform="translate(0.000488281)"/>
</clipPath>
</defs>
</svg>
