<svg width="36" height="36" viewBox="0 0 36 36" fill="none" xmlns="http://www.w3.org/2000/svg">
<path d="M17.0662 0H18.9412C22.245 0.28875 25.4775 1.71 27.75 4.15125C29.94 6.34125 31.14 9.345 31.5075 12.3862C33.8288 13.0162 35.775 14.9438 36 17.4113V23.1C35.7713 25.5225 33.8813 27.4387 31.5975 28.0837C31.425 29.9175 30.6562 31.7775 29.0513 32.7975C27.4725 33.9712 25.4137 33.7425 23.565 33.7612C22.9613 34.8037 22.1025 35.715 20.8913 36H17.4225C16.5938 35.745 15.7313 35.37 15.2438 34.6125C14.1713 33.1725 14.5087 30.885 16.0125 29.8688C16.89 29.1825 18.0638 29.2463 19.1138 29.22C20.085 29.2537 21.15 29.1788 22.0087 29.7113C22.71 30.1238 23.1075 30.855 23.565 31.4963C25.065 31.4662 26.8313 31.7962 28.05 30.6825C28.8038 30.105 29.0588 29.1562 29.34 28.2975C28.1962 28.0087 26.9063 27.2812 27.0188 25.9125C26.9813 22.1362 26.985 18.3563 27.0188 14.5837C26.9138 13.26 28.1362 12.5513 29.22 12.195C28.7887 9.7275 27.7688 7.32 25.9463 5.56125C22.8938 2.445 17.9513 1.365 13.905 3.045C10.05 4.47375 7.3575 8.175 6.78 12.195C7.8675 12.5513 9.09375 13.2675 8.98125 14.5988C9.01875 18.3675 9.01875 22.14 8.98125 25.9087C9.03 26.9737 8.20125 27.9937 7.12875 28.0837C5.44875 28.2825 3.6075 28.0987 2.23875 27.0225C0.96375 26.1037 0.20625 24.6262 0 23.0887V17.4C0.22875 14.925 2.19 13.0162 4.515 12.3787C4.845 9.23625 6.1575 6.16125 8.44875 3.9525C10.7025 1.62 13.8562 0.28125 17.0662 0ZM3.255 15.6262C1.965 16.8 2.28 18.6675 2.2425 20.2275C2.28375 21.7987 1.95 23.6813 3.25125 24.8738C4.13625 25.86 5.52 25.9237 6.75 25.8975C6.75 22.1325 6.75 18.3638 6.75 14.5988C5.52375 14.595 4.13625 14.6362 3.255 15.6262ZM29.25 14.5988C29.25 18.3638 29.25 22.1325 29.25 25.8975C31.11 26.16 33.255 25.23 33.66 23.25C33.8138 21.255 33.8175 19.2262 33.6562 17.235C33.2438 15.255 31.1025 14.3588 29.25 14.5988ZM17.6362 31.56C17.1262 31.815 16.7288 32.3475 16.9012 32.9475C17.5163 34.2038 19.1437 33.6675 20.2537 33.7312C21.3187 33.7687 21.8175 32.1937 20.82 31.6838C19.83 31.3125 18.6825 31.5038 17.6362 31.56Z" fill="#D64773"/>
<path d="M12.8325 14.025C13.425 13.6275 14.385 13.8712 14.5725 14.6137C14.6588 15.5737 14.7413 16.5787 14.5013 17.52C13.9838 18.5437 12.2325 18.075 12.3788 16.905C12.4313 15.96 12.06 14.76 12.8325 14.025Z" fill="#D64773"/>
<path d="M21.84 14.0138C22.4512 13.6351 23.3925 13.8751 23.5762 14.6251C23.6812 15.5101 23.6775 16.4063 23.58 17.2913C23.3512 18.3526 21.6225 18.3451 21.42 17.2726C21.4312 16.2113 21.0112 14.8576 21.84 14.0138Z" fill="#D64773"/>
<path d="M12.8325 22.2113C13.5413 21.66 14.2388 22.335 14.8163 22.725C16.5038 24.0188 18.9825 24.1425 20.7788 22.995C21.36 22.6613 21.8475 22.1363 22.515 21.9788C23.4338 21.9825 24.0113 23.1825 23.3963 23.865C20.6138 26.7 15.6075 26.7413 12.7388 24.0075C12.1725 23.58 12.255 22.5863 12.8325 22.2113Z" fill="#D64773"/>
</svg>
