<svg width="17" height="17" viewBox="0 0 17 17" fill="none" xmlns="http://www.w3.org/2000/svg">
<g clip-path="url(#clip0)">
<path d="M3.82566 1.40452C5.01699 0.615941 6.41186 0.138481 7.83693 0.0315665C8.99938 -0.0560898 10.1804 0.0880118 11.2821 0.470844C13.2065 1.13092 14.8684 2.51217 15.8771 4.27791C16.5737 5.48319 16.9538 6.86245 17 8.25233V8.7537C16.9588 10.0128 16.6464 11.2645 16.067 12.3845C15.0032 14.4809 13.0289 16.0909 10.7588 16.7042C10.1479 16.8735 9.51734 16.9665 8.88482 17.0014H8.11584C6.72928 16.9353 5.35832 16.5345 4.166 15.8216C2.75852 14.9879 1.59773 13.7408 0.876562 12.2719C0.332031 11.1812 0.0401758 9.97026 0 8.7527V8.25233C0.0361914 7.25989 0.232422 6.27143 0.604297 5.34971C1.2418 3.74666 2.38432 2.35114 3.82566 1.40452ZM4.80648 2.05131C3.72871 2.66823 2.81064 3.55907 2.16086 4.61725C1.44334 5.77737 1.0615 7.13903 1.06217 8.50268C1.06018 9.74879 1.37826 10.9929 1.97857 12.085C3.1533 11.2941 4.47279 10.719 5.85305 10.4006C5.90584 9.81321 6.1542 9.24344 6.56193 8.81579C6.96502 8.38082 7.51885 8.0893 8.10621 8.00397C8.60957 6.51182 9.09965 5.01502 9.604 3.52288C9.71756 3.20645 10.1522 3.09256 10.4142 3.29743C10.6051 3.43389 10.6751 3.70217 10.5931 3.91932C10.1558 5.2325 9.71789 6.54536 9.28027 7.85854C9.25471 7.9286 9.23147 7.99965 9.21619 8.07303C9.73748 8.21381 10.2106 8.52393 10.5526 8.94096C10.8956 9.35135 11.1015 9.86866 11.1506 10.4002C12.5285 10.7213 13.848 11.2934 15.0211 12.085C15.3232 11.5298 15.5606 10.9385 15.7124 10.3242C16.0909 8.83239 15.9903 7.22237 15.4245 5.79032C14.8169 4.23243 13.6634 2.897 12.2141 2.06327C11.0633 1.39588 9.72918 1.04725 8.39873 1.07182C7.14365 1.08211 5.89422 1.4261 4.80648 2.05131ZM7.80506 9.20094C7.40064 9.39385 7.09186 9.76772 6.96801 10.197C7.98535 10.0692 9.0183 10.0682 10.0353 10.1984C9.90516 9.74315 9.56449 9.35202 9.12754 9.16774C8.71018 8.98645 8.21246 8.99741 7.80506 9.20094ZM2.55896 12.9788C2.85215 13.3669 3.18219 13.7275 3.54543 14.0513C4.68396 15.0742 6.1449 15.7313 7.66693 15.8973C8.95521 16.0438 10.282 15.8462 11.47 15.3259C12.6408 14.8169 13.6734 13.9981 14.4414 12.9788C12.6736 11.7808 10.5373 11.1354 8.40172 11.1659C6.33184 11.1742 4.27225 11.818 2.55896 12.9788Z" fill="#959499"/>
<path d="M6.48962 2.6755C6.70511 2.63632 6.93687 2.68049 7.11351 2.8133C7.33364 2.97168 7.46147 3.2476 7.43723 3.5182C7.4203 3.86152 7.15003 4.16932 6.81435 4.23705C6.52216 4.30512 6.19611 4.19057 6.01416 3.95117C5.85445 3.74764 5.80099 3.46508 5.88168 3.21838C5.96336 2.94279 6.20806 2.72763 6.48962 2.6755Z" fill="#959499"/>
<path d="M4.36264 4.80055C4.61598 4.75141 4.89123 4.82678 5.07451 5.01073C5.29399 5.21858 5.37069 5.55526 5.27373 5.84014C5.1801 6.12402 4.91448 6.3415 4.61664 6.37404C4.33608 6.41289 4.03858 6.28738 3.87422 6.05563C3.72547 5.85408 3.67866 5.58049 3.75702 5.34176C3.83903 5.0675 4.08241 4.85334 4.36264 4.80055Z" fill="#959499"/>
<path d="M12.3346 4.80024C12.5494 4.76172 12.7808 4.80555 12.9568 4.93836C13.1776 5.09674 13.3054 5.37366 13.2805 5.64459C13.2633 5.98825 12.9917 6.29604 12.6553 6.36278C12.3555 6.43151 12.0208 6.30766 11.8428 6.05598C11.6878 5.84614 11.6446 5.55926 11.7349 5.31389C11.8246 5.05159 12.0627 4.85071 12.3346 4.80024Z" fill="#959499"/>
<path d="M3.30067 7.45702C3.51616 7.41718 3.74858 7.46134 3.92522 7.59415C4.14702 7.75319 4.27518 8.03177 4.24928 8.3037C4.23003 8.65732 3.94149 8.97109 3.59253 9.02488C3.30133 9.07999 2.98424 8.95482 2.81225 8.71277C2.66317 8.51156 2.61635 8.23863 2.69405 7.99989C2.77507 7.72497 3.01944 7.50948 3.30067 7.45702Z" fill="#959499"/>
<path d="M13.3965 7.45686C13.6117 7.41768 13.8438 7.46185 14.0197 7.59499C14.2409 7.7537 14.3687 8.03128 14.3431 8.30288C14.3249 8.6462 14.0529 8.953 13.7166 9.01941C13.4257 9.08548 13.1023 8.97126 12.9214 8.73353C12.7607 8.52966 12.7072 8.24644 12.7879 7.99907C12.8699 7.72382 13.1146 7.50866 13.3965 7.45686Z" fill="#959499"/>
</g>
<defs>
<clipPath id="clip0">
<rect width="17" height="17" fill="white"/>
</clipPath>
</defs>
</svg>
