<svg width="19" height="19" viewBox="0 0 19 19" fill="none" xmlns="http://www.w3.org/2000/svg">
<g id="Email 1">
<g id="#000000ff">
<path id="Vector" d="M4.65204 0H14.3461C14.8063 0.0263477 15.2546 0.232305 15.5633 0.576309C15.8657 0.898418 16.0327 1.33891 16.0316 1.77977C16.0309 4.17406 16.0313 6.56836 16.0316 8.96303C16.3185 8.76004 16.5645 8.4717 16.9211 8.39117C17.3976 8.26092 17.9402 8.4665 18.2088 8.88139C18.3361 9.07398 18.4066 9.30406 18.4063 9.53525C18.4059 12.1088 18.4066 14.6823 18.4059 17.2555C18.3996 17.7182 18.204 18.1762 17.8682 18.4957C17.5657 18.7985 17.1479 18.9737 16.7222 19H2.27815C1.56639 18.9688 0.905103 18.469 0.686157 17.7906C0.562954 17.4514 0.598208 17.087 0.593755 16.7337C0.593755 14.3342 0.593755 11.9347 0.593755 9.53525C0.593384 9.26844 0.686528 9.00236 0.855005 8.79529C1.14372 8.42643 1.66139 8.26574 2.1093 8.39934C2.45108 8.4884 2.68932 8.76598 2.96838 8.96303C2.96875 6.58135 2.9695 4.19967 2.96801 1.81799C2.96542 1.60238 2.99807 1.38566 3.07043 1.1823C3.29791 0.517305 3.9503 0.031543 4.65204 0ZM4.52958 1.23092C4.30952 1.31627 4.15626 1.54264 4.15663 1.77865C4.15588 4.48801 4.15626 7.19736 4.15663 9.90672C5.54897 11.0129 6.9428 12.1173 8.33626 13.2228C8.8235 13.6481 9.54788 13.7783 10.1487 13.5323C10.407 13.4399 10.6174 13.2607 10.8285 13.0922C12.1667 12.0305 13.5056 10.9695 14.8434 9.90672C14.8438 7.19811 14.8441 4.48912 14.8434 1.78014C14.8489 1.46322 14.5662 1.18119 14.2493 1.18787C11.1447 1.18713 8.04049 1.18787 4.93592 1.1875C4.79973 1.18676 4.65834 1.17748 4.52958 1.23092ZM1.782 9.54639C1.78051 12.1036 1.78126 14.6608 1.78163 17.218C1.77532 17.536 2.05846 17.8192 2.37649 17.8121C7.05227 17.8129 11.7281 17.8121 16.4038 17.8125C16.5597 17.8118 16.7245 17.8273 16.8699 17.7587C17.0774 17.6667 17.218 17.4481 17.2184 17.2213C17.2188 14.663 17.2195 12.1047 17.218 9.54639C15.2746 11.0857 13.3319 12.6268 11.3896 14.1684C11.0835 14.4177 10.7294 14.6088 10.3506 14.7209C9.41131 15.0085 8.34034 14.787 7.5911 14.1528C5.6551 12.6164 3.71911 11.0809 1.782 9.54639Z" fill="#D64773"/>
<path id="Vector_2" d="M6.57875 3.57444C7.23633 2.91612 8.1251 2.49455 9.0506 2.39844C9.82322 2.31494 10.6203 2.44817 11.3184 2.7918C12.2027 3.21781 12.9233 3.97076 13.313 4.87178C13.5419 5.39242 13.6555 5.96131 13.6574 6.52945C13.6596 7.00445 13.464 7.47945 13.1189 7.8075C12.7311 8.19678 12.1526 8.37713 11.6111 8.29363C11.2694 8.24576 10.9473 8.09102 10.6875 7.86465C10.335 8.176 9.85884 8.34188 9.38904 8.30996C8.95152 8.28399 8.52476 8.0925 8.22269 7.77373C7.80707 7.35959 7.63191 6.72873 7.75734 6.15799C7.85494 5.67445 8.17037 5.24436 8.59416 4.99498C9.01758 4.74301 9.54713 4.68252 10.018 4.82539C10.7409 5.03246 11.2809 5.74199 11.2812 6.49531C11.2709 6.71686 11.3878 6.93951 11.5833 7.04713C11.8 7.17479 12.0932 7.13953 12.2761 6.96772C12.3975 6.85713 12.4665 6.69496 12.4691 6.53131C12.4684 5.91233 12.2687 5.29445 11.9036 4.79422C11.5165 4.2617 10.9521 3.85869 10.3179 3.67908C9.71301 3.5017 9.05246 3.52879 8.46316 3.75145C7.85011 3.97856 7.32056 4.41867 6.97582 4.97309C6.62142 5.5442 6.46668 6.23889 6.55574 6.90612C6.64035 7.57854 6.96506 8.21793 7.4601 8.68143C8.23271 9.43438 9.43617 9.70268 10.4541 9.34086C10.7461 9.21395 11.1217 9.36016 11.2356 9.66037C11.3677 9.94908 11.2163 10.3213 10.9224 10.4382C9.96015 10.7918 8.86543 10.7692 7.91765 10.3773C7.10013 10.0426 6.39728 9.43846 5.94084 8.68217C5.48402 7.93182 5.27918 7.03303 5.36008 6.15873C5.44135 5.18906 5.88183 4.25391 6.57875 3.57444ZM9.36381 5.955C9.12853 6.00658 8.9415 6.21551 8.91218 6.45412C8.86246 6.76621 9.10701 7.0835 9.42058 7.11875C9.79093 7.18295 10.1505 6.82447 10.0878 6.45375C10.0522 6.11791 9.69111 5.86483 9.36381 5.955Z" fill="#D64773"/>
</g>
</g>
</svg>
