<svg width="20" height="20" viewBox="0 0 20 20" fill="none" xmlns="http://www.w3.org/2000/svg">
<path d="M4.31472 0.562839C7.47161 0.550536 10.6285 0.559324 13.7872 0.557567C13.7872 1.74217 13.7872 2.92502 13.7854 4.10787C15.0836 4.04811 16.4873 4.15708 17.5396 5.00423C19.0926 6.23278 19.6547 8.31551 19.674 10.2225C19.7566 12.3228 19.3613 14.6691 17.717 16.135C16.663 17.1051 15.1662 17.2352 13.8012 17.1561C13.7731 17.9505 13.7924 18.745 13.7872 19.5394C10.6303 19.5394 7.47337 19.5429 4.31823 19.5376C4.31999 18.7485 4.31999 17.9593 4.31823 17.1719C3.13945 17.1649 1.95891 17.1649 0.778367 17.1719C0.785394 14.3897 0.774853 11.6074 0.783637 8.8252C0.753772 8.21884 1.31945 7.68278 1.9185 7.69332C2.71607 7.64587 3.51891 7.69157 4.31823 7.67048C4.31648 5.30126 4.3235 2.93205 4.31472 0.562839ZM5.44958 1.75448C5.44783 3.72648 5.44958 5.69672 5.44958 7.66872C7.83877 7.68454 10.2297 7.67048 12.6189 7.67575C12.633 5.70726 12.6031 3.73878 12.6347 1.77029C10.2403 1.72635 7.84404 1.75799 5.44958 1.75448ZM14.1192 5.3329C13.9365 5.43835 13.7608 5.60708 13.7924 5.83908C13.7801 6.34351 13.7661 6.8532 13.8082 7.35763C14.0366 7.76363 14.5847 7.68805 14.9782 7.71969C15.6072 7.65817 16.1676 8.25399 16.1324 8.87266C16.15 10.0291 16.1412 11.1856 16.1377 12.3421C16.1676 12.8694 15.8285 13.3967 15.3155 13.5461C14.8201 13.6304 14.2369 13.4599 13.8293 13.8361C13.745 14.3809 13.7854 14.938 13.7959 15.4882C13.7608 15.7694 14.0507 15.9223 14.2755 15.9944C15.3559 16.1279 16.5435 15.8344 17.2603 14.9679C18.3442 13.6603 18.5849 11.8693 18.5497 10.2225C18.4566 8.70569 18.1105 7.03072 16.9177 5.9832C16.164 5.29072 15.0872 5.21163 14.1192 5.3329ZM1.90972 8.83926C1.91148 11.2278 1.91148 13.6146 1.90972 16.0031C2.71256 16.0137 3.51715 16.0137 4.31999 16.0031C4.31472 14.808 4.3235 13.6111 4.31648 12.4159C7.88094 12.4212 11.4454 12.4265 15.0116 12.4124C15.0116 11.2243 15.0081 10.0344 15.0134 8.84454C10.6461 8.81993 6.27702 8.83048 1.90972 8.83926ZM5.44607 13.59C5.4531 15.1736 5.44607 16.7571 5.44958 18.3425C7.83175 18.3636 10.2157 18.3214 12.5978 18.3636C12.6558 16.7694 12.6049 15.1736 12.6224 13.5777C10.2297 13.5847 7.83702 13.5619 5.44607 13.59Z" fill="#D64773"/>
<path d="M3.4627 10.1223C3.84215 9.86746 4.20756 10.277 4.32702 10.6144C4.23743 10.9853 3.88432 11.4001 3.47499 11.1628C3.02702 10.9818 3.01121 10.3086 3.4627 10.1223Z" fill="#D64773"/>
</svg>
