<svg width="69" height="63" viewBox="0 0 69 63" fill="none" xmlns="http://www.w3.org/2000/svg">
<circle cx="34.5" cy="15.5" r="12.5" fill="#D64773" fill-opacity="0.3"/>
<path d="M29.3264 3.15747C30.2649 1.54357 32.0231 0.491027 33.855 0.346112C35.3575 0.214926 36.8961 0.725943 38.0617 1.68848C38.7971 2.26509 39.2393 3.10408 39.7913 3.84238C40.3944 4.57306 41.3434 4.96204 42.2729 4.96967C43.5002 5.00781 44.7455 5.36018 45.7231 6.13204C46.3638 6.62018 46.9082 7.23645 47.3158 7.93509C48.128 9.37967 48.3731 11.172 47.8227 12.7554C47.573 13.6036 46.9864 14.3342 46.9037 15.2342C46.824 15.907 46.9985 16.5842 47.3173 17.1715C47.6677 17.8671 47.9415 18.6054 48.0693 19.3773C48.3265 21.3146 47.5986 23.3556 46.1457 24.6461C45.2057 25.5675 43.9318 26.0022 42.6579 26.1731C42.6414 28.6442 42.6519 31.1139 42.6534 33.5851C42.6489 34.5446 42.6474 35.5041 42.6549 36.4636C42.6399 38.4878 42.6609 40.512 42.6459 42.5363C42.6459 43.4714 41.5104 44.1868 40.7072 43.6712C39.7778 43.0351 38.8844 42.3425 37.9624 41.6927C37.3623 41.2641 36.7713 40.8217 36.1666 40.3976C35.6132 39.9858 35.0642 39.5648 34.4792 39.1956C32.4112 40.6554 30.3958 42.1931 28.3173 43.6361C27.6359 44.1197 26.6463 43.6803 26.3921 42.9176C26.4673 38.4207 26.4057 33.9207 26.4252 29.4237C26.3936 28.3392 26.4974 27.25 26.359 26.1715C25.1649 26.112 23.9466 25.7978 22.9826 25.0549C22.1298 24.4264 21.45 23.5692 21.0093 22.6005C20.6709 21.7554 20.4844 20.8478 20.51 19.9341C20.5686 18.9517 20.8815 18.0044 21.3387 17.141C21.8305 16.2288 21.8786 15.0863 21.4109 14.1527C20.9807 13.2954 20.6017 12.3878 20.5295 11.4161C20.4152 10.0997 20.8078 8.79391 21.459 7.66509C21.7628 7.23187 22.1132 6.82916 22.4893 6.45848C23.2067 5.85594 24.0293 5.35408 24.9498 5.15425C25.7635 4.93764 26.6253 5.04442 27.4329 4.8034C28.2466 4.51815 28.9068 3.91103 29.3264 3.15747ZM32.3751 3.65781C31.7088 4.12306 31.417 4.91781 30.8981 5.5173C29.8198 6.82306 28.1744 7.61933 26.4944 7.64374C25.583 7.59798 24.6851 7.97933 24.0669 8.65662C23.0096 9.70611 22.9374 11.5092 23.6804 12.7585C24.0293 13.3641 24.1933 14.0475 24.3602 14.7202C24.2941 15.5805 24.4339 16.4729 24.1376 17.3012C23.9587 17.9541 23.5466 18.5063 23.333 19.1454L23.3285 19.0341C23.2443 19.5954 23.0578 20.1705 23.2021 20.741C23.3856 21.9659 24.3347 23.0337 25.5048 23.3739C26.4749 23.6149 27.5021 23.4471 28.4406 23.8468C29.1159 24.1549 29.7596 24.5348 30.3236 25.0244C31.1478 25.8909 31.6712 27.07 32.7135 27.7046C33.8745 28.3666 35.4568 28.2354 36.4509 27.3156C37.0119 26.8458 37.2676 26.1273 37.7594 25.5964C38.6061 24.582 39.8018 23.891 41.0742 23.5997C41.6277 23.4929 42.1977 23.557 42.7557 23.4792C43.5167 23.3144 44.2371 22.9163 44.7304 22.2985C45.4629 21.4046 45.6599 20.1217 45.2628 19.0356C44.9485 18.2958 44.5139 17.5987 44.371 16.7917C44.1739 15.4295 44.2416 13.962 44.9575 12.7509C45.4764 11.892 45.6404 10.8242 45.314 9.8617C45.0748 9.18442 44.6086 8.63221 44.0611 8.18831C42.9858 7.39967 41.5976 7.79628 40.4094 7.35543C39.4589 7.02442 38.5941 6.45391 37.8947 5.7217C37.3729 5.12679 37.039 4.38848 36.484 3.82103C35.356 2.8295 33.5662 2.72577 32.3751 3.65781ZM38.8964 28.5848C38.3565 29.3048 37.5954 29.7837 36.8795 30.2948C36.2659 30.3939 35.7049 30.7219 35.0762 30.7509C34.592 30.7814 34.1047 30.7585 33.6204 30.7844C32.4713 30.6014 31.3493 30.1346 30.4725 29.3505C29.8589 28.8105 29.5009 28.0509 28.9535 27.4514C28.9655 31.5715 28.9595 35.6932 28.9625 39.8134C29.5099 39.6181 29.9205 39.1864 30.3898 38.86C31.3884 38.1476 32.3871 37.4353 33.3707 36.7015C33.7723 36.3965 34.2536 36.1127 34.7754 36.2348C35.4237 36.4315 35.8944 36.9593 36.4539 37.3193C37.6451 38.1324 38.758 39.0675 39.9898 39.8134C39.9898 35.5849 40.0124 31.3549 39.9868 27.1264C39.5386 27.5444 39.2604 28.0981 38.8964 28.5848Z" fill="#454545"/>
<path d="M37.7638 12.1758C38.212 11.7456 38.6181 11.1553 39.2799 11.0775C39.7461 11.0211 40.1311 11.3414 40.4665 11.6221C40.638 12.0187 40.7959 12.484 40.5959 12.9004C40.3447 13.4328 39.8739 13.8034 39.4769 14.2184C37.5127 16.1953 35.571 18.1982 33.5978 20.1675C33.2338 20.5916 32.6578 20.5473 32.1569 20.5397C30.9161 19.4948 29.8573 18.2516 28.6872 17.1304C28.2616 16.7551 28.0149 16.1999 28.0856 15.6217C28.3308 14.9063 29.0542 14.5082 29.7836 14.6607C30.0137 14.7629 30.2183 14.9155 30.4033 15.0878C31.1583 15.8323 31.8697 16.6224 32.6533 17.3363C34.3798 15.6416 36.0598 13.8965 37.7638 12.1758Z" fill="#454545"/>
<path d="M10.9926 12.8867C12.4019 12.5038 13.9976 12.7357 15.1783 13.6296C15.6987 14.0002 16.1333 14.4792 16.5033 15.0024C17.3516 16.3646 17.5847 18.125 17.0207 19.6428C16.2115 21.7906 15.3227 23.9079 14.5285 26.0602C13.8999 27.5704 13.3058 29.0989 12.7448 30.6365C12.632 30.8928 12.5222 31.149 12.4109 31.4068C13.4532 30.9736 14.6113 30.8913 15.7152 31.0941C17.0944 31.4816 18.3307 32.4045 19.0902 33.6401C19.4211 34.2929 19.6482 34.9931 19.8798 35.6887C20.5942 37.9082 21.3507 40.114 22.0816 42.3289C22.3148 43.0718 22.5659 43.8085 22.7705 44.5591C23.2894 46.6443 23.336 48.9157 22.5734 50.946C22.0922 52.3158 21.3597 53.5941 20.4483 54.7153C19.3459 55.9829 18.1457 57.2262 17.5245 58.8248C17.135 59.795 16.9695 60.8368 16.6537 61.8299C16.4717 62.434 15.84 62.8779 15.2129 62.7696C14.7752 62.7223 14.4473 62.3836 14.2022 62.0404L14.1255 61.926C13.9976 61.2838 14.2458 60.6675 14.4173 60.0604C14.6519 59.2763 14.8083 58.4663 15.1271 57.7113C15.7408 56.2499 16.6748 54.9518 17.7411 53.7985C19.0797 52.3402 20.2197 50.557 20.4453 48.5374C20.6243 47.3185 20.4543 46.0753 20.1234 44.8992C19.4662 42.6645 18.6615 40.477 17.9471 38.2591C17.702 37.4231 17.3831 36.6116 17.1199 35.7818C16.8537 34.508 15.5859 33.5318 14.3045 33.6584C12.8802 33.7865 11.7176 35.3013 12.056 36.7336C12.2966 37.6779 12.6155 38.5992 12.8651 39.5404C13.0862 40.3565 13.3449 41.1604 13.581 41.9704C13.7435 42.6431 14.1345 43.4028 13.7044 44.0557C13.3223 44.7741 12.3056 44.8336 11.7116 44.3607C11.2002 43.6423 11.0784 42.7392 10.8077 41.9155C10.2662 39.8516 9.48413 37.8457 9.18784 35.7223C9.07955 34.3189 9.25552 32.914 9.54579 31.5426C10.9806 27.8053 12.4545 24.0818 13.9149 20.3536C14.2623 19.3316 14.9602 18.3157 14.6383 17.1853C14.315 15.9482 12.9163 15.0406 11.6815 15.4555C10.8859 15.666 10.2587 16.3036 9.97744 17.0785C9.0585 19.4582 8.0809 21.8165 7.17699 24.2038C6.57539 25.5416 6.0911 26.9297 5.52109 28.2813C4.9992 29.7411 4.23968 31.1323 4.02912 32.6882C3.87872 33.9619 3.94189 35.2723 4.34195 36.4957C4.56905 37.4079 4.82774 38.3109 5.08042 39.2155C5.65946 41.4319 6.30467 43.6285 6.89274 45.8435C7.30333 46.9524 7.39658 48.1316 7.36349 49.3077C7.25671 49.9743 7.04765 50.6165 6.81002 51.2465C5.66698 54.6482 4.49987 58.0407 3.33728 61.4363C3.18989 62.0633 2.79283 62.6018 2.17619 62.8138C1.26928 62.916 0.377405 61.9977 0.685725 61.0779C1.62272 58.207 2.66048 55.3697 3.58845 52.4958C4.07273 50.9384 4.98115 49.3672 4.63673 47.6816C3.92985 44.8748 3.12672 42.0924 2.35366 39.304C2.03181 37.8365 1.4648 36.424 1.33395 34.9168C1.26326 33.9192 1.28131 32.9094 1.47081 31.924C1.81523 30.1194 2.64544 28.4689 3.27862 26.7604C4.78262 23.0887 6.22045 19.3911 7.7049 15.7118C8.31402 14.3374 9.5488 13.2574 10.9926 12.8867Z" fill="#454545"/>
<path d="M54.1651 13.1886C56.4752 12.0354 59.5359 13.0239 60.7481 15.3318C61.0865 16 61.3076 16.7184 61.6099 17.4033C62.4251 19.4383 63.2237 21.4823 64.0539 23.5111C64.3848 24.3745 64.7232 25.2349 65.0796 26.0861C65.9926 28.6137 67.4033 31.0742 67.3356 33.8474C67.4033 35.4552 66.8965 36.9959 66.4753 38.5228C65.6722 41.5874 64.7668 44.6261 63.9922 47.6983C63.7381 48.76 64.105 49.8201 64.4464 50.8132C65.0135 52.3706 65.5098 53.954 66.0602 55.5161C66.3234 56.2178 65.7955 56.8447 65.2526 57.2017C64.8661 57.2078 64.4404 57.2505 64.105 57.0156C63.6132 56.7105 63.4643 56.111 63.2944 55.5939C63.0252 54.6908 62.6853 53.8137 62.3784 52.9259C62.1438 52.1784 61.9032 51.4325 61.6264 50.7018C61.1301 49.2496 61.1722 47.6311 61.643 46.1805C62.2205 44.1684 62.7484 42.1411 63.3079 40.1245C63.6418 38.8401 64.0569 37.5771 64.3427 36.2789C64.8871 34.4622 64.7728 32.4501 64.0704 30.6913C63.7501 29.8798 63.4072 29.0789 63.1064 28.2613C62.8342 27.5566 62.5288 26.8686 62.2521 26.1669C61.4038 23.952 60.4999 21.76 59.6261 19.5557C59.3464 18.8678 59.0802 18.1752 58.811 17.4842C58.5477 16.691 58.086 15.8978 57.2784 15.5805C56.2541 15.0542 54.9472 15.5195 54.329 16.4622C53.8538 17.1425 53.7981 18.0669 54.1124 18.8281C54.4208 19.5939 54.7306 20.3596 55.0194 21.1345C55.2871 21.8286 55.5804 22.512 55.8466 23.2076C56.6121 25.1906 57.3897 27.1691 58.1748 29.143C58.5071 30.0598 58.9253 30.9476 59.1403 31.904C59.393 32.9337 59.5103 34.003 59.4697 35.0647C59.3584 37.4978 58.3643 39.7539 57.7792 42.0862C57.5341 42.7971 57.4393 43.5812 57.0242 44.2173C56.7053 44.7008 56.0962 44.6505 55.5954 44.6734C55.1382 44.3728 54.6479 43.9228 54.7246 43.3111C54.9667 42.0023 55.463 40.7576 55.7954 39.4717C56.0165 38.5884 56.3113 37.7266 56.5534 36.8479C56.7399 36.2149 56.5986 35.5376 56.2963 34.9671C55.7398 33.9908 54.5306 33.4081 53.4432 33.73C52.6506 33.9954 51.9061 34.5735 51.6384 35.4034C50.948 37.4245 50.2833 39.4564 49.632 41.4913C48.9251 43.5583 48.0453 45.6496 48.1205 47.8813C48.1867 49.03 48.4664 50.1771 49.0274 51.1854C49.4801 52.0381 50.0155 52.8496 50.6863 53.5452C51.9933 54.9959 53.2085 56.5991 53.8041 58.4952C53.9951 59.2442 54.1861 59.9932 54.4193 60.73C54.4839 60.9664 54.5351 61.2089 54.5697 61.453C54.5591 62.3103 53.6537 63.0044 52.8356 62.7435C52.1618 62.472 51.8835 61.7688 51.7632 61.0961C51.5241 60.1396 51.306 59.1664 50.8608 58.2817C50.3299 57.1483 49.4982 56.201 48.6725 55.2812C48.1025 54.6466 47.5881 53.9617 47.1519 53.2264C46.3608 51.9832 45.8465 50.5676 45.5697 49.12C45.4614 47.9332 45.4434 46.725 45.6554 45.5474C45.848 44.3835 46.2601 43.2761 46.5985 42.1503C47.1925 40.5166 47.6783 38.8462 48.2679 37.211C48.692 36.0135 48.9612 34.7474 49.5719 33.6262C50.2998 32.38 51.5602 31.4983 52.9168 31.091C54.0177 30.8988 55.1743 30.9644 56.2135 31.4037C55.457 29.445 54.6885 27.494 53.9169 25.543C53.6522 24.8184 53.3635 24.103 53.0642 23.3922C52.7468 22.5837 52.4611 21.7615 52.1227 20.9622C51.8098 20.1461 51.4188 19.3391 51.3406 18.4559C51.2188 17.5208 51.4037 16.5674 51.7406 15.6964C52.2746 14.6317 53.1108 13.7301 54.1651 13.1886Z" fill="#454545"/>
<path d="M66.2587 60.1428C66.8392 60.0512 67.513 60.1809 67.8063 60.7575C68.3793 61.5873 67.6363 62.8626 66.6497 62.7802C66.0917 62.8016 65.6902 62.35 65.4089 61.9183C65.4089 61.5812 65.3202 61.2121 65.4932 60.9024C65.6526 60.5653 65.9759 60.3624 66.2587 60.1428Z" fill="#454545"/>
<path d="M26.2356 26.6491C26.2717 26.4874 26.3123 26.3287 26.3589 26.1716C26.4973 27.2501 26.3935 28.3393 26.4251 29.4238C26.4056 33.9208 26.4672 38.4208 26.392 42.9177C26.1905 42.4464 26.2567 41.9216 26.2461 41.4243C26.2687 40.471 26.2536 39.5176 26.2536 38.5642C26.2642 35.5011 26.2747 32.4381 26.2476 29.375C26.2657 28.4659 26.2612 27.5567 26.2356 26.6491Z" fill="#454545"/>
</svg>
