<svg width="50" height="54" viewBox="0 0 50 54" fill="none" xmlns="http://www.w3.org/2000/svg">
<path d="M5.31809 0H26.1208C27.6353 0.0801563 29.0844 0.873281 29.964 2.10938C30.58 2.96051 30.908 4.00992 30.9069 5.06039C30.9048 9.27598 30.9069 13.4916 30.9059 17.7061C34.0003 19.8882 37.2498 21.9227 39.8908 24.6681C41.3104 26.1763 42.6224 28.0157 42.7131 30.1588C42.7257 33.924 42.7141 37.6903 42.7184 41.4555C42.7099 41.6 42.7553 41.7393 42.8386 41.8574C44.9501 45.0183 47.0563 48.1823 49.1657 51.3453C49.4863 51.8031 49.5622 52.4148 49.3524 52.9348C49.1467 53.5043 48.6014 53.8819 48.0224 54H47.6121C47.3073 53.9441 46.9972 53.8545 46.7515 53.6572C46.4319 53.4041 46.2389 53.036 46.0122 52.7059C44.004 49.6916 41.9949 46.6763 39.9836 43.663C39.683 43.219 39.3202 42.757 39.3444 42.1886C39.3423 38.2862 39.3423 34.3828 39.3455 30.4805C39.3613 29.7918 39.0491 29.1547 38.6979 28.582C38.0967 27.6307 37.292 26.8323 36.4778 26.0645C34.7502 24.4909 32.8275 23.1536 30.9069 21.8299C30.9048 24.2156 30.9069 26.6003 30.9059 28.986C32.1377 29.9721 33.3654 30.9635 34.5983 31.9475C35.2438 32.4327 35.4463 33.3967 35.0445 34.098C34.727 34.7055 34.0172 35.0578 33.3411 34.9576C32.8876 34.927 32.5238 34.6349 32.1894 34.3586C29.462 32.1659 26.7198 29.9921 24.005 27.7836C23.6465 27.501 23.1244 27.4609 22.7236 27.6739C22.2384 27.906 21.9558 28.4787 22.0613 29.005C22.133 29.4469 22.4947 29.7453 22.77 30.067C25.181 32.7871 27.5878 35.5113 29.9988 38.2314C30.2288 38.4961 30.4893 38.7429 30.658 39.054C30.8247 39.3641 30.8521 39.7238 30.8563 40.0697C30.8542 41.8321 30.8479 43.5934 30.8574 45.3558C30.8605 46.0034 31.1136 46.6109 31.3984 47.1804C32.1641 48.6643 33.1872 49.9985 34.2745 51.2589C34.785 51.8674 34.7597 52.8346 34.2313 53.4241C33.9803 53.7321 33.6048 53.8977 33.2304 54H32.7473C32.3424 53.9314 31.9542 53.7479 31.6842 53.4326C30.6454 52.2492 29.6909 50.9868 28.8872 49.6315C28.3409 50.0038 27.746 50.317 27.0995 50.47C26.3454 50.6735 25.5575 50.6208 24.7855 50.625C18.3899 50.6261 11.9932 50.6239 5.59653 50.6261C4.90255 50.6261 4.20856 50.4858 3.57048 50.2105C1.78911 49.4554 0.538249 47.6054 0.531921 45.6659C0.528757 32.1311 0.532976 18.5963 0.529812 5.06145C0.525593 3.78 1.02235 2.49855 1.91673 1.57781C2.79001 0.633867 4.03876 0.0748828 5.31809 0ZM4.83083 3.56062C4.23598 3.85277 3.87212 4.51301 3.90481 5.17008C3.90903 18.6374 3.9027 32.1036 3.90798 45.5709C3.89216 46.4685 4.69266 47.2616 5.58809 47.2479C12.3402 47.2521 19.0913 47.2489 25.8423 47.25C26.6861 47.2637 27.5361 46.537 27.4781 45.6595C27.4781 43.9372 27.4792 42.216 27.4771 40.4937C25.0956 37.8 22.7099 35.1084 20.3284 32.4148C20.0194 32.0562 19.6766 31.725 19.4193 31.3263C18.5956 30.0966 18.4363 28.4607 18.9774 27.0875C19.4393 25.8926 20.4265 24.9138 21.6257 24.4645C22.7215 24.0395 23.9766 24.0627 25.0608 24.513C26.0206 24.8927 26.7124 25.6869 27.5309 26.2828C27.5309 19.4189 27.5298 12.5561 27.5319 5.69215C27.5288 5.24813 27.5731 4.77879 27.3769 4.36535C27.1164 3.77367 26.4909 3.37816 25.8476 3.37711C19.3085 3.37184 12.7695 3.37711 6.22934 3.37395C5.76001 3.375 5.26009 3.32965 4.83083 3.56062Z" fill="white"/>
<path d="M7.72976 5.09091C8.98062 4.86415 10.3032 5.7311 10.5806 6.97352C10.8073 7.84259 10.5268 8.82028 9.87078 9.43411C9.27699 10.0026 8.39633 10.2473 7.59371 10.0711C6.89656 9.92876 6.27219 9.47313 5.92414 8.85298C5.48012 8.08833 5.48117 7.08848 5.92836 6.32595C6.29961 5.66887 6.98305 5.20165 7.72976 5.09091Z" fill="white"/>
<path d="M14.5074 16.9581C17.3192 16.531 20.3219 17.6405 22.1349 19.8395C22.6496 20.5304 22.5062 21.5977 21.8301 22.1314C21.1646 22.6967 20.0656 22.6207 19.4972 21.951C18.414 20.717 16.7001 20.0631 15.0706 20.2941C13.6458 20.4713 12.3211 21.2971 11.5248 22.49C10.6093 23.8189 10.3994 25.5981 10.9879 27.1021C11.684 28.9921 13.5941 30.3548 15.6128 30.3716C16.3215 30.3316 17.0334 30.7608 17.2865 31.4316C17.6072 32.1836 17.2781 33.1381 16.5588 33.5294C16.0821 33.8162 15.502 33.7614 14.9715 33.7192C13.0161 33.5557 11.1282 32.6782 9.7508 31.2808C8.32591 29.877 7.44314 27.9427 7.30287 25.9483C7.14677 23.9802 7.71103 21.9626 8.87435 20.3669C10.1917 18.5328 12.2694 17.2661 14.5074 16.9581Z" fill="white"/>
<path d="M22.9145 40.5298C24.1654 40.3009 25.49 41.1679 25.7685 42.4103C25.9952 43.2804 25.7136 44.2602 25.0555 44.874C24.4628 45.4404 23.5863 45.684 22.7858 45.51C22.0866 45.3687 21.4601 44.9109 21.1099 44.2897C20.6564 43.5061 20.6712 42.4788 21.1479 41.71C21.5244 41.0814 22.1899 40.6374 22.9145 40.5298Z" fill="white"/>
</svg>
