<svg width="40" height="40" viewBox="0 0 40 40" fill="none" xmlns="http://www.w3.org/2000/svg">
<path d="M19.5506 39.1012C30.3481 39.1012 39.1012 30.3481 39.1012 19.5506C39.1012 8.75311 30.3481 0 19.5506 0C8.75311 0 0 8.75311 0 19.5506C0 30.3481 8.75311 39.1012 19.5506 39.1012Z" fill="url(#paint0_linear)"/>
<path d="M25.6217 12.1555C24.8729 12.1555 24.2845 12.7573 24.2845 13.5061C24.2845 14.255 24.8862 14.8568 25.6217 14.8568C26.3706 14.8568 26.9724 14.255 26.9724 13.5061C26.9724 12.7573 26.3706 12.1555 25.6217 12.1555Z" fill="white"/>
<path d="M19.6442 13.8806C16.5284 13.8806 14.001 16.408 14.001 19.5238C14.001 22.6396 16.5284 25.167 19.6442 25.167C22.76 25.167 25.2874 22.6396 25.2874 19.5238C25.2874 16.408 22.76 13.8806 19.6442 13.8806ZM19.6442 23.1478C17.6517 23.1478 16.0337 21.5297 16.0337 19.5372C16.0337 17.5447 17.6517 15.9266 19.6442 15.9266C21.6367 15.9266 23.2548 17.5447 23.2548 19.5372C23.2548 21.5297 21.6367 23.1478 19.6442 23.1478Z" fill="white"/>
<path d="M24.124 30.984H14.9772C11.1794 30.984 8.09036 27.8949 8.09036 24.0971V14.9503C8.09036 11.1525 11.1794 8.06348 14.9772 8.06348H24.124C27.9218 8.06348 31.0109 11.1525 31.0109 14.9503V24.0971C31.0109 27.8949 27.9218 30.984 24.124 30.984ZM14.9772 10.2165C12.3696 10.2165 10.2433 12.3427 10.2433 14.9503V24.0971C10.2433 26.7048 12.3696 28.831 14.9772 28.831H24.124C26.7317 28.831 28.8579 26.7048 28.8579 24.0971V14.9503C28.8579 12.3427 26.7317 10.2165 24.124 10.2165H14.9772Z" fill="white"/>
<defs>
<linearGradient id="paint0_linear" x1="33.3782" y1="5.72678" x2="5.72678" y2="33.3782" gradientUnits="userSpaceOnUse">
<stop offset="0.0011048" stop-color="#FBE18A"/>
<stop offset="0.2094" stop-color="#FCBB45"/>
<stop offset="0.3765" stop-color="#F75274"/>
<stop offset="0.5238" stop-color="#D53692"/>
<stop offset="0.7394" stop-color="#8F39CE"/>
<stop offset="1" stop-color="#5B4FE9"/>
</linearGradient>
</defs>
</svg>
