<svg width="56" height="41" viewBox="0 0 56 41" fill="none" xmlns="http://www.w3.org/2000/svg">
<path d="M27.1611 1.35623C27.5277 0.762476 28.466 0.762476 28.8388 1.3531C31.6971 4.63435 34.1297 8.2781 36.1802 12.1219C38.9173 10.4437 41.8221 9.0281 44.8388 7.9406C45.4477 7.67185 46.1064 8.13748 46.153 8.78123C46.6532 11.6906 46.8862 14.6469 46.8769 17.6C49.5176 17.775 52.1367 18.1906 54.7184 18.7687C55.1689 18.8844 55.7126 18.9437 55.9301 19.4281C56.1103 20.1344 55.7188 20.7812 55.464 21.4094C53.4384 25.9437 50.8442 30.2906 47.3615 33.8531C44.4691 36.8344 40.7254 38.8937 36.7736 40.0718C33.9153 40.8718 30.7495 41.0531 28.0062 39.7562C25.1013 41.1219 21.7429 40.85 18.7541 39.9312C15.054 38.7437 11.5433 36.8 8.79686 34.0093C5.05317 30.2344 2.31298 25.5625 0.231428 20.6906C-0.029543 20.15 -0.153815 19.2812 0.514146 18.9875C3.31648 18.1812 6.22133 17.7625 9.12618 17.5125C9.16347 14.525 9.34987 11.5219 9.9091 8.58123C10.0147 7.89373 10.8629 7.73123 11.4035 8.0156C14.3332 9.1031 17.1573 10.4875 19.8322 12.1125C21.8734 8.27185 24.306 4.63435 27.1611 1.35623ZM19.4314 18.2469C22.4202 19.0094 25.3499 20.075 27.9969 21.6781C30.6625 20.1125 33.5456 18.9156 36.5592 18.2437C34.8163 12.7406 31.579 7.85935 28 3.39998C24.4178 7.86248 21.1899 12.75 19.4314 18.2469ZM11.593 10.2094C11.2637 12.5969 11.0959 15.0094 11.0586 17.4219C13.2178 17.3562 15.3771 17.5062 17.5114 17.8375C17.9526 16.5031 18.4031 15.1687 18.9778 13.8844C16.6105 12.4781 14.1623 11.2 11.593 10.2094ZM37.0314 13.8906C37.5969 15.1812 38.0567 16.5187 38.4947 17.8594C40.626 17.5406 42.7821 17.4469 44.9351 17.5C44.9475 15.0625 44.7425 12.6281 44.4256 10.2125C41.8532 11.1969 39.4019 12.4844 37.0314 13.8906ZM2.30055 20.5312C4.33861 25.0687 6.95143 29.4281 10.5149 32.9219C12.553 34.9468 15.0788 36.3937 17.7134 37.4719C19.7079 38.2625 21.8392 38.8 23.9984 38.7343C21.4602 37.4843 19.6738 35.1094 18.5491 32.5594C16.8497 28.55 16.3495 24.025 17.0423 19.7281C12.1336 18.9875 7.1223 19.4625 2.30055 20.5312ZM38.9701 19.7437C39.5697 23.4156 39.2248 27.2187 38.1406 30.7656C37.0811 34.0062 35.1239 37.1781 32.0015 38.7437C36.3759 38.7437 40.567 36.8156 44.0186 34.2187C48.3712 30.6219 51.3631 25.65 53.6963 20.5594C48.8683 19.5406 43.8757 19.1062 38.9701 19.7437ZM19.273 28.4844C20.0062 31.5437 21.4042 34.6625 24.0543 36.5C26.0427 37.9187 28.8015 38.175 30.9825 37.0593C33.3064 35.9187 34.8908 33.6656 35.8384 31.3062C37.1961 27.7906 37.6714 23.8969 37.0532 20.1687C34.4963 20.6719 32.0978 21.7312 29.7864 22.9062C31.4392 24.2469 32.7627 26.2312 32.6695 28.4437C32.6974 31.1062 30.7526 33.3843 28.5002 34.5562C27.9658 34.9187 27.3848 34.5125 26.9219 34.2312C24.946 32.9968 23.2932 30.875 23.3273 28.4406C23.2435 26.2281 24.5607 24.2469 26.2136 22.9031C23.899 21.7375 21.4912 20.7187 18.953 20.1719C18.4497 22.925 18.6858 25.7625 19.273 28.4844ZM25.2753 28.0812C25.1169 29.9969 26.4994 31.6125 27.9969 32.6C29.4819 31.6062 30.8831 30.0156 30.7246 28.1031C30.6252 26.3562 29.3173 25.0156 28 24.0281C26.6889 25.0125 25.384 26.3437 25.2753 28.0812Z" fill="#D64773"/>
</svg>
