<svg width="281" height="316" viewBox="0 0 281 316" fill="none" xmlns="http://www.w3.org/2000/svg">
<g clip-path="url(#clip0)">
<g style="mix-blend-mode:multiply">
<path d="M139.662 0H204.413V107.154H139.662V0Z" fill="#E0E0E0"/>
<path d="M141.813 0H206.564V107.154H141.813V0Z" fill="#EBEBEB"/>
<path d="M144.564 2.172H203.806V104.975H144.564V2.172Z" fill="#FAFAFA"/>
<path d="M156.101 15.5334H192.525V91.6209H156.101V15.5334Z" fill="#EBEBEB"/>
<path d="M192.525 64.6934C192.613 57.5849 186.219 50.6446 179.174 49.6573C175.816 49.1819 172.246 49.8474 169.115 48.5676C163.519 46.2712 161.734 38.8336 156.101 36.6323L155.845 91.6283H192.532V64.6934H192.525Z" fill="#E0E0E0"/>
</g>
<g style="mix-blend-mode:multiply">
<path d="M48.9488 23.0295H111.051V87.7449H48.9488V23.0295Z" fill="#E0E0E0"/>
<path d="M53.1553 23.0295H115.258V87.7449H53.1553V23.0295Z" fill="#FAFAFA"/>
<path d="M53.1407 87.7668H115.28V23.0076H53.1407V87.7668ZM115.243 87.7229H53.1773V23.0514H115.243V87.7229Z" fill="#E0E0E0"/>
<path d="M61.5024 31.7323H106.91V79.0493H61.5024V31.7323Z" fill="#FAFAFA"/>
<path d="M106.91 79.3565C106.874 79.4004 107.305 79.8903 108.03 80.6582C108.754 81.4261 109.771 82.4573 110.919 83.5836C112.061 84.7098 113.114 85.7117 113.882 86.4211C114.658 87.1305 115.155 87.5547 115.192 87.5108C115.228 87.4742 114.804 86.9769 114.08 86.2163C113.355 85.4484 112.331 84.41 111.19 83.2837C110.041 82.1575 108.995 81.1482 108.22 80.4388C107.444 79.7368 106.947 79.3199 106.91 79.3565Z" fill="#E0E0E0"/>
<path d="M61.5025 79.2468C61.4586 79.2102 60.9684 79.6417 60.2003 80.3657C59.4321 81.0897 58.4006 82.1063 57.274 83.2545C56.1474 84.3953 55.1452 85.4484 54.4356 86.2163C53.7259 86.9916 53.3017 87.4889 53.3455 87.5254C53.3821 87.562 53.8796 87.1378 54.6404 86.4138C55.4085 85.6898 56.4474 84.6659 57.574 83.5251C58.7006 82.3769 59.7101 81.3311 60.4198 80.5559C61.1294 79.7733 61.5464 79.276 61.5025 79.2468Z" fill="#E0E0E0"/>
<path d="M61.6268 31.8566C61.6633 31.8128 61.2317 31.3228 60.5075 30.5549C59.7832 29.787 58.7663 28.7558 57.6178 27.6296C56.4766 26.5033 55.4231 25.5014 54.655 24.792C53.8795 24.0826 53.3821 23.6584 53.3455 23.7023C53.3089 23.7389 53.7332 24.2362 54.4575 24.9968C55.1817 25.7647 56.2059 26.7958 57.3471 27.9294C58.4957 29.0557 59.5418 30.0649 60.3173 30.7743C61.1 31.4764 61.5975 31.9005 61.6268 31.8566Z" fill="#E0E0E0"/>
<path d="M107.035 31.9737C107.079 32.0103 107.569 31.5788 108.337 30.8548C109.105 30.1308 110.137 29.1142 111.263 27.966C112.39 26.8251 113.392 25.772 114.102 25.0041C114.811 24.2289 115.236 23.7316 115.192 23.6951C115.155 23.6585 114.658 24.0827 113.897 24.8067C113.129 25.5307 112.09 26.5546 110.963 27.6954C109.837 28.8436 108.827 29.8894 108.118 30.6646C107.415 31.4398 106.991 31.9371 107.035 31.9737Z" fill="#E0E0E0"/>
<path d="M61.6267 79.042C61.6267 79.042 61.6341 78.9616 61.6341 78.8153C61.6341 78.6544 61.6414 78.435 61.6414 78.1571C61.6487 77.5647 61.656 76.7091 61.6633 75.6048C61.6706 73.3596 61.6926 70.1052 61.7072 65.9586C61.7292 57.6726 61.7584 45.8689 61.795 31.7323L61.6194 31.9079C74.8387 31.9152 90.3625 31.9225 106.896 31.9371H106.903L106.706 31.7397C106.713 49.1087 106.728 65.3515 106.735 79.0567L106.91 78.8811C93.3399 78.9177 82.0446 78.947 74.1218 78.9689C70.1641 78.9908 67.0549 79.0055 64.9115 79.0128C63.858 79.0201 63.0387 79.0274 62.4754 79.0347C62.2047 79.042 61.9998 79.042 61.8462 79.042C61.7072 79.042 61.6341 79.042 61.6267 79.042C61.6267 79.042 61.6926 79.0493 61.8243 79.0493C61.9706 79.0493 62.1754 79.0567 62.4388 79.0567C62.9948 79.064 63.7995 79.0713 64.8456 79.0786C66.9745 79.0859 70.0763 79.1078 74.0194 79.1225C81.9642 79.1444 93.3034 79.1737 106.918 79.2102H107.093V79.0347C107.101 65.3296 107.108 49.0868 107.123 31.7177V31.5203H106.918H106.91C90.3771 31.5276 74.8534 31.5349 61.6341 31.5495H61.4585V31.725C61.4951 45.9055 61.5243 57.753 61.5463 66.0682C61.5682 70.1929 61.5828 73.44 61.5902 75.6706C61.5975 76.7603 61.6048 77.6086 61.6121 78.1937C61.6194 78.4643 61.6194 78.6764 61.6194 78.8373C61.6267 78.9762 61.6267 79.0493 61.6267 79.042Z" fill="#E0E0E0"/>
<path d="M76.6311 47.8142H91.7817V62.96H76.6311V47.8142Z" fill="#EBEBEB"/>
</g>
<path d="M0 315.81C0 315.912 61.517 316 137.387 316C213.279 316 274.782 315.912 274.782 315.81C274.782 315.707 213.279 315.62 137.387 315.62C61.517 315.62 0 315.7 0 315.81Z" fill="#263238"/>
<path d="M132.903 150.054C133.934 149.315 135.207 149.016 136.356 148.474C137.504 147.933 138.616 146.983 138.726 145.725C138.88 143.86 136.817 142.448 136.692 140.576C136.524 137.943 140.087 136.503 140.613 133.914C141.045 131.764 139.223 129.738 139.297 127.544C139.377 125.357 141.272 123.719 142.135 121.708C144.147 117.042 140.43 111.023 143.247 106.789C144 105.648 145.142 104.829 146.107 103.863C147.073 102.898 147.907 101.633 147.797 100.273L153.079 97.8738C154.85 95.1679 158.859 95.0655 161.88 96.221C164.901 97.3765 167.549 99.4535 170.688 100.221C172.21 100.594 171.99 98.3418 173.526 98.6563C175.545 99.0659 178.033 101.428 178.603 103.388C179.218 105.487 179.649 107.813 180.396 109.875C181.222 112.149 183.666 113.744 183.893 116.15C184.156 118.965 181.252 121.254 181.244 124.077C181.237 127.12 184.595 129.833 183.527 132.678C182.912 134.301 181.039 135.172 180.388 136.788C179.489 139.011 181.281 141.446 181.113 143.845C180.952 146.207 178.962 147.984 177.082 149.425C169.876 154.932 161.916 159.518 153.343 162.465C149.634 163.737 145.727 164.71 141.82 164.359C137.914 164.001 133.985 162.136 131.937 158.794C130.269 156.029 130.291 151.926 132.903 150.054Z" fill="#263238"/>
<path d="M148.009 98.9562C148.968 95.1386 152.099 91.95 155.896 90.9116C159.693 89.8731 164.009 91.0359 166.774 93.8369C167.901 94.9778 168.793 96.3746 170.125 97.2741C171.632 98.2834 171.851 97.9908 173.534 98.649C175.216 99.3145 178.311 104.01 178.252 105.816L179.094 113.758C179.028 115.616 176.635 116.662 174.872 116.062C173.109 115.455 171.946 113.809 171.01 112.201C170.081 110.592 169.203 108.844 167.681 107.776C165.157 105.999 161.734 106.613 158.712 107.228C155.691 107.849 152.187 108.288 149.831 106.299C147.805 104.58 147.358 101.53 148.009 98.9562Z" fill="#263238"/>
<path d="M146.342 110.284C146.678 105.114 150.116 98.7806 155.267 99.3364L171.346 103.439C172.912 103.607 174.09 104.946 174.053 106.518L172.246 145.293C172.283 145.3 172.319 145.308 172.356 145.315C172.356 145.315 165.816 159.174 155.186 155.832C153.079 155.166 154.989 149.944 154.572 147.568L154.462 147.582C154.455 147.297 154.455 147.041 154.447 146.77C154.096 144.035 154.381 141.446 154.381 141.446C154.352 138.316 154.352 137.029 154.352 137.058C154.352 137.058 147.746 135.947 146.4 127.332C145.742 123.053 145.968 116.025 146.342 110.284Z" fill="#FFBE9D"/>
<path d="M147.673 116.925C147.651 117.51 148.127 118.007 148.734 118.044C149.341 118.08 149.853 117.634 149.875 117.049C149.897 116.464 149.422 115.967 148.814 115.93C148.207 115.901 147.695 116.34 147.673 116.925Z" fill="#263238"/>
<path d="M147.863 113.948C148.002 114.095 148.836 113.473 150.029 113.48C151.214 113.466 152.092 114.08 152.216 113.934C152.282 113.868 152.143 113.612 151.763 113.334C151.39 113.056 150.753 112.786 150.014 112.793C149.275 112.793 148.646 113.064 148.288 113.341C147.922 113.619 147.798 113.883 147.863 113.948Z" fill="#263238"/>
<path d="M158.917 117.298C158.895 117.883 159.371 118.38 159.978 118.417C160.585 118.453 161.097 118.007 161.119 117.422C161.141 116.837 160.666 116.34 160.058 116.303C159.451 116.267 158.939 116.713 158.917 117.298Z" fill="#263238"/>
<path d="M159.554 114.19C159.693 114.336 160.534 113.714 161.719 113.722C162.904 113.707 163.782 114.321 163.906 114.175C163.972 114.109 163.833 113.853 163.453 113.576C163.08 113.298 162.443 113.027 161.704 113.034C160.966 113.034 160.336 113.305 159.978 113.59C159.612 113.868 159.488 114.131 159.554 114.19Z" fill="#263238"/>
<path d="M155.216 123.002C155.223 122.936 154.484 122.805 153.284 122.651C152.977 122.622 152.692 122.556 152.64 122.351C152.567 122.132 152.699 121.803 152.845 121.452C153.131 120.721 153.431 119.945 153.745 119.141C154.996 115.85 155.911 113.144 155.779 113.1C155.647 113.049 154.521 115.674 153.27 118.965C152.97 119.777 152.677 120.552 152.406 121.291C152.289 121.635 152.092 122.03 152.245 122.483C152.326 122.71 152.553 122.878 152.743 122.929C152.94 122.988 153.109 122.995 153.255 123.002C154.462 123.061 155.208 123.068 155.216 123.002Z" fill="#263238"/>
<path d="M154.367 137.073C154.367 137.073 160.161 137.461 165.918 134.023C165.918 134.023 163.102 139.933 154.484 139.113L154.367 137.073Z" fill="#EB996E"/>
<path d="M155.713 125.869C156.145 125.306 156.891 124.999 157.637 125.079C158.156 125.138 158.676 125.386 158.983 125.803C159.298 126.228 159.364 126.82 159.071 127.222C158.749 127.676 158.076 127.778 157.513 127.61C156.942 127.449 156.459 127.076 155.991 126.703C155.859 126.6 155.735 126.491 155.654 126.352C155.574 126.213 155.559 126.023 155.654 125.906" fill="#EB996E"/>
<path d="M158.712 123.829C158.522 123.814 158.515 125.109 157.403 126.023C156.298 126.937 154.923 126.791 154.908 126.973C154.894 127.054 155.216 127.222 155.794 127.244C156.364 127.266 157.198 127.083 157.871 126.527C158.544 125.964 158.837 125.218 158.881 124.692C158.947 124.143 158.8 123.821 158.712 123.829Z" fill="#263238"/>
<path d="M159.02 112.113C159.137 112.435 160.322 112.288 161.719 112.457C163.116 112.603 164.243 113.012 164.426 112.72C164.506 112.581 164.316 112.274 163.863 111.959C163.409 111.645 162.692 111.345 161.858 111.25C161.024 111.155 160.256 111.286 159.744 111.491C159.232 111.703 158.968 111.959 159.02 112.113Z" fill="#263238"/>
<path d="M148.31 110.504C148.522 110.774 149.341 110.497 150.321 110.482C151.309 110.438 152.143 110.665 152.333 110.387C152.421 110.248 152.289 109.977 151.923 109.721C151.565 109.465 150.965 109.253 150.285 109.275C149.604 109.297 149.019 109.539 148.675 109.816C148.332 110.094 148.214 110.372 148.31 110.504Z" fill="#263238"/>
<path d="M155.559 97.1352L156.291 96.1991C161.265 96.7695 166.152 98.0128 170.79 99.8996C172.641 100.653 174.521 101.552 175.787 103.103C177.535 105.231 177.813 108.171 178.011 110.913C178.764 121.371 179.393 132.137 176.101 142.09C175.311 140.817 173.76 140.247 172.29 139.962C170.82 139.677 169.276 139.582 167.937 138.901C166.474 138.155 165.406 136.722 164.996 135.128C164.587 133.533 164.813 131.808 165.53 130.33C166.328 128.67 167.754 127.076 167.41 125.269C167.045 123.375 164.872 122.293 164.36 120.435C163.482 117.225 167.988 114.343 167.074 111.14C166.737 109.955 165.706 109.092 164.601 108.551C163.504 108.003 162.297 107.696 161.178 107.176C157.461 105.45 155.084 101.209 155.559 97.1352Z" fill="#263238"/>
<path d="M112.046 162.823L122.127 178.503C122.127 178.503 121.007 180.361 118.579 180.258C116.157 180.156 112.814 174.1 112.419 172.872C112.024 171.643 112.565 170.466 112.199 169.654C111.834 168.842 111.98 166.597 111.98 166.597C112.038 166.729 109.807 163.745 112.046 162.823Z" fill="#FFBE9D"/>
<path d="M124.914 178.496L119.661 157.733C119.501 157.111 119.098 156.578 118.542 156.263L110.912 151.912C110.451 151.648 109.859 151.773 109.544 152.204C109.361 152.453 109.303 152.775 109.376 153.075L114.936 174.927L124.914 178.496Z" fill="#263238"/>
<path d="M127.562 194.585L115.367 172.067L119.961 166.121L137.124 179.146L132.625 191.521L127.562 194.585Z" fill="#5758BB"/>
<path d="M115.221 176.952C115.258 176.938 115.06 176.638 114.987 176.024C114.906 175.417 114.95 174.495 115.243 173.42L115.258 173.369L115.228 173.318C115.038 172.989 114.943 172.564 115.089 172.162C115.221 171.76 115.55 171.38 115.938 171.102L116.07 171.007L115.982 170.868C115.55 170.224 115.089 169.529 114.599 168.805C114.482 168.623 114.328 168.432 114.277 168.272C114.219 168.103 114.241 167.913 114.321 167.73C114.482 167.357 114.819 167.021 115.177 166.765L115.345 166.641L115.206 166.487C114.833 166.063 114.416 165.639 113.999 165.207C113.275 164.432 112.573 163.672 111.987 162.889C111.709 162.494 111.424 162.099 111.241 161.697C111.139 161.499 111.08 161.287 111.058 161.105C111.044 160.914 111.132 160.805 111.241 160.783L111.285 160.775C111.461 160.724 111.739 160.79 111.973 160.885C112.214 160.973 112.448 161.09 112.675 161.2C113.121 161.434 113.538 161.69 113.919 161.931C114.687 162.428 115.338 162.896 115.879 163.284C116.377 163.65 116.787 163.949 117.123 164.198C117.416 164.41 117.569 164.52 117.584 164.505C117.599 164.491 117.46 164.352 117.189 164.118C116.918 163.876 116.516 163.54 115.996 163.123C115.477 162.713 114.833 162.216 114.072 161.697C113.692 161.441 113.275 161.17 112.821 160.922C112.595 160.797 112.353 160.673 112.09 160.578C111.827 160.49 111.549 160.366 111.175 160.454L111.219 160.446C110.868 160.468 110.671 160.863 110.707 161.119C110.729 161.382 110.81 161.624 110.912 161.851C111.11 162.304 111.395 162.706 111.688 163.116C112.287 163.927 112.99 164.695 113.721 165.478C114.146 165.909 114.563 166.334 114.928 166.75L114.965 166.465C114.555 166.772 114.189 167.116 113.977 167.599C113.875 167.84 113.838 168.133 113.933 168.396C114.036 168.667 114.175 168.813 114.299 169.01C114.797 169.734 115.272 170.422 115.718 171.065L115.762 170.839C115.309 171.168 114.965 171.585 114.811 172.082C114.65 172.579 114.782 173.098 115.009 173.457L114.994 173.354C114.724 174.481 114.724 175.417 114.848 176.046C114.906 176.36 115.002 176.594 115.075 176.74C115.162 176.887 115.206 176.96 115.221 176.952Z" fill="#EB996E"/>
<path d="M109.544 152.212C109.529 152.234 109.756 152.394 110.173 152.658C110.59 152.921 111.197 153.294 111.958 153.74C112.748 154.201 113.648 154.727 114.628 155.305C115.133 155.598 115.667 155.905 116.216 156.219C116.764 156.526 117.357 156.826 117.811 157.265C118.271 157.689 118.454 158.311 118.615 158.911C118.776 159.525 118.93 160.11 119.076 160.68C119.369 161.785 119.639 162.787 119.874 163.672C120.108 164.52 120.305 165.207 120.444 165.675C120.59 166.151 120.678 166.407 120.707 166.399C120.729 166.392 120.693 166.122 120.59 165.639C120.488 165.156 120.334 164.461 120.137 163.598C119.925 162.714 119.683 161.697 119.413 160.585C119.274 160.015 119.127 159.423 118.974 158.808C118.82 158.201 118.615 157.492 118.074 156.98C117.547 156.483 116.947 156.19 116.391 155.883C115.843 155.576 115.309 155.276 114.796 154.991C113.802 154.442 112.887 153.938 112.09 153.499C111.314 153.075 110.685 152.745 110.246 152.519C109.807 152.299 109.559 152.19 109.544 152.212Z" fill="#455A64"/>
<path d="M114.599 159.313C114.789 159.766 114.811 160.183 114.65 160.256C114.489 160.322 114.204 160.015 114.014 159.561C113.824 159.108 113.802 158.691 113.963 158.618C114.124 158.545 114.409 158.859 114.599 159.313Z" fill="white"/>
<path d="M152.582 146.719C147.285 148.628 142.969 152.563 140.569 157.66L124.197 192.479L110.092 198.198L122.514 201.774L133.576 193.663L152.582 146.719Z" fill="#5758BB"/>
<path d="M122.514 201.774L128.455 206.352L158.098 175.87L175.041 145.271L173.08 139.582L159.978 145.037L155.288 151.97L154.242 143.172L153.401 144.364L152.033 148.072C152.033 148.072 139.165 158.772 136.392 167.255C134.073 174.334 134.797 188.968 133.393 192.939L122.514 201.774Z" fill="#FAFAFA"/>
<path d="M178.215 144.876C178.413 145.469 190.886 150.478 191.479 154.844C192.071 159.21 182.517 192.969 182.517 192.969L167.366 206.352H128.455L140.796 183.249C143.459 178.269 146.817 173.698 150.782 169.676C154.432 165.975 158.858 161.397 161.133 158.662C163.599 155.7 174.053 141.878 174.053 141.878L178.215 144.876Z" fill="#5758BB"/>
<path d="M170.41 146.259C170.388 146.215 169.546 146.595 168.208 147.246C166.869 147.897 165.033 148.826 163.006 149.871C162.202 150.288 161.433 150.691 160.717 151.071L160.98 151.246C161.082 149.586 160.921 148.16 160.731 147.173C160.541 146.186 160.336 145.622 160.307 145.63C160.263 145.644 160.387 146.222 160.512 147.209C160.636 148.197 160.746 149.601 160.621 151.224L160.599 151.546L160.885 151.4C161.602 151.034 162.377 150.632 163.182 150.222C165.201 149.177 167.023 148.211 168.332 147.495C169.634 146.771 170.432 146.31 170.41 146.259Z" fill="#263238"/>
<path d="M140.416 177.048C140.438 177.062 140.657 176.704 141.038 176.06C141.447 175.351 141.981 174.422 142.625 173.303C143.956 170.978 145.815 167.76 147.907 164.242C150.006 160.724 151.952 157.565 153.364 155.283C154.045 154.186 154.608 153.272 155.032 152.577C155.42 151.934 155.625 151.575 155.603 151.561C155.581 151.546 155.332 151.883 154.908 152.497C154.476 153.111 153.869 154.018 153.138 155.137C151.667 157.382 149.677 160.52 147.578 164.045C145.478 167.562 143.664 170.802 142.384 173.164C141.747 174.349 141.242 175.307 140.899 175.98C140.569 176.66 140.394 177.033 140.416 177.048Z" fill="#263238"/>
<g opacity="0.3">
<g opacity="0.3">
<path opacity="0.3" d="M146.407 200.582C144.147 200.962 141.828 201.35 139.574 200.918C137.321 200.487 135.112 199.068 134.41 196.888C134.19 196.208 134.095 195.426 133.568 194.943C132.698 194.139 131.315 194.636 130.13 194.526C128.813 194.409 127.687 193.466 126.999 192.332C126.311 191.199 125.997 189.89 125.689 188.603C125.536 187.966 125.382 187.315 125.455 186.665C125.528 186.014 125.872 185.355 126.465 185.092C127.357 184.69 128.36 185.275 129.157 185.845C135.573 190.467 141.418 195.813 147.249 201.152" fill="black"/>
</g>
</g>
<path d="M131.871 174.81C131.871 174.81 129.64 169.69 128.447 168.981C127.255 168.272 121.344 164.82 121.344 164.82L122.105 167.635L116.325 163.62C115.616 163.145 111.482 159.393 110.751 160.856C110.224 161.909 113.597 164.688 114.05 165.302C115.177 166.846 114.804 166.707 114.804 166.707C114.804 166.707 113.582 167.445 114.197 168.535C114.811 169.625 115.85 170.963 115.85 170.963C115.85 170.963 114.24 171.533 115.177 173.625C115.177 173.625 114.753 174.751 115.016 176.309C115.279 177.867 118.103 180.836 118.103 180.836L132.178 187.535L137.855 177.903L131.871 174.81Z" fill="#FFBE9D"/>
<path d="M164.652 165.185L155.625 184.449L135.609 175.753C135.609 175.753 127.299 180.594 128.455 185.889L146.488 200.699C149.904 203.5 154.315 204.787 158.705 204.246C163.416 203.668 167.63 201.05 170.241 197.086L183.293 177.23L190.593 165.302C192.927 161.485 192.927 156.57 190.286 152.958C189.562 151.97 188.706 151.144 187.704 150.537C184.448 148.57 174.763 147.707 164.652 165.185Z" fill="#5758BB"/>
<path d="M120.261 166.304C120.21 166.385 121.527 167.292 123.202 168.33C124.877 169.361 126.275 170.136 126.326 170.049C126.377 169.968 125.06 169.061 123.385 168.023C121.71 166.984 120.312 166.217 120.261 166.304Z" fill="#EB996E"/>
<path d="M114.621 166.121C114.555 166.195 115.733 167.46 117.247 168.959C118.769 170.451 120.056 171.606 120.122 171.541C120.195 171.475 119.018 170.202 117.496 168.703C115.974 167.211 114.687 166.056 114.621 166.121Z" fill="#EB996E"/>
<path d="M115.374 170.466C115.301 170.531 115.85 171.299 116.603 172.184C117.357 173.069 118.03 173.742 118.11 173.676C118.184 173.61 117.635 172.842 116.881 171.957C116.121 171.065 115.448 170.4 115.374 170.466Z" fill="#EB996E"/>
<path d="M115.118 173.391C115.045 173.457 115.352 173.932 115.747 174.503C116.143 175.066 116.486 175.526 116.574 175.475C116.662 175.431 116.45 174.883 116.04 174.298C115.63 173.705 115.184 173.325 115.118 173.391Z" fill="#EB996E"/>
<path d="M149.56 202.615C149.56 202.615 149.531 202.578 149.465 202.527C149.392 202.461 149.297 202.388 149.18 202.286C148.909 202.066 148.529 201.759 148.046 201.372C147.029 200.567 145.566 199.412 143.722 197.949C139.969 195.009 134.644 190.833 128.294 185.853L128.36 185.977C128.36 184.997 128.535 183.988 128.93 183.03C129.347 182.079 129.91 181.172 130.591 180.317C131.981 178.642 133.744 177.143 135.712 175.921L135.543 175.929C138.857 177.369 142.34 178.883 145.91 180.434C149.216 181.867 152.45 183.271 155.559 184.624L155.72 184.697L155.8 184.544C158.456 179.322 160.907 174.4 163.394 170.129C164.63 167.986 165.852 166.004 167.008 164.154C168.164 162.311 169.217 160.593 170.293 159.115C172.392 156.117 174.755 154.281 176.526 153.338C176.957 153.082 177.359 152.884 177.711 152.716C178.054 152.541 178.354 152.409 178.596 152.307C178.823 152.204 179.006 152.124 179.145 152.065C179.269 152.007 179.327 151.978 179.327 151.97C179.327 151.97 178.259 152.277 176.467 153.221C175.574 153.696 174.514 154.354 173.409 155.305C172.297 156.241 171.185 157.492 170.095 158.969C168.998 160.446 167.93 162.165 166.766 164.001C165.603 165.836 164.36 167.825 163.116 169.961C160.599 174.232 158.134 179.146 155.471 184.368L155.713 184.28C152.603 182.927 149.37 181.523 146.063 180.083C142.493 178.532 139.011 177.026 135.697 175.585L135.609 175.548L135.529 175.599C133.51 176.857 131.739 178.371 130.32 180.09C129.625 180.967 129.04 181.904 128.616 182.891C128.206 183.893 128.023 184.953 128.038 185.984V186.057L128.103 186.109C134.49 191.045 139.845 195.177 143.62 198.095C145.493 199.529 146.97 200.662 148.002 201.445C148.499 201.818 148.887 202.11 149.165 202.322C149.289 202.41 149.385 202.483 149.465 202.542C149.524 202.6 149.56 202.622 149.56 202.615Z" fill="#263238"/>
<path d="M156.839 190.511C156.942 190.467 156.393 189.093 156.078 187.308C155.749 185.531 155.786 184.046 155.669 184.039C155.574 184.024 155.362 185.538 155.698 187.374C156.027 189.21 156.759 190.555 156.839 190.511Z" fill="#263238"/>
<path d="M46.7174 247.094L36.2342 260.222C36.2342 260.222 19.3644 253.976 17.1916 256.214L41.9257 277.444L59.0955 257.662L46.7174 247.094Z" fill="#4B6584"/>
<g opacity="0.6">
<g opacity="0.6">
<g opacity="0.6">
<g opacity="0.6">
<g opacity="0.6">
<path opacity="0.6" d="M44.8007 265.714C45.1665 266.255 45.0348 267.074 44.5081 267.469C43.9813 267.857 43.1474 267.732 42.7669 267.198C42.3938 266.665 42.5182 265.67 43.0888 265.348C43.6521 265.019 44.6324 265.224 44.8665 265.831" fill="white"/>
</g>
</g>
</g>
</g>
</g>
<g opacity="0.6">
<g opacity="0.6">
<g opacity="0.6">
<g opacity="0.6">
<path opacity="0.6" d="M41.9258 277.444L43.5791 275.382L19.2474 255.797C19.2474 255.797 17.7331 255.329 17.1917 256.214L41.9258 277.444Z" fill="white"/>
</g>
</g>
</g>
</g>
<path d="M35.9416 259.746C35.8392 259.871 36.3952 260.441 36.6585 261.34C36.9438 262.233 36.7975 263.015 36.9512 263.066C37.0828 263.14 37.5218 262.262 37.1853 261.18C36.8634 260.097 36.0074 259.615 35.9416 259.746Z" fill="#263238"/>
<path d="M32.4227 258.598C32.291 258.693 32.6422 259.344 32.6129 260.207C32.6129 261.07 32.2398 261.714 32.3642 261.809C32.4593 261.926 33.1543 261.289 33.1689 260.214C33.1908 259.139 32.5251 258.481 32.4227 258.598Z" fill="#263238"/>
<path d="M28.2894 260.434C28.3772 260.551 29.0649 260.097 29.3209 259.169C29.5843 258.24 29.2404 257.494 29.1014 257.552C28.9478 257.596 29.0136 258.262 28.7869 259.022C28.582 259.783 28.1797 260.317 28.2894 260.434Z" fill="#263238"/>
<path d="M38.663 257.026C38.6191 257.179 39.3141 257.486 39.9579 258.123C40.6163 258.744 40.9455 259.424 41.0991 259.381C41.2454 259.351 41.1064 258.459 40.3383 257.728C39.5775 256.982 38.6849 256.879 38.663 257.026Z" fill="#263238"/>
<g opacity="0.3">
<g opacity="0.3">
<g opacity="0.3">
<g opacity="0.3">
<path opacity="0.3" d="M44.6398 249.698L42.7743 252.031L55.0207 262.357L56.791 260.324L44.6398 249.698Z" fill="black"/>
</g>
</g>
</g>
</g>
<path d="M40.8283 254.415C40.7844 254.466 41.194 254.949 42.0719 255.475C42.5108 255.739 43.0595 255.995 43.7106 256.192C44.0325 256.287 44.3836 256.368 44.7494 256.426C44.925 256.448 45.1225 256.492 45.3713 256.455C45.6127 256.448 45.9638 256.192 45.9785 255.863C46.015 255.563 45.8614 255.292 45.6858 255.132C45.5103 254.971 45.3274 254.876 45.1664 254.795C44.8372 254.627 44.4934 254.495 44.1715 254.4C43.5131 254.21 42.8986 254.152 42.3865 254.166C41.355 254.203 40.7697 254.488 40.7917 254.546C40.8136 254.634 41.4135 254.495 42.3792 254.561C42.8547 254.59 43.4253 254.685 44.0179 254.89C44.3178 254.993 44.6178 255.124 44.9177 255.278C45.2396 255.431 45.4664 255.622 45.4298 255.797C45.4151 255.863 45.4005 255.885 45.2835 255.914C45.1664 255.936 44.9982 255.914 44.8226 255.892C44.4788 255.848 44.1569 255.782 43.8496 255.702C43.2351 255.548 42.6937 255.336 42.2548 255.132C41.3769 254.715 40.8795 254.349 40.8283 254.415Z" fill="#263238"/>
<path d="M40.8356 254.722C40.8649 254.781 41.4721 254.554 42.189 253.808C42.5402 253.435 42.9059 252.93 43.1839 252.309C43.3229 251.994 43.4326 251.65 43.5131 251.285C43.579 250.919 43.6814 250.436 43.2571 249.983C43.023 249.764 42.6499 249.778 42.4451 249.888C42.2183 249.983 42.0793 250.115 41.9257 250.232C41.633 250.48 41.3916 250.773 41.2087 251.065C40.8356 251.658 40.6747 252.279 40.6381 252.799C40.5723 253.852 40.9527 254.429 40.9966 254.4C41.0917 254.371 40.8649 253.779 41.0258 252.85C41.1063 252.389 41.2892 251.848 41.633 251.351C41.8086 251.102 42.0208 250.861 42.2695 250.656C42.5328 250.429 42.8181 250.297 42.8913 250.407C43.0157 250.51 43.0523 250.89 42.9791 251.182C42.9133 251.511 42.8255 251.826 42.7084 252.118C42.4816 252.696 42.1817 253.186 41.8891 253.559C41.3038 254.305 40.7844 254.649 40.8356 254.722Z" fill="#263238"/>
<path d="M58.1077 287.559L58.7588 304.73C58.7588 304.73 41.5159 311.159 41.3257 314.347L74.6849 314.281L74.7654 287.478L58.1077 287.559Z" fill="#4B6584"/>
<g opacity="0.6">
<g opacity="0.6">
<g opacity="0.6">
<g opacity="0.6">
<g opacity="0.6">
<path opacity="0.6" d="M69.0738 303.268C69.7176 303.443 70.1638 304.167 70.0175 304.818C69.8712 305.469 69.1323 305.93 68.4886 305.769C67.8375 305.608 67.2742 304.752 67.4936 304.123C67.7131 303.494 68.6056 302.997 69.1982 303.312" fill="white"/>
</g>
</g>
</g>
</g>
</g>
<g opacity="0.6">
<g opacity="0.6">
<g opacity="0.6">
<g opacity="0.6">
<path opacity="0.6" d="M74.6851 314.281L74.59 311.583L42.6426 312.658C42.6426 312.658 41.1576 313.309 41.3258 314.355L74.6851 314.281Z" fill="white"/>
</g>
</g>
</g>
</g>
<path d="M58.2175 304.562C58.2248 304.723 59.0368 304.796 59.8415 305.323C60.6609 305.827 61.0706 306.529 61.2242 306.464C61.3778 306.434 61.1291 305.462 60.1488 304.847C59.1685 304.218 58.1809 304.416 58.2175 304.562Z" fill="#263238"/>
<path d="M54.7206 306.017C54.684 306.178 55.3863 306.449 55.9423 307.136C56.5202 307.809 56.6592 308.555 56.8202 308.548C56.9738 308.57 57.0835 307.619 56.3812 306.778C55.6862 305.93 54.7279 305.864 54.7206 306.017Z" fill="#263238"/>
<path d="M52.7454 310.208C52.8917 310.245 53.1185 309.425 52.7015 308.541C52.2845 307.648 51.5164 307.297 51.4506 307.429C51.3555 307.561 51.8529 308.043 52.1894 308.775C52.5333 309.506 52.5845 310.193 52.7454 310.208Z" fill="#263238"/>
<path d="M58.5028 300.635C58.5686 300.781 59.3148 300.554 60.2366 300.62C61.1584 300.664 61.8753 300.971 61.9631 300.832C62.0582 300.715 61.3559 300.116 60.2732 300.057C59.1905 299.984 58.4223 300.503 58.5028 300.635Z" fill="#263238"/>
<g opacity="0.3">
<g opacity="0.3">
<g opacity="0.3">
<g opacity="0.3">
<path opacity="0.3" d="M58.2394 290.959L58.3565 294.024L74.7434 293.841L74.7654 291.084L58.2394 290.959Z" fill="black"/>
</g>
</g>
</g>
</g>
<path d="M58.437 297.168C58.437 297.234 59.0808 297.337 60.105 297.154C60.6171 297.066 61.217 296.898 61.8534 296.613C62.168 296.474 62.4899 296.305 62.8118 296.101C62.9654 295.998 63.1483 295.903 63.3166 295.706C63.4994 295.538 63.6019 295.106 63.3897 294.843C63.2215 294.587 62.9142 294.477 62.6728 294.47C62.424 294.462 62.2265 294.514 62.0436 294.558C61.6706 294.645 61.3267 294.77 61.0048 294.916C60.3684 295.208 59.849 295.574 59.4685 295.932C58.6931 296.649 58.4297 297.256 58.4883 297.293C58.5614 297.344 58.9345 296.839 59.7246 296.24C60.1196 295.947 60.6171 295.64 61.2097 295.399C61.5096 295.282 61.8315 295.179 62.168 295.099C62.5192 295.004 62.8191 295.004 62.9142 295.157C62.9508 295.216 62.9508 295.238 62.8776 295.347C62.8045 295.442 62.6581 295.538 62.5045 295.633C62.2119 295.823 61.912 295.991 61.6193 296.137C61.0414 296.43 60.4854 296.627 60.0026 296.759C59.0662 297.029 58.437 297.081 58.437 297.168Z" fill="#263238"/>
<path d="M58.649 297.402C58.7075 297.424 59.0294 296.847 59.0879 295.786C59.1172 295.267 59.0586 294.631 58.8538 293.958C58.7514 293.621 58.6124 293.278 58.4295 292.941C58.232 292.612 57.9905 292.173 57.3614 292.1C57.0322 292.086 56.7615 292.349 56.6664 292.568C56.5567 292.795 56.5347 292.985 56.4982 293.183C56.4396 293.57 56.447 293.951 56.4982 294.309C56.6079 295.018 56.8932 295.611 57.2151 296.035C57.8662 296.898 58.5465 297.088 58.5612 297.037C58.6124 296.956 58.0491 296.642 57.5443 295.815C57.2956 295.406 57.0761 294.865 57.0103 294.25C56.9737 293.943 56.981 293.614 57.0395 293.285C57.0907 292.934 57.2224 292.641 57.3541 292.678C57.5224 292.678 57.8003 292.941 57.9393 293.227C58.1076 293.526 58.2466 293.834 58.3563 294.133C58.5685 294.733 58.6563 295.311 58.6855 295.801C58.7367 296.766 58.5612 297.373 58.649 297.402Z" fill="#263238"/>
<path d="M75.0215 206.352L42.0134 250.21L57.4567 263.461L73.3462 242.684L75.0215 206.352Z" fill="#263238"/>
<path d="M144.915 208.451C144.915 208.451 91.8107 192.281 86.9459 192.479C82.081 192.683 72.8487 210.243 72.8487 210.243L87.7579 209.701C91.584 219.084 98.6508 228.738 106.61 238.472L137.094 237.053L144.915 208.451Z" fill="#263238"/>
<path d="M101.504 195.667C101.475 195.77 106.932 197.481 113.692 199.485C120.459 201.496 125.96 203.039 125.989 202.944C126.019 202.842 120.561 201.13 113.794 199.126C107.042 197.115 101.533 195.572 101.504 195.667Z" fill="#263238"/>
<path d="M89.1625 209.423H74.2533C66.8133 209.423 60.1854 214.119 57.7127 221.132C56.5495 224.438 56.0374 227.933 56.2057 231.429L57.3689 292.064H77.4429L77.8014 272.683L80.3399 235.839L97.7145 236.57L107.561 235.956L89.1625 209.423Z" fill="#263238"/>
<path d="M88.7162 209.116C88.6942 209.124 88.7893 209.577 88.9941 210.396C89.177 211.223 89.5501 212.385 90.0476 213.819C90.5963 215.23 91.2693 216.905 92.2642 218.646C93.2372 220.393 94.4516 222.244 95.8928 224.043C98.8044 227.641 101.848 230.508 103.998 232.614C105.052 233.623 105.922 234.464 106.574 235.086C107.188 235.664 107.532 235.978 107.554 235.963C107.576 235.941 107.261 235.598 106.683 234.983C106.105 234.369 105.249 233.499 104.196 232.424C102.089 230.266 99.0824 227.378 96.1927 223.809C93.3104 220.233 91.3863 216.517 90.3036 213.724C89.7769 212.32 89.3672 211.171 89.1404 210.36C88.8917 209.555 88.7454 209.109 88.7162 209.116Z" fill="#455A64"/>
<path d="M70.4785 209.826C70.4858 209.884 71.5173 209.789 73.1853 209.694C74.8532 209.599 77.165 209.533 79.7108 209.584C82.264 209.636 84.5684 209.782 86.2363 209.899C87.9043 210.016 88.9431 210.096 88.9431 210.038C88.9431 210.009 88.6944 209.957 88.2262 209.884C87.7653 209.811 87.0923 209.723 86.2583 209.628C84.5903 209.445 82.2786 209.248 79.7108 209.204C77.1503 209.153 74.824 209.263 73.156 209.423C72.322 209.504 71.649 209.592 71.1808 209.665C70.7345 209.753 70.4785 209.804 70.4785 209.826Z" fill="#455A64"/>
<path d="M77.5233 280.984C77.5379 280.984 77.5525 280.809 77.5745 280.479C77.5964 280.106 77.6257 279.631 77.655 279.031C77.7135 277.73 77.7939 275.916 77.8964 273.693C78.0939 269.188 78.3646 262.964 78.7962 256.097C79.2278 249.23 79.7399 243.021 80.113 238.523C80.2959 236.307 80.4422 234.501 80.5446 233.199C80.5885 232.599 80.6178 232.117 80.647 231.751C80.669 231.422 80.669 231.246 80.6544 231.246C80.6397 231.246 80.6104 231.415 80.5666 231.744C80.5227 232.109 80.4641 232.592 80.391 233.184C80.252 234.486 80.0691 236.285 79.835 238.501C79.3961 242.991 78.8474 249.2 78.4085 256.075C77.9768 262.949 77.7501 269.173 77.6184 273.685C77.5672 275.909 77.5306 277.722 77.5013 279.024C77.494 279.624 77.494 280.106 77.494 280.479C77.5013 280.809 77.5086 280.984 77.5233 280.984Z" fill="#263238"/>
<path d="M56.1764 229.089C56.0739 229.089 56.1398 242.984 56.3373 260.119C56.5275 277.262 56.7689 291.149 56.8787 291.149C56.9811 291.149 56.9152 277.254 56.7177 260.119C56.5202 242.984 56.2788 229.089 56.1764 229.089Z" fill="#455A64"/>
<path d="M72.5561 226.822C72.5195 226.939 74.6118 227.465 76.8357 228.84C79.0743 230.201 80.4935 231.824 80.574 231.744C80.6106 231.714 80.3033 231.268 79.6961 230.639C79.0889 230.01 78.1671 229.221 77.0332 228.519C75.892 227.824 74.7654 227.356 73.9314 227.107C73.0974 226.851 72.5634 226.778 72.5561 226.822Z" fill="#263238"/>
<g opacity="0.3">
<g opacity="0.3">
<path opacity="0.3" d="M107.561 235.971C103.516 236.717 99.0679 235.481 95.6003 233.316C92.1327 231.151 89.5649 227.663 88.5773 223.779C88.131 222.032 87.9993 220.225 87.5604 218.477C87.1214 216.729 86.3167 214.982 84.8463 213.892C83.1491 212.627 78.9645 211.822 77.7209 210.133C77.7209 209.877 82.6735 210.455 84.3415 210.542C86.1558 210.645 89.1918 211.098 89.1259 210.886C89.1259 210.886 90.3403 215.135 90.8743 216.057C94.4883 222.258 102.426 231.378 107.561 235.971Z" fill="black"/>
</g>
</g>
<path d="M190.323 278.9L184.683 315.81H179.079L181.837 279.039L190.323 278.9Z" fill="#263238"/>
<path d="M90.9841 279.039V315.81H85.0731L82.8711 278.9L90.9841 279.039Z" fill="#263238"/>
<path d="M191.325 164.827C191.325 164.827 199.233 165.141 201.655 168.454C205.92 174.298 203.528 179.366 203.762 181.092C203.996 182.818 190.323 278.892 190.323 278.892H184.69L82.8712 279.829L77.9844 267.952L80.3327 235.839L107.554 235.963C107.554 235.963 118.703 203.975 128.447 201.832C135.046 200.384 150.548 200.896 159.875 201.379C164.528 201.62 168.961 199.36 171.493 195.455L191.325 164.827Z" fill="#455A64"/>
<path d="M101.08 275.126C101.08 275.126 101.643 275.199 102.726 275.25C103.808 275.28 105.403 275.331 107.466 275.353C111.592 275.411 117.591 275.426 125.053 275.419C139.984 275.404 160.79 275.287 184.324 275.082H184.478L184.507 274.936C184.931 272.925 185.363 270.855 185.809 268.749C186.233 266.643 186.658 264.5 187.089 262.342C192.203 236.293 195.195 212.422 196.804 195.111C197.616 186.452 198.099 179.439 198.407 174.583C198.538 172.162 198.641 170.283 198.714 168.996C198.743 168.367 198.765 167.884 198.78 167.54C198.794 167.211 198.787 167.043 198.787 167.043C198.787 167.043 198.765 167.211 198.736 167.54C198.714 167.877 198.677 168.359 198.626 168.996C198.538 170.283 198.414 172.162 198.246 174.583C197.894 179.432 197.368 186.445 196.526 195.097C194.844 212.393 191.808 236.241 186.702 262.277C186.27 264.434 185.838 266.577 185.421 268.676C184.982 270.775 184.551 272.844 184.127 274.855L184.309 274.709C160.79 274.892 139.984 275.053 125.046 275.17C117.591 275.192 111.6 275.207 107.459 275.214C105.403 275.199 103.808 275.192 102.718 275.177C102.177 275.177 101.767 275.141 101.489 275.133C101.226 275.119 101.08 275.126 101.08 275.126Z" fill="#263238"/>
<path d="M102.155 279.66C102.17 279.66 102.155 279.499 102.111 279.2C102.06 278.863 101.994 278.432 101.921 277.905C101.826 277.342 101.716 276.655 101.628 275.85C101.533 275.046 101.394 274.139 101.321 273.122C101.226 272.113 101.124 271.001 101.08 269.809C100.999 268.617 100.999 267.337 100.977 265.999C100.992 263.315 101.138 260.361 101.489 257.282C101.863 254.203 102.404 251.299 102.996 248.681C103.611 246.063 104.277 243.737 104.906 241.807C105.198 240.834 105.528 239.971 105.784 239.211C106.04 238.443 106.288 237.792 106.493 237.265C106.676 236.761 106.83 236.358 106.947 236.037C107.049 235.751 107.093 235.605 107.079 235.598C107.064 235.59 106.998 235.737 106.874 236.007C106.742 236.322 106.566 236.717 106.354 237.214C106.128 237.741 105.857 238.384 105.579 239.145C105.301 239.905 104.95 240.761 104.642 241.734C103.977 243.664 103.282 245.99 102.645 248.615C102.031 251.241 101.475 254.159 101.102 257.252C100.751 260.346 100.619 263.315 100.619 266.014C100.648 267.359 100.663 268.647 100.758 269.839C100.816 271.038 100.933 272.15 101.043 273.166C101.131 274.183 101.292 275.09 101.409 275.894C101.519 276.698 101.65 277.379 101.76 277.942C101.87 278.468 101.958 278.892 102.023 279.229C102.104 279.507 102.141 279.66 102.155 279.66Z" fill="#263238"/>
<path d="M176.767 210.828C176.774 210.82 176.635 210.696 176.357 210.484C176.05 210.25 175.64 209.935 175.128 209.548C174.858 209.343 174.558 209.116 174.236 208.875C173.892 208.656 173.512 208.429 173.102 208.18C172.275 207.697 171.375 207.09 170.271 206.6C169.729 206.337 169.166 206.059 168.574 205.774C167.988 205.482 167.337 205.269 166.679 204.999C166.02 204.75 165.347 204.45 164.63 204.224C163.914 203.997 163.175 203.763 162.414 203.522C159.363 202.637 155.947 201.854 152.304 201.423C148.668 200.962 145.171 200.75 141.996 200.801C140.408 200.772 138.901 200.903 137.49 200.955C136.085 201.086 134.768 201.174 133.583 201.342C131.198 201.649 129.296 202.044 127.994 202.366C127.379 202.534 126.882 202.673 126.501 202.776C126.165 202.871 125.989 202.929 125.989 202.944C125.997 202.958 126.18 202.922 126.523 202.849C126.904 202.761 127.401 202.651 128.023 202.505C129.333 202.227 131.235 201.876 133.612 201.606C134.797 201.452 136.107 201.379 137.511 201.262C138.916 201.225 140.416 201.108 141.996 201.145C145.156 201.116 148.639 201.342 152.252 201.796C155.874 202.227 159.275 202.995 162.311 203.858C163.065 204.092 163.804 204.319 164.513 204.538C165.23 204.758 165.896 205.05 166.554 205.291C167.206 205.555 167.857 205.759 168.442 206.045C169.034 206.323 169.598 206.586 170.139 206.842C171.244 207.31 172.151 207.902 172.978 208.363C173.387 208.604 173.775 208.816 174.126 209.028C174.455 209.263 174.755 209.475 175.033 209.672C175.56 210.038 175.977 210.33 176.299 210.55C176.599 210.74 176.76 210.842 176.767 210.828Z" fill="#263238"/>
<path d="M116.252 216.027C116.245 216.027 116.267 216.108 116.326 216.269C116.377 216.422 116.45 216.664 116.574 216.963C116.838 217.549 117.269 218.419 118.074 219.362C118.871 220.298 120.049 221.293 121.593 222.127C122.376 222.529 123.239 222.895 124.183 223.202C125.134 223.487 126.165 223.714 127.262 223.831C129.464 224.065 131.893 223.889 134.439 223.428C136.985 222.975 139.648 222.236 142.457 221.564C145.266 220.905 148.266 220.313 151.397 220.379C152.962 220.408 154.542 220.627 156.079 221.095C157.615 221.556 159.078 222.324 160.417 223.297C163.102 225.249 165.106 227.89 166.774 230.53C168.449 233.192 169.773 235.927 171.185 238.465C172.583 241.002 174.06 243.364 175.765 245.324C177.448 247.292 179.379 248.842 181.398 249.771C183.41 250.692 185.407 251.109 187.163 251.131C188.918 251.153 190.425 250.802 191.552 250.312C192.13 250.085 192.584 249.778 192.993 249.537C193.366 249.252 193.688 249.003 193.93 248.784C194.142 248.557 194.31 248.381 194.434 248.25C194.544 248.125 194.603 248.067 194.595 248.06C194.588 248.052 194.522 248.111 194.405 248.22C194.273 248.345 194.098 248.513 193.878 248.725C193.637 248.93 193.308 249.164 192.935 249.442C192.525 249.668 192.071 249.968 191.501 250.18C190.382 250.641 188.896 250.97 187.17 250.926C185.444 250.89 183.483 250.451 181.515 249.537C179.547 248.615 177.667 247.08 176.006 245.127C174.338 243.182 172.883 240.841 171.5 238.304C170.103 235.773 168.779 233.023 167.103 230.339C165.428 227.67 163.409 224.993 160.658 222.997C159.29 222.01 157.79 221.22 156.203 220.744C154.623 220.262 153.006 220.042 151.411 220.013C148.222 219.947 145.2 220.554 142.376 221.227C139.56 221.915 136.904 222.66 134.381 223.121C131.857 223.597 129.457 223.787 127.292 223.567C126.209 223.458 125.192 223.246 124.256 222.975C123.319 222.682 122.463 222.331 121.688 221.944C120.159 221.139 118.988 220.181 118.184 219.274C116.582 217.402 116.326 215.983 116.252 216.027Z" fill="white"/>
<path d="M79.0451 262.81C79.0451 262.81 79.1548 262.84 79.367 262.891C79.5938 262.935 79.9084 263.001 80.3107 263.081C80.7277 263.147 81.2105 263.366 81.8031 263.542C82.103 263.622 82.3883 263.798 82.7175 263.937C83.0394 264.09 83.3906 264.229 83.7271 264.449C85.139 265.217 86.6972 266.431 88.3871 267.974C90.0844 269.502 91.8987 271.389 94.1226 273.239C95.2419 274.153 96.4636 275.075 97.8828 275.792C98.5705 276.194 99.3459 276.457 100.114 276.757C100.516 276.867 100.919 276.969 101.321 277.079C101.724 277.203 102.155 277.218 102.579 277.298C104.277 277.518 106.076 277.422 107.854 277.028C109.639 276.647 111.395 275.938 113.099 275.075C116.516 273.327 119.735 270.87 122.814 268.076C125.88 265.29 129.025 262.342 132.683 259.936C134.512 258.737 136.436 257.72 138.455 257.062C140.467 256.389 142.567 256.09 144.615 256.207C146.663 256.324 148.639 256.857 150.467 257.611C152.304 258.364 154.001 259.315 155.625 260.309C158.858 262.306 161.799 264.441 164.791 266.072C167.791 267.681 170.79 268.8 173.599 269.473C179.24 270.862 184.002 270.68 187.192 270.292C190.396 269.868 192.101 269.297 192.101 269.297C192.101 269.297 191.991 269.312 191.779 269.356C191.552 269.407 191.237 269.473 190.835 269.561C190.008 269.736 188.772 269.963 187.177 270.146C183.995 270.489 179.254 270.621 173.665 269.21C170.878 268.522 167.915 267.403 164.945 265.794C161.982 264.163 159.056 262.028 155.808 260.01C154.184 259.008 152.465 258.042 150.606 257.274C148.748 256.506 146.736 255.958 144.637 255.834C142.537 255.709 140.387 256.016 138.338 256.697C136.282 257.369 134.329 258.401 132.478 259.615C128.777 262.05 125.631 265.012 122.566 267.798C119.508 270.577 116.318 273.027 112.946 274.76C111.263 275.616 109.537 276.318 107.788 276.698C106.04 277.086 104.291 277.188 102.631 276.984C102.221 276.911 101.797 276.896 101.402 276.779C101.007 276.677 100.612 276.567 100.216 276.464C99.463 276.172 98.7095 275.923 98.0291 275.528C96.6318 274.826 95.4175 273.927 94.3055 273.027C92.0889 271.206 90.2599 269.334 88.5408 267.813C86.8362 266.284 85.2487 265.078 83.8076 264.317C83.4637 264.098 83.1053 263.966 82.7761 263.812C82.4469 263.673 82.1542 263.505 81.847 263.425C81.2471 263.257 80.757 263.045 80.3327 262.993C79.923 262.928 79.6084 262.876 79.3743 262.84C79.1548 262.818 79.0451 262.81 79.0451 262.81Z" fill="white"/>
<path d="M180.856 182.927C180.835 182.935 180.886 183.264 181.054 183.849C181.215 184.434 181.522 185.268 182.034 186.24C183.022 188.171 185.004 190.643 187.997 192.208C190.996 193.773 194.156 193.985 196.307 193.693C197.39 193.554 198.253 193.327 198.824 193.129C199.402 192.932 199.702 192.786 199.694 192.764C199.672 192.683 198.414 193.217 196.27 193.422C194.149 193.641 191.076 193.385 188.165 191.864C185.253 190.343 183.293 187.966 182.261 186.109C181.215 184.236 180.937 182.905 180.856 182.927Z" fill="white"/>
<path d="M208.393 170.509C215.964 174.429 221.773 181.187 225.95 188.617C230.127 196.055 232.819 204.209 235.482 212.312L237.816 254.086C229.001 239.101 221.934 221.483 220.017 204.202C221.97 204.026 223.924 203.851 225.884 203.682C221.956 203.083 218.649 200.238 216.549 196.859C214.45 193.48 213.367 189.59 212.314 185.757C214.699 186.109 217.083 186.467 219.468 186.818C213.865 183.066 209.804 177.091 208.393 170.509Z" fill="#455A64"/>
<path d="M208.393 170.509C215.964 174.429 221.773 181.187 225.95 188.617C230.127 196.055 232.819 204.209 235.482 212.312L237.816 254.086C229.001 239.101 221.934 221.483 220.017 204.202C221.97 204.026 223.924 203.851 225.884 203.682C221.956 203.083 218.649 200.238 216.549 196.859C214.45 193.48 213.367 189.59 212.314 185.757C214.699 186.109 217.083 186.467 219.468 186.818C213.865 183.066 209.804 177.091 208.393 170.509Z" fill="#1ABC9C"/>
<g opacity="0.3">
<g opacity="0.3">
<path opacity="0.3" d="M208.393 170.509C215.964 174.429 221.773 181.187 225.95 188.617C230.127 196.055 232.819 204.209 235.482 212.312L237.816 254.086C229.001 239.101 221.934 221.483 220.017 204.202C221.97 204.026 223.924 203.851 225.884 203.682C221.956 203.083 218.649 200.238 216.549 196.859C214.45 193.48 213.367 189.59 212.314 185.757C214.699 186.109 217.083 186.467 219.468 186.818C213.865 183.066 209.804 177.091 208.393 170.509Z" fill="black"/>
</g>
</g>
<path d="M239.118 263.864C239.118 263.864 258.248 240.98 258.022 219.128H250.296C250.296 219.128 258.687 213.614 258.022 210.52C257.356 207.434 257.137 195.733 257.137 195.733L250.07 197.495C250.07 197.495 255.366 194.848 256.032 190.657C256.698 186.467 254.488 167.043 254.488 167.043C254.488 167.043 245.885 176.097 243.237 185.363C240.589 194.629 233.631 205.445 235.673 233.696C237.714 261.947 239.118 263.864 239.118 263.864Z" fill="#1ABC9C"/>
<path d="M229.425 266.028C229.425 266.028 208.7 252.228 204.098 234.618L210.309 232.928C210.309 232.928 202.357 230.325 202.211 227.699C202.072 225.067 199.687 215.618 199.687 215.618L205.752 215.493C205.752 215.493 200.916 214.521 199.46 211.296C198.012 208.07 195.532 191.974 195.532 191.974C195.532 191.974 204.435 197.364 208.59 204.238C212.745 211.113 220.705 218.287 225.248 241.441C229.798 264.588 229.425 266.028 229.425 266.028Z" fill="#1ABC9C"/>
<path d="M249.272 187.001C249.265 187.001 249.243 187.081 249.199 187.235C249.155 187.418 249.096 187.644 249.031 187.937C248.884 188.588 248.679 189.495 248.416 190.65C248.153 191.828 247.838 193.276 247.502 194.958C247.158 196.64 246.763 198.556 246.375 200.677C245.556 204.918 244.685 209.994 243.8 215.64C242.937 221.285 242.073 227.509 241.305 234.062C240.552 240.614 239.974 246.875 239.528 252.572C239.111 258.269 238.796 263.41 238.621 267.725C238.511 269.882 238.467 271.835 238.416 273.554C238.357 275.272 238.328 276.749 238.321 277.956C238.313 279.141 238.299 280.077 238.299 280.735C238.299 281.035 238.299 281.276 238.306 281.459C238.306 281.62 238.313 281.708 238.321 281.708C238.328 281.708 238.335 281.627 238.35 281.459C238.357 281.276 238.372 281.035 238.386 280.735C238.408 280.07 238.445 279.141 238.489 277.956C238.525 276.749 238.577 275.272 238.65 273.561C238.723 271.85 238.789 269.897 238.92 267.739C239.125 263.425 239.469 258.291 239.908 252.601C240.376 246.911 240.969 240.658 241.715 234.113C242.483 227.568 243.332 221.351 244.173 215.698C245.044 210.052 245.878 204.977 246.66 200.735C247.033 198.607 247.407 196.691 247.728 195.009C248.043 193.319 248.328 191.871 248.57 190.687C248.797 189.524 248.979 188.61 249.104 187.959C249.155 187.666 249.199 187.432 249.235 187.249C249.265 187.089 249.279 187.001 249.272 187.001Z" fill="#263238"/>
<path d="M241.774 277.883C241.774 277.883 259.28 258.028 264.715 246.026L260.611 244.271C263.589 244.761 266.632 243.481 268.937 241.543C271.241 239.605 272.938 237.053 274.599 234.537L269.193 233.623C274.109 232.248 278.44 228.891 281 224.481C274.621 225.527 268.849 229.03 264.094 233.411C260.246 236.958 256.983 241.068 253.852 245.273C252.323 247.321 250.984 249.508 249.872 251.811C246.939 257.889 241.766 270.592 241.774 277.883Z" fill="#1ABC9C"/>
<path d="M203.82 203.522C203.813 203.522 203.842 203.595 203.901 203.726C203.974 203.88 204.062 204.07 204.164 204.304C204.42 204.838 204.771 205.577 205.225 206.505C206.161 208.414 207.485 211.186 209.095 214.63C212.314 221.512 216.55 231.115 220.734 241.924C224.911 252.74 228.24 262.693 230.493 269.948C231.62 273.576 232.505 276.516 233.097 278.556C233.397 279.551 233.624 280.333 233.792 280.904C233.873 281.152 233.931 281.35 233.983 281.51C234.027 281.649 234.056 281.715 234.063 281.715C234.07 281.715 234.056 281.642 234.027 281.503C233.99 281.342 233.939 281.138 233.873 280.882C233.719 280.311 233.514 279.521 233.251 278.512C232.71 276.457 231.861 273.502 230.771 269.86C228.591 262.576 225.299 252.594 221.122 241.77C216.93 230.954 212.65 221.359 209.358 214.499C207.72 211.069 206.352 208.312 205.371 206.425C204.888 205.503 204.515 204.779 204.245 204.253C204.12 204.026 204.018 203.843 203.945 203.69C203.864 203.58 203.828 203.522 203.82 203.522Z" fill="#263238"/>
<path d="M240.289 286.388C240.303 286.388 240.333 286.264 240.376 286.023C240.428 285.738 240.486 285.386 240.552 284.97C240.691 284.055 240.918 282.732 241.24 281.108C241.554 279.485 242.008 277.569 242.586 275.455C243.178 273.349 243.903 271.06 244.788 268.698C245.688 266.335 246.661 264.141 247.604 262.167C248.57 260.207 249.499 258.466 250.333 257.04C251.167 255.607 251.862 254.466 252.367 253.691C252.593 253.332 252.776 253.032 252.93 252.784C253.054 252.572 253.113 252.462 253.106 252.455C253.091 252.447 253.01 252.542 252.864 252.74C252.689 252.974 252.484 253.259 252.235 253.603C251.686 254.356 250.947 255.475 250.084 256.894C249.214 258.305 248.255 260.039 247.268 262.006C246.295 263.98 245.314 266.189 244.407 268.559C243.515 270.935 242.798 273.246 242.22 275.367C241.664 277.495 241.24 279.426 240.954 281.064C240.669 282.703 240.479 284.034 240.391 284.955C240.354 285.379 240.318 285.73 240.289 286.023C240.274 286.257 240.274 286.388 240.289 286.388Z" fill="#263238"/>
<path d="M217.186 281.715H255.498V289.526H217.186V281.715Z" fill="#455A64"/>
<path d="M251.847 289.533L247.707 315.81H224.56L220.697 289.533H251.847Z" fill="#455A64"/>
<path d="M219.541 289.533C219.541 289.643 226.791 289.738 235.724 289.738C244.663 289.738 251.913 289.643 251.913 289.533C251.913 289.423 244.671 289.328 235.724 289.328C226.791 289.328 219.541 289.416 219.541 289.533Z" fill="#263238"/>
</g>
<defs>
<clipPath id="clip0">
<rect width="281" height="316" fill="white" transform="matrix(-1 0 0 1 281 0)"/>
</clipPath>
</defs>
</svg>
