<svg width="17" height="17" viewBox="0 0 17 17" fill="none" xmlns="http://www.w3.org/2000/svg">
<path d="M2.33555 0.901623C2.85156 0.71842 3.44688 0.770373 3.9207 1.04694C4.1832 1.19029 4.38164 1.41842 4.5918 1.62584C5.34766 2.38131 6.10273 3.13717 6.85859 3.89224C7.04531 4.07857 7.20195 4.29849 7.29961 4.54459C7.59102 5.24537 7.40391 6.10709 6.84727 6.6231C6.43047 7.03873 6.01445 7.45513 5.59844 7.87154C5.4207 8.04771 5.22773 8.21021 5.01484 8.34263C4.08203 8.93911 2.83047 8.97583 1.86055 8.4438C2.35273 9.55044 3.06719 10.5438 3.86172 11.452C4.55312 12.2325 5.30352 12.9618 6.11602 13.6157C6.86719 14.2141 7.67656 14.7489 8.55586 15.1403C8.2543 14.5782 8.12695 13.925 8.20156 13.2911C8.27539 12.6055 8.58984 11.9524 9.07109 11.4602C9.50547 11.0227 9.94336 10.5887 10.3781 10.1516C10.5695 9.95669 10.7977 9.79536 11.0531 9.69575C11.6152 9.47153 12.2879 9.53638 12.7902 9.87739C12.9371 9.97466 13.066 10.0958 13.1887 10.2219C14.007 11.0415 14.8266 11.8598 15.6453 12.6793C16.0004 13.0325 16.2137 13.5301 16.2027 14.0329C16.2152 14.5789 15.9594 15.1196 15.5367 15.4637C14.3699 16.3618 12.941 16.9446 11.4609 17H10.9648C9.56836 16.9422 8.21875 16.461 7.02031 15.759C6.13906 15.2493 5.32773 14.6258 4.57031 13.9477C3.73008 13.1887 2.94648 12.3649 2.25078 11.4711C1.41289 10.386 0.701562 9.1813 0.309766 7.86021C0.131641 7.26802 0.0316406 6.65396 0 6.03677V5.53912C0.05625 4.06021 0.6375 2.63209 1.53437 1.46568C1.74492 1.211 2.02266 1.01061 2.33555 0.901623ZM2.51289 2.25006C2.30078 2.52779 2.11406 2.82467 1.94609 3.13131C1.425 4.0817 1.16641 5.18482 1.27305 6.26763C1.52969 6.51998 1.78242 6.7774 2.03828 7.03091C2.33203 7.31607 2.71797 7.50786 3.12578 7.55435C3.67695 7.62505 4.25508 7.43169 4.65156 7.04146C5.10625 6.5856 5.5625 6.13091 6.01719 5.67505C6.24219 5.4481 6.23945 5.04185 6.00859 4.82037C5.14219 3.95396 4.27578 3.08795 3.40977 2.22115C3.17227 1.98092 2.72969 1.98443 2.51289 2.25006ZM11.2672 11.0391C10.832 11.4766 10.3949 11.9122 9.95859 12.3485C9.62422 12.6883 9.43359 13.1618 9.43242 13.6375C9.42578 14.1184 9.61953 14.5946 9.95039 14.9418C10.2094 15.2055 10.4738 15.4641 10.7332 15.7274C11.3883 15.7914 12.0547 15.7215 12.6871 15.5418C13.4258 15.3297 14.1129 14.9598 14.7293 14.5043C15.0141 14.2942 15.0246 13.8344 14.7789 13.5903C13.9254 12.7372 13.0715 11.8844 12.2191 11.0301C11.9832 10.7415 11.4992 10.75 11.2672 11.0391Z" fill="#D64773"/>
</svg>
