<svg width="18" height="20" viewBox="0 0 18 20" fill="none" xmlns="http://www.w3.org/2000/svg">
<path d="M6.70385 0.791826C7.35385 0.284404 8.17651 0.00510673 9.00111 0.00862236C9.8351 0.00471611 10.6663 0.292216 11.3199 0.810185C12.048 1.37776 12.5476 2.22464 12.7011 3.1344C13.3945 3.13518 14.0878 3.1344 14.7812 3.13479C15.1382 3.13831 15.5074 3.10433 15.8496 3.23128C16.5804 3.46565 17.1179 4.19065 17.1242 4.95901C17.1261 9.34847 17.1238 13.7379 17.1253 18.1274C17.1281 18.5735 16.9679 19.0192 16.6749 19.3559C16.3703 19.7141 15.9277 19.9469 15.4609 20H2.53862C2.12729 19.9516 1.73237 19.768 1.43823 19.4762C1.08549 19.1375 0.880022 18.6543 0.875335 18.166C0.874163 13.8168 0.876116 9.468 0.874163 5.11917C0.867913 4.8719 0.894476 4.62229 0.979241 4.38909C1.21674 3.67893 1.9183 3.15472 2.66869 3.13597C3.54526 3.13245 4.42221 3.13636 5.29877 3.1344C5.45385 2.21487 5.96283 1.3594 6.70385 0.791826ZM8.85346 1.26331C8.31518 1.29495 7.79018 1.50745 7.38119 1.85862C6.83119 2.3219 6.50072 3.03128 6.49955 3.75042C6.51518 4.08792 6.2144 4.39417 5.8769 4.38479C4.83432 4.38518 3.79174 4.38479 2.74916 4.38479C2.49057 4.38128 2.24291 4.5594 2.16166 4.80433C2.10619 4.95472 2.12885 5.11761 2.12494 5.27425C2.12494 9.55901 2.12494 13.8438 2.12533 18.1285C2.11596 18.4641 2.41401 18.7633 2.74877 18.7594C6.91635 18.7598 11.0839 18.7598 15.2515 18.7594C15.5871 18.7641 15.8831 18.4625 15.8749 18.1278C15.8749 13.7516 15.8753 9.37542 15.8746 4.99925C15.8746 4.67112 15.582 4.37815 15.2527 4.38479C14.2097 4.38479 13.1663 4.38518 12.123 4.38479C11.8808 4.38792 11.6449 4.23518 11.5519 4.01097C11.4831 3.86722 11.5066 3.70433 11.4906 3.55081C11.4363 2.87268 11.0878 2.2262 10.5538 1.8055C10.0796 1.42386 9.46127 1.22542 8.85346 1.26331Z" fill="#959499"/>
<path d="M8.89369 2.51377C9.1726 2.48095 9.46244 2.58017 9.66166 2.77783C9.92846 3.03681 10.0121 3.45908 9.86986 3.80126C9.72533 4.17314 9.32142 4.42119 8.92416 4.38212C8.5683 4.3583 8.24017 4.11064 8.12064 3.7747C8.014 3.49033 8.05502 3.15517 8.2308 2.90673C8.38119 2.68838 8.63041 2.54228 8.89369 2.51377Z" fill="#959499"/>
<path d="M5.76705 7.20138C6.05416 7.16701 6.3526 7.27326 6.5526 7.48185C6.79283 7.72794 6.87564 8.10998 6.76432 8.43459C6.6565 8.76896 6.34283 9.0256 5.99361 9.06427C5.63268 9.11662 5.25572 8.93224 5.06979 8.61935C4.89166 8.32521 4.89283 7.93302 5.07486 7.64044C5.22174 7.39748 5.48541 7.23185 5.76705 7.20138Z" fill="#959499"/>
<path d="M8.3075 7.51256C9.78836 7.50592 11.27 7.51177 12.7509 7.50943C12.9884 7.5024 13.2169 7.6524 13.3165 7.86568C13.4266 8.09615 13.3786 8.39029 13.1985 8.57193C13.0821 8.69107 12.9169 8.76138 12.7497 8.75982C11.2903 8.75982 9.83133 8.75982 8.37235 8.75982C8.06453 8.76685 7.78211 8.51412 7.7536 8.20787C7.70242 7.87466 7.97078 7.53599 8.3075 7.51256Z" fill="#959499"/>
<path d="M5.76783 10.9512C6.09205 10.9121 6.43228 11.0551 6.62564 11.3195C6.82212 11.577 6.86666 11.9383 6.74439 12.2379C6.59517 12.6238 6.16705 12.875 5.75689 12.8148C5.41587 12.7773 5.10884 12.5332 4.994 12.2102C4.88853 11.9258 4.92954 11.5906 5.10611 11.343C5.2565 11.1254 5.50494 10.9797 5.76783 10.9512Z" fill="#959499"/>
<path d="M8.3073 11.2627C9.78855 11.2561 11.2702 11.2619 12.7514 11.2596C13.0983 11.2463 13.4034 11.5721 13.3749 11.9162C13.3663 12.2397 13.0733 12.5198 12.7491 12.51C11.2909 12.51 9.83269 12.51 8.37448 12.51C8.06511 12.5182 7.78034 12.2627 7.753 11.9545C7.70456 11.6225 7.97214 11.2865 8.3073 11.2627Z" fill="#959499"/>
<path d="M5.76858 14.7014C6.06428 14.6666 6.37209 14.7811 6.57131 15.0022C6.81115 15.2627 6.87912 15.6619 6.74436 15.9885C6.59514 16.3741 6.16779 16.6248 5.75803 16.5651C5.40764 16.5272 5.0928 16.2698 4.98537 15.9342C4.89084 15.6553 4.93576 15.333 5.10647 15.0932C5.25725 14.8752 5.50569 14.7299 5.76858 14.7014Z" fill="#959499"/>
<path d="M8.30683 15.0124C9.78808 15.0053 11.2697 15.012 12.751 15.0092C13.0107 15.0014 13.2607 15.1815 13.3412 15.4276C13.4935 15.8132 13.167 16.2764 12.7521 16.2596C11.2932 16.2596 9.83417 16.2596 8.37558 16.2596C8.06698 16.2678 7.78261 16.0147 7.75409 15.7077C7.70292 15.3749 7.97089 15.037 8.30683 15.0124Z" fill="#959499"/>
</svg>
