<svg width="19" height="19" viewBox="0 0 19 19" fill="none" xmlns="http://www.w3.org/2000/svg">
<g clip-path="url(#clip0)">
<path d="M6.17747 0H6.67226C7.62028 0.0732292 8.1883 0.862917 8.78799 1.49229C9.10268 1.89604 9.75778 1.97323 10.118 1.58531C10.7691 0.951979 11.3233 0.0771875 12.3228 0H12.9007C13.54 0.174167 14.1634 0.536354 14.4623 1.15385C14.9115 1.99302 14.484 2.97667 14.7393 3.8475C15.155 4.61938 16.1267 4.26708 16.8254 4.3225C17.91 4.23938 18.8402 5.13396 19.0005 6.17302V6.8024C18.8382 7.7425 18.0069 8.26302 17.4013 8.90427C17.0253 9.26052 17.1124 9.90375 17.5042 10.2125C18.1316 10.8102 18.9213 11.3723 19.0005 12.3164V12.8963C18.8323 13.5434 18.4582 14.1649 17.8387 14.4657C17.0015 14.913 16.0139 14.4796 15.1471 14.7428C14.3811 15.1624 14.7354 16.1322 14.678 16.8289C14.7591 17.8798 13.916 18.7625 12.9383 19H12.3307C11.3273 18.9268 10.7731 18.052 10.118 17.4206C9.76966 17.0287 9.11257 17.098 8.79788 17.4978C8.19424 18.1252 7.6282 18.9208 6.68018 19H6.10028C5.46101 18.8239 4.83559 18.4617 4.53872 17.8442C4.08549 17.005 4.52684 16.0115 4.2557 15.1426C3.83413 14.3806 2.86632 14.7349 2.17163 14.6775C1.11872 14.7586 0.239967 13.9155 0.000488281 12.9378V12.3263C0.0737175 11.3822 0.857467 10.8161 1.48684 10.2244C1.88861 9.90969 1.97965 9.25063 1.58976 8.8924C0.958405 8.23333 0.0756966 7.67917 0.000488281 6.67375V6.18094C0.156842 5.1399 1.08507 4.24135 2.17361 4.3225C2.8683 4.2651 3.83611 4.61938 4.25768 3.85542C4.52091 2.98458 4.08945 1.99698 4.53674 1.15781C4.84747 0.518542 5.49861 0.136562 6.17747 0ZM6.01716 1.29635C5.30466 1.64073 5.54413 2.53135 5.54018 3.16073C5.64507 3.9999 5.23538 4.8826 4.48132 5.28635C3.71934 5.73958 2.80497 5.44865 1.97372 5.51792C1.33049 5.59708 0.962363 6.44219 1.34434 6.96073C1.81934 7.5426 2.54768 7.91271 2.86038 8.62323C3.1434 9.31 3.08997 10.163 2.63278 10.7647C2.26466 11.2436 1.73226 11.5623 1.35622 12.0314C0.956426 12.5499 1.32653 13.4009 1.97372 13.4821C2.80695 13.5553 3.72924 13.2545 4.49122 13.7216C5.23538 14.1273 5.64507 15.0001 5.54216 15.8333C5.52038 16.4964 5.31455 17.5117 6.1557 17.7551C6.94736 18.0441 7.38278 17.1752 7.85382 16.72C8.50893 15.9125 9.77163 15.7304 10.6444 16.2846C11.1966 16.6468 11.5331 17.2445 12.0437 17.6581C12.5662 18.0421 13.4173 17.6601 13.4846 17.0109C13.5182 16.4845 13.4371 15.956 13.4608 15.4276C13.4727 14.3984 14.3989 13.4702 15.4301 13.4603C16.0199 13.4128 16.6255 13.5791 17.2034 13.4346C17.8565 13.2129 18.0228 12.251 17.4666 11.8334C16.7858 11.2041 15.8873 10.549 15.9724 9.5C15.8833 8.3976 16.863 7.7524 17.5557 7.07948C18.0861 6.5926 17.7259 5.58917 17.0174 5.51792C16.4197 5.48229 15.8219 5.58323 15.2262 5.52583C14.3475 5.41302 13.5934 4.66094 13.4766 3.78417C13.4153 3.18646 13.5202 2.58677 13.4846 1.98906C13.4173 1.33792 12.5603 0.95 12.0398 1.35375C11.4519 1.82083 11.0838 2.55115 10.3733 2.86188C9.51236 3.23 8.42976 3.0024 7.83601 2.26219C7.36695 1.76146 6.82861 0.874792 6.01716 1.29635Z" fill="#959499"/>
<path d="M8.76237 5.40298C9.89643 5.19517 11.1097 5.4861 12.028 6.18475C13.1086 6.99423 13.736 8.36381 13.6568 9.70965C13.5975 11.1604 12.7187 12.5498 11.4164 13.1969C10.0271 13.9352 8.22997 13.7788 6.9831 12.8229C5.57195 11.7838 4.97227 9.79871 5.56404 8.15204C6.01925 6.73496 7.30175 5.65235 8.76237 5.40298ZM8.77227 6.62412C7.28195 6.97642 6.23695 8.60527 6.59716 10.1075C6.89206 11.6631 8.57633 12.7833 10.124 12.3993C11.6618 12.0985 12.7682 10.44 12.408 8.90412C12.1111 7.30496 10.3497 6.17287 8.77227 6.62412Z" fill="#959499"/>
</g>
<defs>
<clipPath id="clip0">
<rect width="19" height="19" fill="white" transform="translate(0.000488281)"/>
</clipPath>
</defs>
</svg>
