<svg xmlns="http://www.w3.org/2000/svg" viewBox="0 0 740.59 521.55"><title>shetab</title><path d="M374.11,124.63c3.47,0,6.92-.58,10.39-.61q296,0,592,0c3.54.06,7.13-.27,10.65.36,17.88.32,35.2,8.74,47.26,21.81A71.47,71.47,0,0,1,1053.54,195c0,10.66,0,21.32,0,32q-178,0-356,0c-6.44-.73-12.92-.34-19.37-.6-4.54-.88-9.18,0-13.74-.6-3.74-.48-7.52-.18-11.27-.4-15-.95-30-1.69-45-3.08-17-1.18-33.53-5.57-50.37-7.89-19.07-3.08-38.46-2.8-57.61-.79-8.77,1.07-18.33,2.6-25,9A9.88,9.88,0,0,0,472.68,234c3.32,5.33,9.4,8.11,15.32,9.47,3.95,1.19,8.13.07,12.13,1,5.36.33,10.77-.24,16.12.48a281.26,281.26,0,0,0,54.85-3.26l2.75-.2c6-1.05,12.14-1.85,18.21-2.76,23.57-3.11,47.4-3.73,71.07-5,9.8-.15,19.59-.59,29.37-1.12q180.51,0,361,0v30q-190.2-.07-380.4-.07c-1.72-.34-3.46-.51-5.18-.8-4-.31-7.89-.85-11.83-1.27-24.6-3.11-49.16-7.19-74-8-7.83-1.06-15.79.27-23.62-.83-32.32-.13-64.63,0-96.95-.05-9,1-18-.08-27,1-9.6.07-20.19-.64-28.45,5.16-4.57,2.82-8.13,8.73-5.93,14.09s8.21,7.92,13.55,9.39c10.7,2.67,21.82,1.68,32.73,1.86,12.32,1,24.71.3,37.06.51,13.66.2,27.35-.5,41,.51,22.22-.09,44.46.46,66.61-1.37,4.33-.2,8.67-.48,13-1,9.69-.76,19.34-1.88,29-3,2.66-.29,5.33-.62,8-1,5.69-.56,11.35-1.33,17-2l2.71-.26c14.78-2.5,29.78-.55,44.63-1.87q93,0,186,0c2.66,0,5.3-.55,8-.5q77,0,154,0v29.5h-321a126.29,126.29,0,0,1-17.61-.85c-17.94-1.22-35.84-3.08-53.79-4.29q-22-2-44-3-34.74-2.19-69.61-1.86c-14-1-28-.32-42-.52-23.32,0-46.65,0-70,0a22,22,0,0,0-4.65.41c-6.15.29-12.31,0-18.46.16-9.78,1.17-20.07-.83-29.43,3-5.79,2.12-11.29,6.86-11.45,13.46a11.63,11.63,0,0,0,5.48,8.33c6.77,4.24,15,5.16,22.87,5.25,9.15.87,18.41.16,27.6.36,16.64,1,33.34.33,50,.52h48c17.33,1.37,34.7-.2,52-.5,38.2-1.88,76.39-4.59,114.55-7.37,12.79-.75,25.57-1.49,38.35-2.14q84,0,168,0c7-.08,14,.29,21-.48q67-.07,134,0v28.5q-158.5,0-317,0c-8.87.3-17.6-1.56-26.42-2.16-3-.43-6-.72-9-1s-6-.72-9-1-6-.72-9-1c-6.64-.84-13.31-1.48-20-2-16.61-1.62-33.3-2.59-50-2.95-6.4-1-12.94.17-19.36-.73-10.42-.58-20.89.39-31.29-.66q-64,0-127.94,0a21.12,21.12,0,0,0-3.63.4c-10.14.4-20.31-.36-30.42.62-7-.35-13.95.57-20.94.51-6.86.45-14.12,2.35-18.91,7.6-3.6,3.39-4.51,9.71-1.16,13.55,4.66,5.54,12.26,7.06,19.1,7.86,7,1,14-.05,21,.87,11.29.44,22.63-.46,33.9.59,12,.05,24,0,36,0,6.65.74,13.35.42,20,.48,12.67,0,25.35,0,38,0,14,1,28,.39,42.06.47,7.47-1,15,0,22.52-.76,30.68-1,61.36-3,92-5.55,9.61-.57,19.2-1.56,28.81-2.3,2.38-.33,4.8-.35,7.19-.68,14.75-1.8,29.61-1,44.44-1.16q72.5,0,145,0c16.29-1,32.65-.3,49-.52h95v27q-151,0-302,0c-5.53.15-10.94-1.16-16.42-1.68-2.67-.38-5.33-.71-8-1-6-.85-12-1.33-18-2-3.32-.48-6.66-.79-10-1-11.93-1.19-23.88-2-35.84-2.49-5.57-.78-11.22.08-16.78-.72-6.6-.46-13.24.3-19.82-.56-14.72-.41-29.5.5-44.19-.59q-81,0-162,0c-3.21,0-6.45-.26-9.6.39-7.79.37-15.61-.31-23.37.59-9.27,0-19.31-.55-27.47,4.63-4.53,2.39-7.84,7.47-7,12.7.73,4.37,4.78,7,8.41,8.84,6.74,2.92,14.19,3.44,21.44,3.46,9.44,1.1,19-.32,28.47.82,9.05.19,18.11,0,27.16.07,15.27,1.31,30.66-.3,45.94,1,18,.25,36.07-.53,54.07.53,18-.09,36.06.09,54.09-.09,6.88-1,13.86.05,20.76-.72,28.25-.87,56.53-2.21,84.72-4.58,5.62-.12,11.19-.93,16.8-1.28,3.65-.46,7.33-.74,11-1,3-.44,6-.74,9-1,5.49-.61,11-1.48,16.48-1.84q82.05,0,164.09,0c9.62-.9,19.3-.34,29-.49h109.06c0,9.5,0,19,0,28.51q-159.5,0-319,0a74.85,74.85,0,0,1-8.58-.85c-4.28-.42-8.56-.88-12.84-1.3-3-.42-6-.72-9-1s-6-.72-9-1q-9.48-1.14-19-2c-3.65-.5-7.31-.81-11-1q-14-1.42-28-2c-7.64-.62-15.33-.85-23-1-6.41-1-13,.18-19.37-.72-8.53-.47-17.09.09-25.63-.28a35.71,35.71,0,0,0-7.59-.4c-43,.06-86.06-.06-129.09.06-10.22,1.15-20.54-.22-30.76.86-4.92.41-9.91-.41-14.78.49-7.42-.07-15.28.08-21.8,4.1-3.94,2.5-8.08,6.41-7.63,11.51-.3,3.42,2.12,6.25,4.67,8.19,5.44,3.86,12.24,5.12,18.78,5.47,6.43.85,13-.2,19.4.75,9.06.2,18.12,0,27.18.07,13.63,1,27.34.31,41,.49,23.63,1.36,47.37-.34,71,1,9.7-.08,19.4.07,29.1-.07,7.8-1,15.7.07,23.51-.76,27-.9,54-2.48,81-4.54,8.67-.58,17.34-1.23,26-2,4-.28,8-.52,12-1,8.46-.57,16.89-1.49,25.35-2.14q83.55,0,167.1,0c13.62-1,27.3-.32,41-.51h109v27q-163,0-326,0c-3.48,0-6.92-.55-10.39-.66-2.4-.35-4.82-.36-7.21-.7-46.57-3.41-93.17-6.91-139.82-8.33-7.65-.83-15.37.12-23-.52a82.58,82.58,0,0,0-10.55-.3h-94c-10-.21-20,.86-30,.51-9.34,1.15-19-.68-28.07,2.48-5.41,2-11.36,5.51-12.51,11.62-1.46,5,2.58,9.55,6.72,11.74A45.41,45.41,0,0,0,398.44,477c11.35.9,22.75.35,34.13.47,17.94,1,35.94.3,53.91.52,17.33.21,34.7-.51,52,.52,16.55-.15,33.16.43,49.65-.92,6.67-.18,13.36-.42,20-1,5-.26,10-.45,15-1,9.35-.43,18.68-1.24,28-2,22.21-1.55,44.39-3.64,66.62-5,12.57-1,25.18-.61,37.78-.68h136c3.2,0,6.44.25,9.61-.39,50.79-.27,101.59,0,152.38-.12,0,9.5,0,19,0,28.51H675.45c-9.85.33-19.58-1.65-29.34-2.65-4.05-.56-8.11-1.05-12.14-1.7-3.29-.44-6.57-1-9.88-1.3-8.62-1.24-17.29-2.31-26-3-9.22-.84-18.47-1.47-27.73-1.39-5.63-.69-11.31-.41-17-.45H465.5a89.06,89.06,0,0,0-11,.3c-6.52.68-13.13-.4-19.62.59-7.93.3-16.15-.63-23.69,2.43-5.28,1.87-10.38,5.95-11.6,11.66-.85,4.1,1.94,7.92,5.08,10.26,6.78,4.23,15,5.24,22.85,5.32,13.62,1.18,27.34-.33,40.95.93q45,0,90,0c6.52-.23,13.11.49,19.59-.39a155.31,155.31,0,0,0,17-1c10-.61,20-1.79,30-3,2.66-.28,5.33-.62,8-1s5.34-.62,8-1c5.69-.55,11.35-1.35,17-2,3-.28,6-.56,9-1.06,13.8-.44,27.64.48,41.41-.6q89,0,178,0c6.63-.07,13.29.29,19.9-.48,49-.06,98.07,0,147.1,0,0,10.17,0,20.35,0,30.52h-318c-18.8-.08-37.61.33-56.38-.6-7.64-.63-15.33-.81-23-1-20-1.16-40.15-2.12-60.11-4.55-11-1.7-22-3.62-33-5.19-3.62-.5-7.23-1-10.86-1.31a115.32,115.32,0,0,0-15.65-.9c-9-1.29-18,.53-27,0-6.81.66-13.65.31-20.44,1.08-6.33,1.64-13.34,4.38-16.43,10.58-2.6,4.77-.62,10.91,3.49,14.15,6.63,5.52,15.4,7.57,23.81,8.36a87.59,87.59,0,0,0,10,1,185.21,185.21,0,0,0,53.21-2.8q16.67-3.15,33.29-6.47c14.2-1.7,28.48-2.65,42.72-3.76,21.14-1.2,42.28-1.95,63.43-2.63q175.47,0,351,0c-.3,13.81.66,27.67-.61,41.43-3.06,23.46-18.57,45-40.22,54.75-7.37,3.81-15.62,5.31-23.77,6.23q-303.18.34-606.36.11a68.22,68.22,0,0,1-40.63-13.44c-17.33-12.55-28-33.36-28.8-54.69-.27-127.12,0-254.26-.12-381.39.07-17.12,5.72-34.41,17.12-47.36a68.51,68.51,0,0,1,44-24" transform="translate(-313 -124)" fill="#3497fd"/></svg>