<svg width="44" height="44" viewBox="0 0 44 44" fill="none" xmlns="http://www.w3.org/2000/svg">
<g clip-path="url(#clip0_219:78)">
<path d="M39.6321 2.35053C34.153 -0.913983 27.063 -0.73274 21.6821 2.61186C18.6588 4.49097 16.3218 7.20118 13.6716 9.5343C11.3494 11.5787 8.64903 13.0369 6.25069 14.9659C-2.44705 21.9615 -1.61715 40.8297 10.6302 43.336C15.9392 44.4224 23.1952 44.7708 26.3155 39.5855C29.2905 34.6415 30.2885 29.5839 36.1017 26.9577C38.1275 26.0425 41.5136 26.0886 42.8859 24.0831C44.6177 21.5521 42.4689 18.9231 41.3226 16.7176C39.8453 13.8753 39.5355 11.0731 40.575 8.02421C41.46 5.42795 42.0831 4.26169 39.6321 2.35053Z" fill="url(#paint0_linear_219:78)"/>
<path opacity="0.1" d="M39.3199 14.8399C39.3199 11.0541 36.251 7.98514 32.4652 7.98514C31.2581 7.98514 30.1246 8.29821 29.1396 8.84598C26.9725 7.82745 24.553 7.25708 22 7.25708C12.7187 7.25708 5.19458 14.7811 5.19458 24.0625C5.19458 33.3439 12.7187 40.8679 22 40.8679C31.2813 40.8679 38.8054 33.3439 38.8054 24.0625C38.8054 22.2581 38.5198 20.5206 37.9935 18.8914C38.8268 17.7563 39.3199 16.3559 39.3199 14.8399Z" fill="#111828"/>
<path d="M22 38.8054C31.2814 38.8054 38.8054 31.2814 38.8054 22C38.8054 12.7186 31.2814 5.19458 22 5.19458C12.7186 5.19458 5.19458 12.7186 5.19458 22C5.19458 31.2814 12.7186 38.8054 22 38.8054Z" fill="#D64773" fill-opacity="0.8"/>
<path d="M18.0718 36.1995C17.9739 36.6713 18.1294 37.6536 18.1311 38.3574C16.3299 37.9329 14.6412 37.2196 13.1158 36.2674C12.5529 34.7824 12.8365 33.2966 12.7815 31.5752C12.7033 29.1466 11.2346 29.028 9.44198 27.9332C7.94752 27.0197 6.5751 26.0967 5.46823 25.0345C5.28862 24.0505 5.19495 23.0365 5.19495 22.0001C5.19495 18.6459 6.17721 15.5221 7.87104 12.8993C8.16581 13.2783 8.59635 13.3969 9.32166 13.4295C9.7694 12.9766 10.2421 12.8675 10.7405 13.1021C10.811 13.2645 10.8814 13.4269 10.9519 13.5894C10.9124 13.9503 11.0129 14.2648 11.2527 14.5338C11.7717 14.6129 12.2745 14.5493 12.7617 14.343C13.4956 14.1944 14.3052 13.7028 15.0554 13.6787C18.1114 13.5816 16.164 15.6957 15.2393 17.0518C14.1831 18.6021 13.7079 20.7978 11.7511 21.5171C10.3203 22.043 8.57659 21.3255 8.51041 23.5796C8.45799 25.3577 10.5196 27.2448 12.0742 27.7794C13.9769 28.4325 16.4253 27.464 18.2746 28.5829C19.6642 29.4234 19.2853 32.1716 18.9424 33.7933C18.7671 34.6217 18.248 35.3479 18.0718 36.1995Z" fill="white"/>
<path d="M20.3113 9.2202C19.8885 9.84755 19.2337 10.3451 19.0309 11.073C18.8143 11.849 19.1263 12.8193 18.5582 13.3899C17.6791 12.7952 17.2967 11.6591 17.3345 10.5995C17.3577 9.9713 17.4522 9.21247 16.946 8.8395C16.4974 8.50864 15.6905 8.60231 15.5332 8.06692C15.4662 7.83833 15.5685 7.58223 15.4885 7.35794C15.4017 7.1113 15.1327 6.98926 14.9351 6.81825C14.9179 6.80364 14.9016 6.78731 14.8861 6.77012C16.7492 5.89872 18.798 5.35903 20.9567 5.22668C21.0341 6.59997 21.0796 8.08067 20.3113 9.2202Z" fill="white"/>
<path d="M38.805 22.0001C38.805 28.7969 34.7703 34.6509 28.9661 37.2978C29.1818 36.6559 29.6003 36.044 29.9157 35.4304C30.47 34.3519 30.7304 33.1453 30.8722 31.9413C30.9478 31.2985 30.9229 30.5105 30.3651 30.1822C30.0747 30.0112 29.718 30.0206 29.3811 30.0155C28.7856 30.006 28.1918 29.9338 27.6117 29.7998C26.9895 29.6554 26.3493 29.4182 25.9497 28.9189C25.3533 28.173 25.471 27.1039 25.6188 26.1603C25.7709 25.1909 25.923 24.2224 26.0751 23.253C26.1997 22.4564 26.4283 21.5231 27.1803 21.2292C27.6951 21.0281 28.2691 21.2129 28.8208 21.2541C30.4425 21.3736 31.949 20.222 33.5723 20.308C33.8568 20.3234 34.1472 20.3758 34.4214 20.3011C34.6182 20.2469 34.7935 20.1292 34.9422 19.9891C35.7955 19.1908 35.7672 17.8347 35.5179 16.6926C35.4088 16.1916 35.2584 15.6759 34.9104 15.2995C34.5615 14.9223 33.9616 14.7332 33.5199 14.9953C32.81 15.4164 32.8848 16.6805 32.1011 16.9409C31.4093 17.1695 30.6943 16.3626 29.9973 16.574C29.0245 16.8679 29.3906 18.5703 28.5252 19.1023C28.0766 19.3773 27.4922 19.2054 27.0247 18.9656C26.4438 18.6666 25.8663 18.1965 25.7907 17.5485C25.6901 16.684 26.5014 16.0076 27.2559 15.5737C28.0104 15.1397 28.8861 14.6558 29.0572 13.8033C29.1147 13.5198 29.0829 13.2241 29.144 12.9414C29.3193 12.119 30.1855 11.6532 30.9865 11.3971C31.7874 11.141 32.6777 10.9442 33.2122 10.2945C33.3411 10.1381 33.4426 9.96194 33.5422 9.78491C36.7829 12.8494 38.805 17.1884 38.805 22.0001Z" fill="white"/>
<path d="M36.1212 39.7323C36.0112 39.7323 35.9012 39.6903 35.8173 39.6064L34.872 38.6611C34.7041 38.4933 34.7041 38.2212 34.872 38.0535L35.8173 37.1082C35.9851 36.9403 36.2571 36.9403 36.4249 37.1082L37.3703 38.0535C37.5381 38.2212 37.5381 38.4933 37.3703 38.6611L36.4249 39.6064C36.3411 39.6903 36.2312 39.7323 36.1212 39.7323ZM35.7835 38.3573L36.1212 38.6949L36.4588 38.3573L36.1212 38.0196L35.7835 38.3573Z" fill="#D64773" fill-opacity="0.8"/>
<path d="M6.13996 36.5423C6.02996 36.5423 5.92004 36.5004 5.83608 36.4164L4.89077 35.4711C4.72293 35.3034 4.72293 35.0313 4.89077 34.8635L5.83608 33.9182C6.00392 33.7504 6.27591 33.7504 6.44375 33.9182L7.38906 34.8635C7.55689 35.0313 7.55689 35.3034 7.38906 35.4711L6.44375 36.4164C6.35987 36.5003 6.24996 36.5423 6.13996 36.5423ZM5.80231 35.1673L6.13996 35.505L6.47761 35.1673L6.13996 34.8297L5.80231 35.1673Z" fill="#D64773" fill-opacity="0.8"/>
<path d="M6.56958 9.08166C6.33231 9.08166 6.13989 8.88934 6.13989 8.65198C6.13989 8.36761 5.90863 8.13635 5.62427 8.13635C5.38699 8.13635 5.19458 7.94402 5.19458 7.70666C5.19458 7.46931 5.38699 7.27698 5.62427 7.27698C5.90863 7.27698 6.13989 7.04572 6.13989 6.76135C6.13989 6.52399 6.33231 6.33167 6.56958 6.33167C6.80685 6.33167 6.99927 6.52399 6.99927 6.76135C6.99927 7.04572 7.23053 7.27698 7.51489 7.27698C7.75217 7.27698 7.94458 7.46931 7.94458 7.70666C7.94458 7.94402 7.75217 8.13635 7.51489 8.13635C7.23053 8.13635 6.99927 8.36761 6.99927 8.65198C6.99927 8.88934 6.80685 9.08166 6.56958 9.08166Z" fill="#D64773" fill-opacity="0.8"/>
<path d="M38.8051 34.8052C38.5678 34.8052 38.3754 34.6128 38.3754 34.3755C38.3754 34.0911 38.144 33.8599 37.8597 33.8599C37.6225 33.8599 37.4301 33.6675 37.4301 33.4302C37.4301 33.1928 37.6225 33.0005 37.8597 33.0005C38.1441 33.0005 38.3754 32.7692 38.3754 32.4849C38.3754 32.2475 38.5678 32.0552 38.8051 32.0552C39.0423 32.0552 39.2347 32.2475 39.2347 32.4849C39.2347 32.7692 39.466 33.0005 39.7504 33.0005C39.9876 33.0005 40.1801 33.1928 40.1801 33.4302C40.1801 33.6675 39.9876 33.8599 39.7504 33.8599C39.4661 33.8599 39.2347 34.0911 39.2347 34.3755C39.2347 34.6128 39.0423 34.8052 38.8051 34.8052Z" fill="#D64773" fill-opacity="0.8"/>
<path d="M10.2412 6.78198C10.0039 6.78198 9.81152 6.58965 9.81152 6.35229C9.81152 6.06793 9.58027 5.83667 9.2959 5.83667C9.05863 5.83667 8.86621 5.64434 8.86621 5.40698C8.86621 5.16962 9.05863 4.97729 9.2959 4.97729C9.58027 4.97729 9.81152 4.74604 9.81152 4.46167C9.81152 4.22431 10.0039 4.03198 10.2412 4.03198C10.4785 4.03198 10.6709 4.22431 10.6709 4.46167C10.6709 4.74604 10.9022 4.97729 11.1865 4.97729C11.4238 4.97729 11.6162 5.16962 11.6162 5.40698C11.6162 5.64434 11.4238 5.83667 11.1865 5.83667C10.9022 5.83667 10.6709 6.06793 10.6709 6.35229C10.6709 6.58965 10.4785 6.78198 10.2412 6.78198Z" fill="#D64773" fill-opacity="0.8"/>
<path d="M28.2423 28.2102H22.2469C18.4612 28.2102 15.3922 25.1413 15.3922 21.3554C15.3922 17.5697 18.4611 14.5007 22.2469 14.5007C26.0327 14.5007 29.1017 17.5697 29.1017 21.3554V27.3508C29.1017 27.8254 28.7169 28.2102 28.2423 28.2102Z" fill="white"/>
<path d="M24.8896 25.2436C24.7166 25.2436 24.5535 25.1384 24.4881 24.9671L22.247 19.1011L20.0059 24.9671C19.9213 25.1888 19.6727 25.3001 19.4512 25.2152C19.2295 25.1306 19.1184 24.8821 19.2031 24.6605L21.8456 17.7439C21.9092 17.5775 22.0688 17.4675 22.247 17.4675C22.4251 17.4675 22.5848 17.5774 22.6484 17.7439L25.2909 24.6605C25.3755 24.8821 25.2645 25.1306 25.0429 25.2152C24.9923 25.2346 24.9405 25.2436 24.8896 25.2436Z" fill="#D64773"/>
<path d="M22.5061 23.3523H20.4595C20.2222 23.3523 20.0298 23.16 20.0298 22.9226C20.0298 22.6852 20.2222 22.4929 20.4595 22.4929H22.5061C22.7433 22.4929 22.9358 22.6852 22.9358 22.9226C22.9358 23.16 22.7433 23.3523 22.5061 23.3523Z" fill="#D64773"/>
<path d="M26.4698 19.632H32.4652C36.2509 19.632 39.3199 16.563 39.3199 12.7773C39.3199 8.99161 36.251 5.92261 32.4652 5.92261C28.6795 5.92261 25.6105 8.99161 25.6105 12.7773V18.7727C25.6105 19.2473 25.9952 19.632 26.4698 19.632Z" fill="white"/>
<path d="M32.4651 11.4289C32.2278 11.4289 32.0354 11.2365 32.0354 10.9992V9.12488C32.0354 8.88752 32.2278 8.69519 32.4651 8.69519C32.7024 8.69519 32.8948 8.88752 32.8948 9.12488V10.9992C32.8948 11.2365 32.7024 11.4289 32.4651 11.4289Z" fill="#D64773"/>
<path d="M35.846 11.6523H29.0842C28.847 11.6523 28.6545 11.46 28.6545 11.2227C28.6545 10.9853 28.847 10.793 29.0842 10.793H35.846C36.0833 10.793 36.2757 10.9853 36.2757 11.2227C36.2757 11.46 36.0833 11.6523 35.846 11.6523Z" fill="#D64773"/>
<path d="M29.8736 16.8595C29.6746 16.8595 29.4959 16.7204 29.4535 16.5179C29.4047 16.2856 29.5536 16.0578 29.7859 16.0091C31.5526 15.6386 32.8035 14.7196 33.5039 13.2775C34.0283 12.1975 34.0344 11.2323 34.0344 11.2227C34.0344 10.9853 34.2269 10.793 34.4641 10.793C34.7014 10.793 34.8938 10.9853 34.8938 11.2227C34.8938 11.27 34.8869 12.3971 34.2769 13.653C33.7113 14.8174 32.5038 16.3173 29.9621 16.8502C29.9325 16.8565 29.9027 16.8595 29.8736 16.8595Z" fill="#D64773"/>
<path d="M34.9828 16.8595C34.9569 16.8595 34.9306 16.8571 34.9043 16.8522C31.9724 16.3107 30.8221 13.6992 30.7746 13.5883C30.6811 13.3702 30.7822 13.1176 31.0003 13.0241C31.2181 12.9307 31.4703 13.0314 31.5641 13.2489C31.5741 13.2718 32.5905 15.5511 35.0604 16.0072C35.2937 16.0504 35.448 16.2744 35.4049 16.5078C35.3666 16.7146 35.186 16.8595 34.9828 16.8595Z" fill="#D64773"/>
<path d="M39.7497 12.7773C39.7497 11.362 39.3416 9.98814 38.5696 8.80426C38.4401 8.60557 38.1738 8.54929 37.975 8.67905C37.7762 8.80873 37.7201 9.07488 37.8498 9.27374C38.5305 10.3175 38.8903 11.5292 38.8903 12.7773C38.8903 16.3201 36.008 19.2024 32.4653 19.2024H26.4699C26.233 19.2024 26.0402 19.0096 26.0402 18.7727V12.7773C26.0402 9.23455 28.9225 6.35229 32.4653 6.35229C33.6943 6.35229 34.8903 6.70206 35.9239 7.36395C36.1238 7.49174 36.3895 7.43356 36.5175 7.23376C36.6454 7.03395 36.5872 6.76815 36.3873 6.64018C35.2151 5.88961 33.8589 5.49283 32.4653 5.49283C31.2634 5.49283 30.1297 5.78717 29.1295 6.30477C26.8848 5.28332 24.4867 4.76477 22.0001 4.76477C12.5149 4.76477 4.79537 12.4667 4.76563 21.9451C4.76331 21.9632 4.76013 21.9811 4.76013 21.9998C4.76013 22.0185 4.76331 22.0365 4.76563 22.0546C4.79537 31.5331 12.5149 39.2351 22.0001 39.2351C31.4852 39.2351 39.2047 31.5331 39.2345 22.0548C39.2368 22.0367 39.24 22.0188 39.24 22C39.24 21.9818 39.2368 21.9646 39.2347 21.9471C39.2295 20.2259 38.9713 18.5283 38.4671 16.899C39.2752 15.726 39.7497 14.3063 39.7497 12.7773ZM29.4166 20.0616H31.9642C32.0004 20.5609 32.0229 21.0652 32.0309 21.5703H29.5314V21.3554C29.5314 20.9205 29.4929 20.487 29.4166 20.0616ZM26.47 20.0616H28.5414C28.6279 20.4853 28.6722 20.9194 28.6722 21.3554V27.3508C28.6722 27.5877 28.4794 27.7805 28.2425 27.7805H27.3996C27.1623 27.7805 26.9699 27.9728 26.9699 28.2102C26.9699 28.4475 27.1623 28.6398 27.3996 28.6398H28.2425C28.9533 28.6398 29.5315 28.0616 29.5315 27.3508V22.4297H32.0322C31.9692 26.404 31.0336 30.0299 29.5278 32.8167C27.3274 32.1447 24.9077 31.7701 22.4298 31.7313V28.6398H24.5069C24.7442 28.6398 24.9366 28.4474 24.9366 28.2101C24.9366 27.9727 24.7442 27.7804 24.5069 27.7804H22.2471C18.7044 27.7804 15.8221 24.8981 15.8221 21.3553C15.8221 17.8126 18.7044 14.9303 22.2471 14.9303C23.2682 14.9303 24.2794 15.1752 25.181 15.6385V18.7725C25.1809 19.4835 25.7592 20.0616 26.47 20.0616ZM25.1809 12.7773V14.6875C24.3168 14.3078 23.3789 14.0978 22.4297 14.074V12.2686C23.3695 12.2538 24.3007 12.1905 25.215 12.0813C25.1932 12.3105 25.1809 12.5425 25.1809 12.7773ZM21.5704 11.409C19.247 11.3715 16.9798 11.0306 14.9116 10.419C16.6338 7.61222 18.9763 5.81948 21.5704 5.64022V11.409ZM21.5704 12.2686V14.1036C17.87 14.4462 14.9626 17.5671 14.9626 21.3554C14.9626 21.4275 14.966 21.4987 14.968 21.5703H11.9679C12.031 17.5959 12.9665 13.9701 14.4723 11.1832C16.6728 11.8552 19.0925 12.2297 21.5704 12.2686ZM15.0425 22.4297C15.5309 25.7193 18.2265 28.2976 21.5704 28.6073V31.7314C19.0925 31.7702 16.6728 32.1448 14.4724 32.8168C12.9666 30.0299 12.031 26.4041 11.968 22.4297H15.0425V22.4297ZM21.5704 32.5909V38.3597C18.9763 38.1805 16.6338 36.3878 14.9116 33.5809C16.9798 32.9693 19.247 32.6284 21.5704 32.5909ZM22.4297 32.5909C24.7531 32.6285 27.0204 32.9693 29.0885 33.5809C27.3663 36.3877 25.0238 38.1805 22.4297 38.3597V32.5909ZM25.3553 11.198C24.3975 11.3215 23.4188 11.393 22.4297 11.409V5.64125C24.0643 5.75632 25.6603 6.5252 27.0733 7.88465C26.2369 8.80555 25.6343 9.94156 25.3553 11.198ZM28.2337 6.85365C28.0453 6.98858 27.8637 7.13218 27.6893 7.28403C27.2753 6.88373 26.8459 6.52933 26.404 6.2221C27.0241 6.39518 27.6342 6.60633 28.2337 6.85365ZM14.2353 9.88957C14.1812 9.97636 14.1281 10.0644 14.0753 10.1527C13.2746 9.87994 12.5079 9.56558 11.7854 9.21049C13.4739 7.85921 15.4342 6.8344 17.5705 6.23336C16.3382 7.09668 15.2084 8.32688 14.2353 9.88957ZM11.0737 9.81368C11.8804 10.2308 12.7422 10.5986 13.6468 10.9139C12.0597 13.9031 11.1688 17.6268 11.1084 21.5703H5.62999C5.75065 16.9079 7.83025 12.7248 11.0737 9.81368ZM5.62999 22.4297H11.1084C11.1688 26.3732 12.0597 30.0968 13.6468 33.086C12.7421 33.4014 11.8804 33.7691 11.0736 34.1862C7.83025 31.2751 5.75065 27.092 5.62999 22.4297ZM11.7854 34.7894C12.5079 34.4344 13.2745 34.12 14.0753 33.8472C14.1281 33.9356 14.1812 34.0235 14.2353 34.1103C15.2084 35.6731 16.3382 36.9032 17.5706 37.7664C15.4343 37.1655 13.4739 36.1407 11.7854 34.7894ZM29.7649 34.1104C29.8189 34.0236 29.872 33.9356 29.9248 33.8473C30.7256 34.1201 31.4922 34.4344 32.2147 34.7895C30.5262 36.1408 28.5659 37.1656 26.4296 37.7666C27.6619 36.9032 28.7917 35.6731 29.7649 34.1104ZM32.9264 34.1862C32.1196 33.7692 31.2579 33.4014 30.3533 33.086C31.9404 30.0968 32.8313 26.3732 32.8916 22.4297H38.3701C38.2495 27.092 36.1699 31.2751 32.9264 34.1862ZM38.3696 21.5703H32.8903C32.8824 21.0625 32.8608 20.555 32.8253 20.0525C34.7918 19.9564 36.555 19.0762 37.8104 17.7194C38.1486 18.9717 38.3359 20.2626 38.3696 21.5703Z" fill="#111828"/>
</g>
<defs>
<linearGradient id="paint0_linear_219:78" x1="0.463998" y1="22" x2="43.536" y2="22" gradientUnits="userSpaceOnUse">
<stop stop-color="#FFCDDC" stop-opacity="0"/>
<stop offset="1" stop-color="#FFCDDC"/>
</linearGradient>
<clipPath id="clip0_219:78">
<rect width="44" height="44" fill="white"/>
</clipPath>
</defs>
</svg>
