<svg width="46" height="46" viewBox="0 0 46 46" fill="none" xmlns="http://www.w3.org/2000/svg">
<path d="M4.07621 0H24.7313C26.0421 0.0943359 27.2873 0.803203 28.0178 1.8975C28.4993 2.60367 28.75 3.45809 28.7509 4.3116C28.7482 6.22887 28.7518 8.14523 28.7491 10.0625C28.7787 10.8334 28.0825 11.5296 27.3125 11.5027C26.5452 11.5296 25.8534 10.8379 25.8759 10.0706C25.8705 8.14973 25.8804 6.22887 25.8723 4.30891C25.8885 3.54344 25.2057 2.86422 24.4411 2.8777C17.7621 2.87141 11.0822 2.8777 4.40324 2.8741C3.84621 2.84984 3.28469 3.15441 3.03672 3.65844C2.83906 4.0232 2.875 4.44996 2.8732 4.84977C2.87859 9.46324 2.87051 14.0767 2.87769 18.6902C2.86422 19.417 3.47965 20.0846 4.20828 20.1169C5.2334 20.1439 6.26031 20.107 7.28633 20.1313C8.01945 20.1546 8.64387 20.8276 8.6241 21.5589C8.62769 23.2776 8.6223 24.9963 8.6259 26.715C9.70941 25.6333 10.7929 24.5516 11.8729 23.4663C12.4973 22.7341 13.8099 22.9012 14.216 23.778C14.5017 24.3144 14.3993 25.0323 13.9554 25.4536C12.0364 27.37 10.1191 29.2882 8.20273 31.2063C7.81371 31.6142 7.17402 31.7346 6.65473 31.5271C6.11746 31.324 5.74281 30.7706 5.7518 30.1965C5.7473 27.7977 5.7518 25.3988 5.75 23C4.80754 22.9748 3.83273 23.1042 2.92621 22.7754C1.28566 22.2453 0.0754687 20.6452 0 18.9229V4.07621C0.0610937 3.11039 0.433945 2.15984 1.08891 1.44199C1.8391 0.583984 2.94148 0.0664844 4.07621 0Z" fill="white"/>
<path d="M9.14049 6.44647C10.2905 5.68459 11.8124 5.53905 13.0927 6.04936C14.6452 6.64682 15.7656 8.2119 15.8087 9.8785C15.8168 11.856 15.8096 13.8334 15.8123 15.8118C15.815 16.2116 15.6488 16.6114 15.3469 16.8764C14.8276 17.3742 13.9202 17.3778 13.4027 16.8755C13.0999 16.6096 12.9337 16.2089 12.9373 15.8082C12.9337 15.3311 12.94 14.8531 12.9373 14.3752C11.9787 14.3752 11.0209 14.3752 10.0623 14.3752C10.0452 14.9493 10.0973 15.527 10.0344 16.0984C9.90596 16.8836 9.03897 17.4254 8.2744 17.2098C7.64819 17.0696 7.17382 16.4605 7.18729 15.819C7.18729 13.8685 7.18639 11.9171 7.18819 9.96565C7.20167 8.56229 7.96354 7.20565 9.14049 6.44647ZM10.1944 9.46702C9.9437 10.1121 10.1099 10.8255 10.0623 11.5002C11.0209 11.5002 11.9787 11.5002 12.9373 11.5002C12.9337 11.0195 12.9436 10.5389 12.9355 10.0582C12.9364 9.52991 12.6219 9.0178 12.1485 8.78241C11.454 8.40416 10.5034 8.74288 10.1944 9.46702Z" fill="white"/>
<path d="M18.517 15.6318C19.3085 14.8232 20.4352 14.3695 21.5645 14.374C28.2704 14.3758 34.9764 14.3758 41.6832 14.374C42.7317 14.3704 43.782 14.7585 44.5591 15.4656C45.4162 16.2149 45.9337 17.3164 46.0002 18.4502V33.3005C45.9346 34.3903 45.4585 35.454 44.6535 36.197C43.8889 36.9364 42.835 37.3605 41.7731 37.3749C41.2655 37.3794 40.7578 37.3713 40.2502 37.3749C40.2484 39.771 40.2529 42.168 40.2493 44.5642C40.27 45.2695 39.7049 45.8921 39.0185 45.9999H38.624C38.271 45.937 37.9466 45.7636 37.7085 45.495C35.0456 42.8221 32.3727 40.1582 29.707 37.4881C29.6262 37.3911 29.5076 37.3614 29.3872 37.3731C26.8105 37.3776 24.2338 37.3722 21.657 37.3767C21.109 37.3866 20.5583 37.2967 20.0444 37.1036C18.4236 36.5178 17.2547 34.8781 17.2511 33.1513C17.2484 28.3294 17.252 23.5075 17.2493 18.6865C17.2439 17.5536 17.703 16.4233 18.517 15.6318ZM20.127 18.6874C20.1234 23.2991 20.127 27.9098 20.1243 32.5215C20.127 32.9007 20.0884 33.3014 20.2564 33.6554C20.4783 34.1576 21.0066 34.5008 21.5564 34.499C24.4674 34.5053 27.3783 34.4918 30.2892 34.5053C30.8283 34.5125 31.2254 34.9123 31.5659 35.2824C33.5021 37.2177 35.4364 39.1556 37.3743 41.0899C37.3752 39.524 37.3761 37.9571 37.3743 36.3911C37.3761 36.0407 37.3429 35.6697 37.5019 35.3453C37.7193 34.835 38.2593 34.4927 38.8127 34.5008C39.6501 34.499 40.4883 34.499 41.3265 34.5017C41.7488 34.5205 42.2061 34.4873 42.5475 34.2106C42.9949 33.8925 43.171 33.3211 43.127 32.792C43.1207 28.0877 43.1288 23.3835 43.1234 18.6793C43.1225 18.1528 42.809 17.6434 42.3373 17.4098C41.9734 17.2122 41.5494 17.249 41.1514 17.249C34.6197 17.2517 28.0872 17.2472 21.5555 17.2517C20.791 17.2409 20.1126 17.9228 20.127 18.6874Z" fill="white"/>
<path d="M30.2009 19.9345C30.2746 19.1681 31.0571 18.5769 31.8145 18.6982C32.4757 18.7728 33.0328 19.3613 33.057 20.0288C33.0732 20.54 33.0561 21.0512 33.0624 21.5624C34.5323 21.5669 36.0021 21.5553 37.4719 21.5678C38.2078 21.5921 38.8286 22.2659 38.8151 22.9981C38.8349 23.734 38.2069 24.4132 37.4683 24.4339C36.8116 24.4455 36.1539 24.433 35.4963 24.4365C34.9383 25.759 34.2672 27.0321 33.473 28.228C34.4631 29.2845 35.7892 30.1632 37.2824 30.1857C37.8394 30.156 38.4081 30.4579 38.6543 30.9664C38.9759 31.5639 38.7971 32.3725 38.2482 32.7732C37.7981 33.137 37.1844 33.0804 36.6454 33.0283C34.7227 32.8414 32.9771 31.8172 31.6258 30.475C30.2925 31.7948 28.5837 32.81 26.6934 33.0184C26.0896 33.084 25.3727 33.1586 24.9028 32.6878C24.2254 32.1137 24.3071 30.9251 25.051 30.4435C25.5263 30.0823 26.148 30.2423 26.6916 30.1075C28.2144 29.793 29.4489 28.7122 30.3896 27.5245C31.1739 26.5883 31.7866 25.5255 32.3329 24.4383C30.1811 24.4365 28.0285 24.4374 25.8767 24.4374C25.4976 24.4392 25.1157 24.2946 24.8543 24.0161C24.397 23.5794 24.3071 22.8283 24.6243 22.2857C24.8687 21.8437 25.3646 21.5588 25.8686 21.5633C27.3079 21.5606 28.7481 21.5633 30.1874 21.5624C30.1973 21.0198 30.1667 20.4762 30.2009 19.9345Z" fill="white"/>
</svg>
