<svg width="52" height="50" viewBox="0 0 52 50" fill="none" xmlns="http://www.w3.org/2000/svg">
<path d="M5.72728 0.680759C6.14978 0.611697 6.57939 0.622869 7.00697 0.6249C19.8709 0.625916 32.7348 0.623884 45.5987 0.6249C47.6513 0.633025 49.584 2.09959 50.1527 4.0699C50.4229 4.86107 50.3386 5.70201 50.3498 6.52162C50.3508 10.5831 50.3488 14.6446 50.3508 18.7071C50.3193 20.65 48.9614 22.4649 47.1313 23.0956C46.1888 23.4602 45.166 23.3647 44.1788 23.3749C31.5871 23.3749 18.9954 23.3749 6.40369 23.3749C5.34845 23.3637 4.30134 22.994 3.47462 22.3379C2.38994 21.499 1.68814 20.1757 1.62619 18.8036C1.62111 14.4008 1.63126 9.9981 1.62111 5.59638C1.58251 4.52592 1.92478 3.44732 2.56869 2.59217C3.31517 1.57248 4.47806 0.870681 5.72728 0.680759ZM6.04314 3.93787C5.32306 4.13896 4.82337 4.86209 4.85384 5.60349C4.84673 9.86607 4.84775 14.1286 4.85384 18.3902C4.80103 19.2972 5.58306 20.1503 6.50017 20.1249C19.2981 20.1259 32.0959 20.1239 44.8938 20.1249C45.3651 20.1269 45.8749 20.1706 46.2924 19.9065C46.8591 19.5927 47.1556 18.9366 47.1242 18.3019C47.1252 14.1043 47.1272 9.9067 47.1231 5.70912C47.1587 5.06826 46.8601 4.40404 46.2852 4.0892C45.8678 3.82818 45.361 3.87287 44.8908 3.8749C32.297 3.8749 19.7023 3.8749 7.10853 3.8749C6.75306 3.87998 6.38947 3.8424 6.04314 3.93787Z" fill="white"/>
<path d="M9.28082 7.18391C9.5002 7.12297 9.73075 7.12297 9.95723 7.12297C10.9739 7.12907 11.9895 7.12196 13.0051 7.12501C13.5983 7.11891 14.1812 7.47438 14.4382 8.0086C14.7571 8.63727 14.6281 9.47415 14.0959 9.94844C13.7983 10.2176 13.4043 10.3811 13 10.375C11.9154 10.376 10.8297 10.375 9.74497 10.375C9.04317 10.3973 8.37082 9.90274 8.17989 9.22735C7.90668 8.38946 8.42567 7.40938 9.28082 7.18391Z" fill="white"/>
<path d="M19.0317 7.18391C19.2491 7.12297 19.4766 7.12297 19.701 7.12297C20.7177 7.12907 21.7353 7.12196 22.752 7.12501C23.3471 7.1179 23.9341 7.47641 24.1911 8.01469C24.4938 8.61899 24.3871 9.41626 23.9006 9.89563C23.598 10.1973 23.1795 10.3821 22.7499 10.375C21.6287 10.373 20.5074 10.3811 19.3872 10.3709C18.5554 10.3537 17.8343 9.5879 17.8658 8.75712C17.8353 8.04516 18.3513 7.37282 19.0317 7.18391Z" fill="white"/>
<path d="M28.7793 7.18361C29.0657 7.10642 29.3653 7.12471 29.6588 7.12369C30.6429 7.13181 31.6281 7.11455 32.6122 7.1308C33.3993 7.16127 34.092 7.859 34.1052 8.64916C34.2159 9.63533 33.2663 10.5017 32.2974 10.3767C31.2432 10.3676 30.19 10.3828 29.1357 10.3706C28.3039 10.3524 27.5839 9.58557 27.6164 8.75377C27.5879 8.04385 28.1008 7.37353 28.7793 7.18361Z" fill="white"/>
<path d="M38.5313 7.18265C39.3916 7.0557 40.2711 7.15726 41.1394 7.12476C41.8179 7.16336 42.5867 6.9775 43.1748 7.41726C43.9436 7.91796 44.0858 9.10523 43.4916 9.79281C43.189 10.1564 42.7228 10.3829 42.2475 10.3748C41.1273 10.3727 40.006 10.3809 38.8868 10.3707C38.054 10.3524 37.3319 9.58562 37.3654 8.75382C37.3369 8.04187 37.8519 7.37156 38.5313 7.18265Z" fill="white"/>
<path d="M9.28772 13.6819C9.50506 13.623 9.73358 13.623 9.95702 13.623C10.9726 13.6291 11.9883 13.622 13.0029 13.625C13.6194 13.6169 14.2237 14.0028 14.4674 14.5705C14.7609 15.2145 14.5964 16.0493 14.0378 16.4982C13.7483 16.7389 13.3787 16.8801 13.0008 16.875C11.9172 16.876 10.8325 16.874 9.74881 16.875C9.02163 16.9014 8.32897 16.3692 8.16139 15.6623C7.92983 14.8346 8.45389 13.8992 9.28772 13.6819Z" fill="white"/>
<path d="M19.0364 13.6818C19.1867 13.6402 19.3432 13.628 19.4985 13.625C23.8322 13.625 28.1669 13.6239 32.5016 13.625C33.0947 13.6179 33.6797 13.9733 33.9377 14.5096C34.2576 15.1382 34.1266 15.9761 33.5934 16.4494C33.2958 16.7196 32.9007 16.8821 32.4965 16.875C28.1649 16.875 23.8332 16.8739 19.5016 16.875C18.6607 16.9125 17.8807 16.1874 17.8675 15.3444C17.7984 14.602 18.3214 13.8748 19.0364 13.6818Z" fill="white"/>
<path d="M38.5365 13.6818C39.3937 13.5569 40.2691 13.6564 41.1345 13.6249C41.8139 13.6635 42.5827 13.4767 43.1728 13.9154C43.9406 14.4131 44.0869 15.5973 43.4968 16.2869C43.1952 16.6535 42.727 16.8821 42.2496 16.8749C41.1659 16.876 40.0833 16.8749 38.9996 16.8749C38.2379 16.9044 37.5168 16.3163 37.3909 15.5658C37.2152 14.7604 37.7402 13.892 38.5365 13.6818Z" fill="white"/>
<path d="M3.43789 31.9934C4.84555 29.754 7.40898 28.2986 10.0577 28.2529C11.9864 28.2447 13.9151 28.2549 15.8448 28.2478C16.2896 28.2427 16.7405 28.2975 17.1559 28.4641C18.5199 28.9608 19.4248 30.4578 19.2146 31.8979C18.912 34.049 18.6012 36.1991 18.2945 38.3502C19.5213 37.8617 20.8762 37.4351 22.2016 37.753C23.1837 37.9805 24.0175 38.7524 24.2856 39.7284C24.6228 40.8984 24.3547 42.1446 23.9495 43.2618C23.205 45.2443 22.0472 47.0409 20.7888 48.733C20.2962 49.4144 19.2532 49.5861 18.5697 49.0976C17.8283 48.6263 17.6384 47.5183 18.1543 46.8154C18.9871 45.6881 19.7813 44.5232 20.3998 43.2628C20.7766 42.5133 21.1006 41.7221 21.1981 40.8832C19.9905 41.0579 18.8927 41.6347 17.8323 42.2086C17.2951 42.4879 16.7852 42.9419 16.1383 42.8748C15.2252 42.8494 14.4747 41.9404 14.6301 41.0386C15.0698 37.8576 15.538 34.6808 15.9859 31.5018C14.3122 31.4978 12.6374 31.5008 10.9637 31.4998C10.464 31.4968 9.95922 31.4836 9.46461 31.5709C8.26008 31.7771 7.13883 32.4515 6.40453 33.4305C5.77789 34.3009 5.36859 35.3054 5.00297 36.3078C3.71516 40.0494 3.32516 44.0337 3.21953 47.9682C3.14844 48.7533 2.40906 49.3911 1.62602 49.3769C0.840937 49.4073 0.126953 48.7878 0 48.02V46.6763C0.155391 43.343 0.538281 39.9996 1.43711 36.778C1.91344 35.1144 2.52687 33.4722 3.43789 31.9934Z" fill="white"/>
<path d="M33.6297 29.2585C34.2208 28.6217 35.084 28.254 35.9514 28.25C37.9156 28.25 39.8808 28.25 41.8451 28.25C43.6935 28.2774 45.5226 28.963 46.9333 30.1604C47.9144 30.9769 48.6569 32.0413 49.1962 33.192C50.2951 35.4538 50.9126 37.9157 51.3351 40.3847C51.7332 42.8191 51.9739 45.2861 51.9769 47.7541C52.0064 48.3228 51.6763 48.8794 51.1848 49.1566C50.6109 49.502 49.8258 49.4369 49.317 49.0023C48.9412 48.7016 48.7381 48.2202 48.7351 47.7439C48.7097 45.4648 48.4994 43.1888 48.1318 40.9402C47.7844 38.9394 47.303 36.9468 46.4865 35.0811C46.1625 34.3651 45.805 33.647 45.2657 33.0671C44.3699 32.0941 43.0679 31.5132 41.7445 31.5C39.826 31.5 37.9085 31.499 35.99 31.501C36.3993 34.3986 36.8167 37.2941 37.229 40.1907C37.2951 40.7594 37.485 41.3729 37.2209 41.9193C36.8827 42.7501 35.7889 43.1309 35.0038 42.7023C33.6723 41.9487 32.3175 41.12 30.7798 40.8844C30.8641 41.6796 31.1678 42.4332 31.5182 43.1462C32.1489 44.4533 32.9644 45.6609 33.8277 46.8248C34.3122 47.5012 34.1619 48.5503 33.4824 49.0419C32.9634 49.4522 32.1895 49.4898 31.6309 49.1363C31.314 48.9525 31.1129 48.6366 30.9017 48.3492C29.6748 46.647 28.5454 44.8372 27.8782 42.8354C27.5288 41.7121 27.3409 40.4385 27.8386 39.3294C28.2276 38.4408 29.1122 37.8344 30.0597 37.6943C31.3019 37.5003 32.5368 37.8974 33.6794 38.3494C33.3778 36.2308 33.0751 34.1132 32.7725 31.9966C32.613 31.0166 32.936 29.9705 33.6297 29.2585Z" fill="white"/>
</svg>
