<svg width="44" height="44" viewBox="0 0 44 44" fill="none" xmlns="http://www.w3.org/2000/svg">
<path d="M44 4.29688C44 2.8753 42.8435 1.71875 41.4219 1.71875H2.57812C1.15655 1.71875 0 2.8753 0 4.29688V23.1172C0 23.1214 0.000601562 23.1254 0.000601562 23.1296C0.000515625 23.138 0 23.1462 0 23.1546V29.2094C0 30.9832 0.26907 32.7406 0.79982 34.4329L1.77263 37.5351V41.4219C1.77263 41.8964 2.15746 42.2812 2.63201 42.2812C3.10655 42.2812 3.49138 41.8964 3.49138 41.4219V37.4034C3.49138 37.3162 3.47815 37.2296 3.45202 37.1463L2.43985 33.9186C1.96135 32.3929 1.71875 30.8085 1.71875 29.2094V23.1546C1.71875 22.677 2.10727 22.2886 2.58474 22.2886C3.06221 22.2886 3.45073 22.6771 3.45073 23.1546V25.2606C3.45073 25.7351 3.83556 26.1199 4.31011 26.1199C4.78466 26.1199 5.16948 25.7351 5.16948 25.2606V21.8831C5.16948 21.4056 5.55801 21.0171 6.03556 21.0171C6.51312 21.0171 6.90155 21.4057 6.90155 21.8831V25.2606C6.90155 25.7351 7.28638 26.1199 7.76093 26.1199C8.23548 26.1199 8.6203 25.7351 8.6203 25.2606V20.7903C8.6203 20.3127 9.00883 19.9243 9.4863 19.9243C9.96377 19.9243 10.3523 20.3128 10.3523 20.7903V25.2606C10.3523 25.7351 10.7371 26.1199 11.2117 26.1199C11.6862 26.1199 12.071 25.7351 12.071 25.2606V15.1475C12.071 14.67 12.4596 14.2815 12.937 14.2815C13.4145 14.2815 13.8031 14.67 13.8031 15.1475V27.6415C13.8031 28.035 14.0704 28.3783 14.4519 28.4747C14.8332 28.571 15.2316 28.3962 15.4186 28.0499L17.4449 24.2977C17.6938 23.8371 18.2546 23.6608 18.722 23.8966C19.122 24.0985 19.328 24.5435 19.2229 24.979L17.9094 30.4241C17.6513 31.4937 17.1914 32.4864 16.5421 33.3748L13.9687 36.8964C13.8612 37.0436 13.8032 37.2212 13.8032 37.4034V41.4219C13.8032 41.8964 14.188 42.2812 14.6626 42.2812C15.1371 42.2812 15.5219 41.8964 15.5219 41.4219V37.684L17.9298 34.3889C18.7135 33.3166 19.2688 32.1183 19.5802 30.8272L20.3414 27.6719H23.6586L24.4197 30.8272C24.7312 32.1183 25.2865 33.3167 26.0701 34.3889L28.4781 37.684V41.4219C28.4781 41.8964 28.8629 42.2812 29.3374 42.2812C29.812 42.2812 30.1968 41.8964 30.1968 41.4219V37.4034C30.1968 37.2212 30.1388 37.0435 30.0313 36.8964L27.4578 33.3748C26.8086 32.4864 26.3487 31.4937 26.0906 30.424L24.777 24.9789C24.6719 24.5435 24.878 24.0984 25.2778 23.8966C25.7451 23.6609 26.3062 23.8371 26.555 24.2976L28.5813 28.0498C28.7683 28.3962 29.1674 28.5709 29.548 28.4746C29.9295 28.3782 30.1968 28.035 30.1968 27.6415V15.1475C30.1968 14.67 30.5853 14.2815 31.0629 14.2815C31.5404 14.2815 31.9289 14.67 31.9289 15.1475V25.2605C31.9289 25.735 32.3137 26.1198 32.7882 26.1198C33.2628 26.1198 33.6476 25.735 33.6476 25.2605V20.7902C33.6476 20.3126 34.0361 19.9242 34.5136 19.9242C34.9911 19.9242 35.3796 20.3127 35.3796 20.7902V25.2605C35.3796 25.735 35.7644 26.1198 36.239 26.1198C36.7135 26.1198 37.0984 25.735 37.0984 25.2605V21.8831C37.0984 21.4056 37.4869 21.0171 37.9644 21.0171C38.4418 21.0171 38.8304 21.4057 38.8304 21.8831V25.2606C38.8304 25.7351 39.2153 26.1199 39.6898 26.1199C40.1644 26.1199 40.5492 25.7351 40.5492 25.2606V23.1546C40.5492 22.677 40.9377 22.2886 41.4152 22.2886C41.8926 22.2886 42.2812 22.677 42.2812 23.1546V29.2094C42.2812 30.8085 42.0387 32.3929 41.5602 33.9187L40.548 37.1464C40.5219 37.2297 40.5086 37.3164 40.5086 37.4035V41.4219C40.5086 41.8964 40.8934 42.2812 41.368 42.2812C41.8425 42.2812 42.2274 41.8964 42.2274 41.4219V37.535L43.2002 34.4328C43.7309 32.7406 44 30.983 44 29.2093V23.1545C44 23.1461 43.9995 23.1379 43.9994 23.1296C43.9994 23.1254 44 23.1214 44 23.1172V4.29688ZM23.1062 25.3821L23.2439 25.9531H20.7561L20.8938 25.3821C21.1394 24.3643 20.7758 23.3279 19.9954 22.6872H24.0046C23.2243 23.3279 22.8606 24.3643 23.1062 25.3821ZM42.2812 20.7194C42.0104 20.6229 41.719 20.5697 41.4153 20.5697C41.0231 20.5697 40.6511 20.6575 40.3178 20.8144C39.9105 19.9209 39.0088 19.2983 37.9644 19.2983C37.544 19.2983 37.1471 19.3991 36.7959 19.5778C36.3608 18.762 35.501 18.2054 34.5135 18.2054C34.2099 18.2054 33.9183 18.258 33.6475 18.3546V15.1474C33.6475 13.7222 32.4881 12.5627 31.0628 12.5627C29.6375 12.5627 28.478 13.7222 28.478 15.1474V24.2414L28.0673 23.4808C27.6768 22.7578 27.0106 22.2859 26.2702 22.1286C26.3054 22.0349 26.3255 21.9338 26.3255 21.8278C26.3255 21.3532 25.9407 20.9684 25.4661 20.9684H19.5078C19.0333 20.9684 18.6484 21.3532 18.6484 21.8278C18.6484 21.9244 18.6651 22.0169 18.6945 22.1036C17.6028 21.9324 16.4885 22.4517 15.9326 23.4808L15.5219 24.2414V15.1475C15.5219 13.7222 14.3624 12.5628 12.9371 12.5628C11.5118 12.5628 10.3524 13.7222 10.3524 15.1475V18.3547C10.0816 18.2581 9.79 18.2055 9.48638 18.2055C8.49905 18.2055 7.63916 18.7621 7.20397 19.5779C6.85283 19.3992 6.45588 19.2984 6.03556 19.2984C4.99116 19.2984 4.08942 19.9209 3.68208 20.8145C3.34881 20.6576 2.97688 20.5698 2.58466 20.5698C2.28095 20.5698 1.98954 20.6229 1.71866 20.7195V4.29688C1.71866 3.82302 2.10418 3.4375 2.57804 3.4375H41.4218C41.8956 3.4375 42.2812 3.82302 42.2812 4.29688V20.7194Z" fill="#454545"/>
<path d="M9.19531 11.344H5.5C5.02545 11.344 4.64062 11.7288 4.64062 12.2034C4.64062 12.6779 5.02545 13.0627 5.5 13.0627H9.19531C9.66986 13.0627 10.0547 12.6779 10.0547 12.2034C10.0547 11.7288 9.66986 11.344 9.19531 11.344Z" fill="#D64773"/>
<path d="M17.8115 11.344H16.4503C15.9758 11.344 15.5909 11.7288 15.5909 12.2034C15.5909 12.6779 15.9758 13.0627 16.4503 13.0627H17.8115C18.286 13.0627 18.6709 12.6779 18.6709 12.2034C18.6709 11.7288 18.286 11.344 17.8115 11.344Z" fill="#D64773"/>
<path d="M6.98457 16.1562H5.5C5.02545 16.1562 4.64062 16.5411 4.64062 17.0156C4.64062 17.4902 5.02545 17.875 5.5 17.875H6.98457C7.45912 17.875 7.84395 17.4902 7.84395 17.0156C7.84395 16.5411 7.45912 16.1562 6.98457 16.1562Z" fill="#D64773"/>
<path d="M20.1071 16.1562H18.5073C18.0328 16.1562 17.6479 16.5411 17.6479 17.0156C17.6479 17.4902 18.0328 17.875 18.5073 17.875H20.1071C20.5816 17.875 20.9664 17.4902 20.9664 17.0156C20.9664 16.5411 20.5816 16.1562 20.1071 16.1562Z" fill="#D64773"/>
<path d="M8.46931 6.53168H5.5C5.02545 6.53168 4.64062 6.91651 4.64062 7.39105C4.64062 7.8656 5.02545 8.25043 5.5 8.25043H8.46931C8.94386 8.25043 9.32869 7.8656 9.32869 7.39105C9.32869 6.91651 8.94386 6.53168 8.46931 6.53168Z" fill="#D64773"/>
<path d="M17.8115 6.53168H15.0891C14.6145 6.53168 14.2297 6.91651 14.2297 7.39105C14.2297 7.8656 14.6145 8.25043 15.0891 8.25043H17.8115C18.286 8.25043 18.6709 7.8656 18.6709 7.39105C18.6709 6.91651 18.286 6.53168 17.8115 6.53168Z" fill="#D64773"/>
<path d="M12.4317 6.78304C12.2719 6.6232 12.0509 6.5321 11.8241 6.5321C11.5981 6.5321 11.3764 6.6232 11.2166 6.78304C11.0568 6.94289 10.9648 7.1646 10.9648 7.39062C10.9648 7.61749 11.0567 7.83835 11.2166 7.99906C11.3764 8.15881 11.5981 8.24999 11.8241 8.24999C12.0501 8.24999 12.2719 8.15881 12.4317 7.99906C12.5915 7.83835 12.6835 7.61749 12.6835 7.39062C12.6835 7.1646 12.5916 6.94289 12.4317 6.78304Z" fill="#D64773"/>
<path d="M23.203 11.344H20.9258C20.4512 11.344 20.0664 11.7287 20.0664 12.2034C20.0664 12.6779 20.4512 13.0627 20.9258 13.0627H23.203C23.6776 13.0627 24.0624 12.6779 24.0624 12.2034C24.0624 11.7288 23.6776 11.344 23.203 11.344Z" fill="#D64773"/>
<path d="M27.8926 11.5955C27.7329 11.4357 27.5112 11.3438 27.2852 11.3438C27.0591 11.3438 26.8374 11.4356 26.6776 11.5955C26.5177 11.7555 26.4258 11.9771 26.4258 12.2031C26.4258 12.43 26.5176 12.6509 26.6776 12.8106C26.8374 12.9713 27.0591 13.0625 27.2852 13.0625C27.5112 13.0625 27.7329 12.9713 27.8926 12.8106C28.0525 12.6509 28.1445 12.4291 28.1445 12.2031C28.1445 11.9771 28.0526 11.7554 27.8926 11.5955Z" fill="#D64773"/>
<path d="M38.5296 11.344H35.2955C34.8208 11.344 34.4361 11.7287 34.4361 12.2034C34.4361 12.6779 34.8209 13.0627 35.2955 13.0627H38.5296C39.0042 13.0627 39.389 12.6779 39.389 12.2034C39.389 11.7288 39.0042 11.344 38.5296 11.344Z" fill="#D64773"/>
<path d="M26.2109 16.1562H24.4778C24.0033 16.1562 23.6185 16.5411 23.6185 17.0156C23.6185 17.4902 24.0033 17.875 24.4778 17.875H26.2109C26.6855 17.875 27.0703 17.4902 27.0703 17.0156C27.0703 16.5411 26.6855 16.1562 26.2109 16.1562Z" fill="#D64773"/>
<path d="M38.362 16.1562H36.7623C36.2877 16.1562 35.9029 16.5411 35.9029 17.0156C35.9029 17.4902 36.2877 17.875 36.7623 17.875H38.362C38.8365 17.875 39.2214 17.4902 39.2214 17.0156C39.2214 16.5411 38.8365 16.1562 38.362 16.1562Z" fill="#D64773"/>
<path d="M24.2773 6.53168H22C21.5255 6.53168 21.1406 6.91651 21.1406 7.39105C21.1406 7.8656 21.5255 8.25043 22 8.25043H24.2773C24.7518 8.25043 25.1366 7.8656 25.1366 7.39105C25.1366 6.91651 24.7518 6.53168 24.2773 6.53168Z" fill="#D64773"/>
<path d="M38.5109 6.53168H35.6661C35.1916 6.53168 34.8067 6.91651 34.8067 7.39105C34.8067 7.8656 35.1916 8.25043 35.6661 8.25043H38.5109C38.9854 8.25043 39.3703 7.8656 39.3703 7.39105C39.3703 6.91651 38.9854 6.53168 38.5109 6.53168Z" fill="#D64773"/>
<path d="M31.2383 6.53168H29.3556C28.881 6.53168 28.4962 6.91651 28.4962 7.39105C28.4962 7.8656 28.881 8.25043 29.3556 8.25043H31.2383C31.7128 8.25043 32.0977 7.8656 32.0977 7.39105C32.0977 6.91651 31.7128 6.53168 31.2383 6.53168Z" fill="#D64773"/>
</svg>
