<svg width="152" height="130" viewBox="0 0 152 130" fill="none" xmlns="http://www.w3.org/2000/svg">
<g clip-path="url(#clip0)">
<path opacity="0.3" d="M134.631 40.2517C135.414 32.3228 137.253 24.8326 133.983 17.2411C127.989 3.23902 109.871 -4.18377 95.8046 2.463C88.6184 5.83699 82.454 10.763 74.5526 12.585C53.1642 17.4435 20.1622 -8.6037 8.51446 21.7285C4.5297 32.1204 6.13041 45.8526 13.3507 54.5575C15.6666 57.3579 18.4934 59.7872 20.2303 62.9587C24.9303 71.6974 18.2891 81.2795 15.2579 89.4446C8.13982 108.71 34.9774 119.338 49.5541 121.329C73.633 124.568 93.5228 97.2722 117.465 108.406C134.154 116.167 148.799 97.2722 145.733 78.3779C143.724 65.9953 133.575 54.1863 134.528 41.5676C134.562 41.129 134.596 40.6904 134.631 40.2517Z" fill="#D64773"/>
<path d="M19.9919 45.3802C26.4812 45.3802 31.7419 40.1687 31.7419 33.74C31.7419 27.3112 26.4812 22.0997 19.9919 22.0997C13.5026 22.0997 8.24197 27.3112 8.24197 33.74C8.24197 40.1687 13.5026 45.3802 19.9919 45.3802Z" fill="white" stroke="#111828" stroke-miterlimit="10" stroke-linecap="round" stroke-linejoin="round"/>
<path d="M19.1064 44.1993C25.5957 44.1993 30.8564 38.9878 30.8564 32.559C30.8564 26.1303 25.5957 20.9188 19.1064 20.9188C12.6171 20.9188 7.35648 26.1303 7.35648 32.559C7.35648 38.9878 12.6171 44.1993 19.1064 44.1993Z" fill="white" stroke="#111828" stroke-miterlimit="10" stroke-linecap="round" stroke-linejoin="round"/>
<path d="M19.1064 43.0522C24.9562 43.0522 29.6984 38.3543 29.6984 32.5591C29.6984 26.7639 24.9562 22.066 19.1064 22.066C13.2566 22.066 8.51443 26.7639 8.51443 32.5591C8.51443 38.3543 13.2566 43.0522 19.1064 43.0522Z" fill="#111828" stroke="#111828" stroke-miterlimit="10" stroke-linecap="round" stroke-linejoin="round"/>
<path d="M17.8804 24.6976C17.8804 24.6976 16.7224 21.796 14.679 19.7716C12.6355 17.7472 4.29133 16.4313 4.29133 16.4313C4.29133 16.4313 6.02828 18.0171 7.93552 20.6151C9.84275 23.2131 16.1094 29.1513 16.1094 29.1513C16.1094 29.1513 13.0442 26.5533 10.2514 26.2497C7.49276 25.9797 0.476856 27.4306 0.0341044 27.4306C-0.408647 27.4306 2.65656 28.5777 4.87031 29.5899C7.08407 30.6021 15.5304 31.4793 15.5304 31.4793C15.5304 31.4793 11.8862 32.4915 9.4 33.3688C6.91378 34.246 4.56379 40.5891 4.56379 40.5891C4.56379 40.5891 7.76523 37.6875 10.558 36.979C13.3167 36.2704 17.2674 34.9546 17.2674 34.9546C17.2674 34.9546 14.7811 37.6875 14.2022 39.5769C13.6232 41.4664 14.0659 45.7851 14.0659 45.7851C14.0659 45.7851 15.3942 41.7363 16.9949 40.1505C18.5956 38.5647 20.3666 35.7981 20.3666 35.7981C20.3666 35.7981 21.3883 37.3838 22.5463 39.8468C23.7043 42.3099 24.4536 45.92 24.4536 45.92C24.4536 45.92 26.3608 41.8712 26.1905 39.8468C26.0543 37.8224 23.8405 34.2123 23.8405 34.2123C23.8405 34.2123 25.305 33.2001 27.4847 34.0773C29.6644 34.9546 33.4789 38.5647 33.4789 38.5647C33.4789 38.5647 32.5934 33.7737 31.1289 31.918C29.6644 30.0285 23.3978 29.4549 23.3978 29.4549C23.3978 29.4549 26.9057 27.4305 29.0854 26.9919C31.2651 26.5533 34.1941 27.5655 34.1941 27.5655C34.1941 27.5655 30.8564 22.9431 28.234 22.6732C25.6115 22.3696 21.6608 26.4521 21.6608 26.4521C21.6608 26.4521 22.5463 22.0996 22.8188 20.6488C23.1253 19.198 22.5123 15.5878 22.5123 15.5878C22.5123 15.5878 20.9115 16.4651 19.0043 19.198C17.1311 21.9309 17.8804 24.6976 17.8804 24.6976Z" fill="#1ABC9C"/>
<path opacity="0.5" d="M17.8804 24.6976C17.8804 24.6976 16.7224 21.796 14.679 19.7716C12.6355 17.7472 4.29133 16.4313 4.29133 16.4313C4.29133 16.4313 6.02828 18.0171 7.93552 20.6151C9.84275 23.2131 16.1094 29.1513 16.1094 29.1513C16.1094 29.1513 13.0442 26.5533 10.2514 26.2497C7.49276 25.9797 0.476856 27.4306 0.0341044 27.4306C-0.408647 27.4306 2.65656 28.5777 4.87031 29.5899C7.08407 30.6021 15.5304 31.4793 15.5304 31.4793C15.5304 31.4793 11.8862 32.4915 9.4 33.3688C6.91378 34.246 4.56379 40.5891 4.56379 40.5891C4.56379 40.5891 7.76523 37.6875 10.558 36.979C13.3167 36.2704 17.2674 34.9546 17.2674 34.9546C17.2674 34.9546 14.7811 37.6875 14.2022 39.5769C13.6232 41.4664 14.0659 45.7851 14.0659 45.7851C14.0659 45.7851 15.3942 41.7363 16.9949 40.1505C18.5956 38.5647 20.3666 35.7981 20.3666 35.7981C20.3666 35.7981 21.3883 37.3838 22.5463 39.8468C23.7043 42.3099 24.4536 45.92 24.4536 45.92C24.4536 45.92 26.3608 41.8712 26.1905 39.8468C26.0543 37.8224 23.8405 34.2123 23.8405 34.2123C23.8405 34.2123 25.305 33.2001 27.4847 34.0773C29.6644 34.9546 33.4789 38.5647 33.4789 38.5647C33.4789 38.5647 32.5934 33.7737 31.1289 31.918C29.6644 30.0285 23.3978 29.4549 23.3978 29.4549C23.3978 29.4549 26.9057 27.4305 29.0854 26.9919C31.2651 26.5533 34.1941 27.5655 34.1941 27.5655C34.1941 27.5655 30.8564 22.9431 28.234 22.6732C25.6115 22.3696 21.6608 26.4521 21.6608 26.4521C21.6608 26.4521 22.5463 22.0996 22.8188 20.6488C23.1253 19.198 22.5123 15.5878 22.5123 15.5878C22.5123 15.5878 20.9115 16.4651 19.0043 19.198C17.1311 21.9309 17.8804 24.6976 17.8804 24.6976Z" fill="#111828"/>
<path d="M20.7412 20.2777C20.8434 19.8728 20.9455 19.4342 21.0818 19.0293" stroke="#111828" stroke-width="0.5" stroke-miterlimit="10" stroke-linecap="round" stroke-linejoin="round"/>
<path d="M11.0007 20.2776C12.363 21.2561 14.0659 22.6394 14.9514 23.8203C16.5521 25.9797 19.7535 30.6358 19.7535 30.6358C19.7535 30.6358 19.5492 26.0472 20.5028 21.3573" stroke="#111828" stroke-width="0.5" stroke-miterlimit="10" stroke-linecap="round" stroke-linejoin="round"/>
<path d="M8.95718 18.8943C8.95718 18.8943 9.39994 19.1643 10.013 19.6029" stroke="#111828" stroke-width="0.5" stroke-miterlimit="10" stroke-linecap="round" stroke-linejoin="round"/>
<path d="M19.7535 30.6358C19.7535 30.6358 25.3049 25.1362 27.6549 24.6976C30.0049 24.259 32.0484 26.0135 32.0484 26.0135" stroke="#111828" stroke-width="0.5" stroke-miterlimit="10" stroke-linecap="round" stroke-linejoin="round"/>
<path d="M9.84269 35.2245C8.48038 36.068 8.3782 36.5741 8.3782 36.5741" stroke="#111828" stroke-width="0.5" stroke-miterlimit="10" stroke-linecap="round" stroke-linejoin="round"/>
<path d="M31.8781 35.6968C31.8781 35.6968 30.9926 33.5375 27.9274 32.5253C24.8622 31.5131 20.026 31.3781 20.026 31.3781C20.026 31.3781 13.2825 33.5712 10.7963 34.7184" stroke="#111828" stroke-width="0.5" stroke-miterlimit="10" stroke-linecap="round" stroke-linejoin="round"/>
<path d="M17.097 30.5346C18.7318 31.007 20.06 31.3444 20.06 31.3444" stroke="#111828" stroke-width="0.5" stroke-miterlimit="10" stroke-linecap="round" stroke-linejoin="round"/>
<path d="M6.81155 27.9366C8.41227 28.0379 10.4557 28.2403 11.5796 28.7127C12.4992 29.1175 14.3383 29.6911 16.0412 30.1972" stroke="#111828" stroke-width="0.5" stroke-miterlimit="10" stroke-linecap="round" stroke-linejoin="round"/>
<path d="M4.56372 27.8691C4.56372 27.8691 5.10865 27.8691 5.89197 27.9031" stroke="#111828" stroke-width="0.5" stroke-miterlimit="10" stroke-linecap="round" stroke-linejoin="round"/>
<path d="M19.7535 32.2216C19.7535 32.2216 15.6666 38.2948 15.36 39.7456C15.0535 41.1964 15.0535 42.3436 15.0535 42.3436" stroke="#111828" stroke-width="0.5" stroke-miterlimit="10" stroke-linecap="round" stroke-linejoin="round"/>
<path d="M21.5926 34.111C22.376 35.1232 23.3296 36.4728 23.7042 37.5525C24.4194 39.5769 24.7259 41.6013 24.7259 41.6013" stroke="#111828" stroke-width="0.5" stroke-miterlimit="10" stroke-linecap="round" stroke-linejoin="round"/>
<path d="M20.3325 32.6603C20.3325 32.6603 20.6731 33.0314 21.1158 33.5713" stroke="#111828" stroke-width="0.5" stroke-miterlimit="10" stroke-linecap="round" stroke-linejoin="round"/>
<path d="M16.0071 25.946C16.0071 25.946 15.2579 22.9094 15.7347 20.109C16.2115 17.2749 22.2057 11.4041 22.2057 11.4041C22.2057 11.4041 21.7289 13.6984 21.6948 16.9375C21.6948 20.1428 20.06 28.6115 20.06 28.6115C20.06 28.6115 21.0136 24.7314 23.0912 22.8757C25.1687 21.02 31.7078 18.1521 32.0824 17.9159C32.423 17.646 30.6179 20.3789 29.46 22.4708C28.268 24.4952 21.8991 30.096 21.8991 30.096C21.8991 30.096 25.4752 28.8139 27.9955 28.0716C30.5158 27.3294 36.1694 31.1757 36.1694 31.1757C36.1694 31.1757 31.8781 30.7034 29.1875 31.7156C26.497 32.7278 22.5462 33.9424 22.5462 33.9424C22.5462 33.9424 26.1904 34.7522 27.7571 35.9331C29.3237 37.114 31.5375 40.8928 31.5375 40.8928C31.5375 40.8928 28.0977 38.3623 25.8499 37.9912C23.602 37.6201 20.5709 36.4054 20.5709 36.4054C20.5709 36.4054 20.6731 38.2949 21.1839 40.9603C21.6948 43.6258 23.2274 46.9998 23.2274 46.9998C23.2274 46.9998 19.3108 44.8067 18.2209 43.0859C17.1311 41.3652 16.7905 37.1477 16.7905 37.1477C16.7905 37.1477 15.0195 37.1814 13.7253 39.1383C12.4651 41.0953 11.5115 46.2575 11.5115 46.2575C11.5115 46.2575 9.39993 41.8713 9.5021 39.5095C9.53616 37.114 14.3043 33.0314 14.3043 33.0314C14.3043 33.0314 10.2514 33.4026 8.24197 34.3135C6.1985 35.2245 4.42749 37.7213 4.42749 37.7213C4.42749 37.7213 4.42749 32.0192 6.40284 30.2647C8.3782 28.5103 13.9637 29.5225 13.9637 29.5225C13.9637 29.5225 10.6941 26.4859 9.60428 25.5074C8.51443 24.4952 6.84559 21.2224 6.84559 21.2224C6.84559 21.2224 8.65066 20.9863 11.818 22.1334C14.9854 23.2806 16.0071 25.946 16.0071 25.946Z" fill="#1ABC9C"/>
<path d="M11.0688 24.0228C10.7282 23.7529 10.4217 23.483 10.0811 23.2131" stroke="#111828" stroke-width="0.5" stroke-miterlimit="10" stroke-linecap="round" stroke-linejoin="round"/>
<path d="M19.0042 18.3883C18.4593 19.9741 17.8803 22.066 17.8803 23.5505C17.8463 26.2497 17.9825 31.8505 17.9825 31.8505C17.9825 31.8505 15.4281 28.0042 11.8861 24.7314" stroke="#111828" stroke-width="0.5" stroke-miterlimit="10" stroke-linecap="round" stroke-linejoin="round"/>
<path d="M19.8216 16.0939C19.8216 16.0939 19.6173 16.5663 19.3789 17.2748" stroke="#111828" stroke-width="0.5" stroke-miterlimit="10" stroke-linecap="round" stroke-linejoin="round"/>
<path d="M17.9484 31.8505C17.9484 31.8505 10.2173 30.6022 8.03761 31.5806C5.89197 32.5928 5.24487 35.1571 5.24487 35.1571" stroke="#111828" stroke-width="0.5" stroke-miterlimit="10" stroke-linecap="round" stroke-linejoin="round"/>
<path d="M28.7107 29.8599C30.3114 29.7587 30.686 30.0961 30.686 30.0961" stroke="#111828" stroke-width="0.5" stroke-miterlimit="10" stroke-linecap="round" stroke-linejoin="round"/>
<path d="M11.1028 42.9847C11.1028 42.9847 10.5239 40.7241 12.4311 38.1261C14.3383 35.5282 18.1528 32.6265 18.1528 32.6265C18.1528 32.6265 24.9303 30.5009 27.6209 29.9948" stroke="#111828" stroke-width="0.5" stroke-miterlimit="10" stroke-linecap="round" stroke-linejoin="round"/>
<path d="M20.06 30.231C19.0042 31.5469 18.1528 32.5928 18.1528 32.5928" stroke="#111828" stroke-width="0.5" stroke-miterlimit="10" stroke-linecap="round" stroke-linejoin="round"/>
<path d="M26.9056 22.2009C25.6796 23.1794 24.147 24.5627 23.4999 25.6087C22.989 26.4522 21.831 27.9705 20.7412 29.3875" stroke="#111828" stroke-width="0.5" stroke-miterlimit="10" stroke-linecap="round" stroke-linejoin="round"/>
<path d="M28.6766 20.8513C28.6766 20.8513 28.2339 21.155 27.6208 21.6273" stroke="#111828" stroke-width="0.5" stroke-miterlimit="10" stroke-linecap="round" stroke-linejoin="round"/>
<path d="M18.9021 33.1326C18.9021 33.1326 25.8158 35.6969 26.9057 36.7091C27.9955 37.7213 28.6767 38.666 28.6767 38.666" stroke="#111828" stroke-width="0.5" stroke-miterlimit="10" stroke-linecap="round" stroke-linejoin="round"/>
<path d="M18.5615 35.7643C18.5274 37.0465 18.5274 38.666 18.868 39.7794C19.481 41.8375 20.4347 43.6595 20.4347 43.6595" stroke="#111828" stroke-width="0.5" stroke-miterlimit="10" stroke-linecap="round" stroke-linejoin="round"/>
<path d="M18.663 33.8412C18.663 33.8412 18.5953 34.3135 18.5615 35.0221" stroke="#111828" stroke-width="0.5" stroke-miterlimit="10" stroke-linecap="round" stroke-linejoin="round"/>
<path d="M115.592 103.521H39.0643C36.8846 103.521 35.0796 101.766 35.0796 99.5731V49.9753C35.0796 47.9847 36.7143 46.3652 38.7237 46.3652H115.933C117.942 46.3652 119.577 47.9847 119.577 49.9753V99.5731C119.577 101.766 117.772 103.521 115.592 103.521Z" fill="white" stroke="#111828" stroke-miterlimit="10" stroke-linecap="round" stroke-linejoin="round"/>
<path d="M66.9917 52.0334H62.2236V55.1375H66.9917V52.0334Z" fill="#111828"/>
<path d="M51.5976 71.0965H47.17V75.449H51.5976V71.0965Z" fill="#111828"/>
<path d="M71.1127 55.8461H66.6511V60.1985H71.1127V55.8461Z" fill="#111828"/>
<path d="M61.5084 52.0334H56.7403V55.1375H61.5084V52.0334Z" fill="#111828"/>
<path d="M76.2895 55.8461H71.8279V60.1985H76.2895V55.8461Z" fill="#111828"/>
<path d="M72.5091 52.0334H67.741V55.1375H72.5091V52.0334Z" fill="#111828"/>
<path d="M48.9411 66.0355H40.5628V70.388H48.9411V66.0355Z" fill="#111828"/>
<path d="M60.691 55.8461H56.2294V60.1985H60.691V55.8461Z" fill="#111828"/>
<path d="M46.4208 71.0965H40.5628V75.449H46.4208V71.0965Z" fill="#111828"/>
<path d="M78.0264 52.0334H73.2583V55.1375H78.0264V52.0334Z" fill="#111828"/>
<path d="M50.3034 55.8461H45.8418V60.1985H50.3034V55.8461Z" fill="#111828"/>
<path d="M50.4737 52.0334H45.7056V55.1375H50.4737V52.0334Z" fill="#111828"/>
<path d="M55.991 52.0334H51.2229V55.1375H55.991V52.0334Z" fill="#111828"/>
<path d="M55.5142 55.8461H51.0526V60.1985H55.5142V55.8461Z" fill="#111828"/>
<path d="M65.9019 55.8461H61.4403V60.1985H65.9019V55.8461Z" fill="#111828"/>
<path d="M100.028 52.0334H95.2597V55.1375H100.028V52.0334Z" fill="#111828"/>
<path d="M105.545 52.0334H100.777V55.1375H105.545V52.0334Z" fill="#111828"/>
<path d="M102.31 55.8461H97.8481V60.1985H102.31V55.8461Z" fill="#111828"/>
<path d="M107.486 55.8461H103.025V60.1985H107.486V55.8461Z" fill="#111828"/>
<path d="M115.694 71.0965H109.155V75.449H115.694V71.0965Z" fill="#111828"/>
<path d="M111.062 52.0334H106.294V55.1375H111.062V52.0334Z" fill="#111828"/>
<path d="M45.0925 55.8461H40.5628V60.1985H45.0925V55.8461Z" fill="#111828"/>
<path d="M83.5097 52.0334H78.7416V55.1375H83.5097V52.0334Z" fill="#111828"/>
<path d="M89.0271 52.0334H84.259V55.1375H89.0271V52.0334Z" fill="#111828"/>
<path d="M86.7112 55.8461H82.2496V60.1985H86.7112V55.8461Z" fill="#111828"/>
<path d="M97.0988 55.8461H92.6372V60.1985H97.0988V55.8461Z" fill="#111828"/>
<path d="M81.5003 55.8461H77.0388V60.1985H81.5003V55.8461Z" fill="#111828"/>
<path d="M91.888 55.8461H87.4264V60.1985H91.888V55.8461Z" fill="#111828"/>
<path d="M94.5444 52.0334H89.7764V55.1375H94.5444V52.0334Z" fill="#111828"/>
<path d="M87.767 71.0965H83.3394V75.449H87.767V71.0965Z" fill="#111828"/>
<path d="M110.926 66.0355H106.499V70.388H110.926V66.0355Z" fill="#111828"/>
<path d="M105.749 66.0355H101.322V70.388H105.749V66.0355Z" fill="#111828"/>
<path d="M108.406 71.0965H103.978V75.449H108.406V71.0965Z" fill="#111828"/>
<path d="M103.263 71.0965H98.8358V75.449H103.263V71.0965Z" fill="#111828"/>
<path d="M92.9097 71.0965H88.4822V75.449H92.9097V71.0965Z" fill="#111828"/>
<path d="M98.0865 71.0965H93.659V75.449H98.0865V71.0965Z" fill="#111828"/>
<path d="M100.573 66.0355H96.1452V70.388H100.573V66.0355Z" fill="#111828"/>
<path d="M95.43 66.0355H91.0024V70.388H95.43V66.0355Z" fill="#111828"/>
<path d="M115.694 52.0334H111.778V55.1375H115.694V52.0334Z" fill="#111828"/>
<path d="M44.9904 52.0334H40.5628V55.1375H44.9904V52.0334Z" fill="#111828"/>
<path d="M115.728 76.1913H40.5628V80.7124H115.728V76.1913Z" fill="#111828"/>
<path d="M115.694 55.8461H108.236V60.1985H115.694V55.8461Z" fill="#111828"/>
<path d="M115.694 66.0355H111.641V70.388H115.694V66.0355Z" fill="#111828"/>
<path d="M110.415 65.2595H109.666V60.9408H105.239V65.2595H104.489V60.9408H100.062V65.2595H99.3125V60.9408H94.9191V65.2595H94.1698V60.9408H89.7423V65.2595H88.993V60.9408H84.5655V65.2595H83.8162V60.9408H79.4228V65.2595H78.6735V60.9408H74.246V65.2595H73.4967V60.9408H69.0692V65.2595H68.3199V60.9408H63.9265V65.2595H63.1772V60.9408H58.7497V65.2595H58.0004V60.9408H53.5729V65.2595H52.8236V60.9408H48.4302V65.2595H47.6809V60.9408H40.5628V65.2595H115.694V60.9408H110.415V65.2595Z" fill="#111828"/>
<path d="M74.7569 66.0355H70.3294V70.388H74.7569V66.0355Z" fill="#111828"/>
<path d="M90.2532 66.0355H85.8257V70.388H90.2532V66.0355Z" fill="#111828"/>
<path d="M64.4374 66.0355H60.0099V70.388H64.4374V66.0355Z" fill="#111828"/>
<path d="M67.0939 71.0965H62.6664V75.449H67.0939V71.0965Z" fill="#111828"/>
<path d="M69.5801 66.0355H65.1526V70.388H69.5801V66.0355Z" fill="#111828"/>
<path d="M59.2606 66.0355H54.8331V70.388H59.2606V66.0355Z" fill="#111828"/>
<path d="M56.7744 71.0965H52.3468V75.449H56.7744V71.0965Z" fill="#111828"/>
<path d="M61.9171 71.0965H57.4896V75.449H61.9171V71.0965Z" fill="#111828"/>
<path d="M79.9337 66.0355H75.5062V70.388H79.9337V66.0355Z" fill="#111828"/>
<path d="M82.5902 71.0965H78.1627V75.449H82.5902V71.0965Z" fill="#111828"/>
<path d="M85.0764 66.0355H80.6489V70.388H85.0764V66.0355Z" fill="#111828"/>
<path d="M72.2707 71.0965H67.8431V75.449H72.2707V71.0965Z" fill="#111828"/>
<path d="M77.4134 71.0965H72.9859V75.449H77.4134V71.0965Z" fill="#111828"/>
<path d="M54.0838 66.0355H49.6563V70.388H54.0838V66.0355Z" fill="#111828"/>
<path d="M124.379 15.3582H29.8346C27.8593 15.3582 26.3948 17.2139 26.9057 19.137L33.8194 44.6444C34.16 45.9603 35.3861 46.8713 36.7484 46.8713H46.3867V48.6257H108.27V46.8375H117.465C118.828 46.8375 120.02 45.9265 120.394 44.6107L127.308 19.1033C127.819 17.2139 126.389 15.3582 124.379 15.3582Z" fill="#111828" stroke="#111828" stroke-miterlimit="10" stroke-linecap="round" stroke-linejoin="round"/>
<path d="M113.685 44.6107H40.5288L33.2064 18.496H121.007L113.685 44.6107Z" fill="white" stroke="#111828" stroke-miterlimit="10" stroke-linecap="round" stroke-linejoin="round"/>
<path d="M45.365 33.1391V33.4765H44.0708V33.1391H45.365Z" fill="#111828"/>
<path d="M46.9657 33.1391V33.4765H45.6715V33.1391H46.9657Z" fill="#111828"/>
<path d="M48.6005 33.1391V33.4765H47.3063V33.1391H48.6005Z" fill="#111828"/>
<path d="M50.2012 33.1391V33.4765H48.907V33.1391H50.2012Z" fill="#111828"/>
<path d="M51.8019 33.1391V33.4765H50.5077V33.1391H51.8019Z" fill="#111828"/>
<path d="M53.4027 33.1391V33.4765H52.1085V33.1391H53.4027Z" fill="#111828"/>
<path d="M55.0034 33.1391V33.4765H53.7092V33.1391H55.0034Z" fill="#111828"/>
<path d="M56.6041 34.9273L55.1736 31.1484H55.5142L56.9447 34.8936H56.6041V34.9273Z" fill="#111828"/>
<path d="M44.0708 27.6732V28.0106H42.7766V27.6732H44.0708Z" fill="#111828"/>
<path d="M45.6715 27.6732V28.0106H44.3773V27.6732H45.6715Z" fill="#111828"/>
<path d="M47.2723 27.6732V28.0106H45.9781V27.6732H47.2723Z" fill="#111828"/>
<path d="M48.907 27.6732V28.0106H47.6128V27.6732H48.907Z" fill="#111828"/>
<path d="M50.5077 27.6732V28.0106H49.2135V27.6732H50.5077Z" fill="#111828"/>
<path d="M53.2324 27.6732V28.0106H51.9382V27.6732H53.2324Z" fill="#111828"/>
<path d="M54.8331 27.6732V28.0106H53.5389V27.6732H54.8331Z" fill="#111828"/>
<path d="M56.4338 27.6732V28.0106H55.1396V27.6732H56.4338Z" fill="#111828"/>
<path d="M58.0345 27.6732V28.0106H56.7403V27.6732H58.0345Z" fill="#111828"/>
<path d="M59.6352 27.6732V28.0106H58.341V27.6732H59.6352Z" fill="#111828"/>
<path d="M61.236 27.6732V28.0106H59.9418V27.6732H61.236Z" fill="#111828"/>
<path d="M62.8707 27.6732V28.0106H61.5765V27.6732H62.8707Z" fill="#111828"/>
<path d="M65.5613 27.6732V28.0106H64.2671V27.6732H65.5613Z" fill="#111828"/>
<path d="M67.1961 27.6732V28.0106H65.9019V27.6732H67.1961Z" fill="#111828"/>
<path d="M68.7968 27.6732V28.0106H67.5026V27.6732H68.7968Z" fill="#111828"/>
<path d="M71.4873 27.6732V28.0106H70.1931V27.6732H71.4873Z" fill="#111828"/>
<path d="M73.1221 27.6732V28.0106H71.8279V27.6732H73.1221Z" fill="#111828"/>
<path d="M74.7228 27.6732V28.0106H73.4286V27.6732H74.7228Z" fill="#111828"/>
<path d="M80.7511 27.6732V28.0106H79.4569V27.6732H80.7511Z" fill="#111828"/>
<path d="M82.3518 27.6732V28.0106H81.0576V27.6732H82.3518Z" fill="#111828"/>
<path d="M83.9866 27.6732V28.0106H82.6924V27.6732H83.9866Z" fill="#111828"/>
<path d="M85.5873 27.6732V28.0106H84.2931V27.6732H85.5873Z" fill="#111828"/>
<path d="M87.188 27.6732V28.0106H85.8938V27.6732H87.188Z" fill="#111828"/>
<path d="M89.9126 27.6732V28.0106H88.6184V27.6732H89.9126Z" fill="#111828"/>
<path d="M91.5134 27.6732V28.0106H90.2191V27.6732H91.5134Z" fill="#111828"/>
<path d="M93.114 27.6732V28.0106H91.8199V27.6732H93.114Z" fill="#111828"/>
<path d="M95.8387 27.6732V28.0106H94.5445V27.6732H95.8387Z" fill="#111828"/>
<path d="M98.5292 27.6732V28.0106H97.235V27.6732H98.5292Z" fill="#111828"/>
<path d="M120.088 78.108L116.444 92.0426L119.883 93.0548L120.088 78.108Z" fill="white" stroke="#111828" stroke-miterlimit="10" stroke-linecap="round" stroke-linejoin="round"/>
<path d="M121.723 63.3973C121.723 63.3973 121.11 62.6551 121.314 61.2717C121.518 59.8884 123.187 59.5847 123.187 59.5847C123.187 59.5847 123.562 59.3148 124.89 59.8209C126.218 60.327 136.572 61.7103 143.179 62.5876C149.786 63.4648 151.932 62.8912 151.83 65.1518C151.728 67.4124 145.938 87.5889 145.836 88.2299C145.767 88.871 121.723 63.3973 121.723 63.3973Z" fill="white" stroke="#111828" stroke-miterlimit="10"/>
<path d="M149.52 67.1276L121.712 63.3938L117.215 96.2584L145.024 99.9921L149.52 67.1276Z" fill="white" stroke="#111828" stroke-miterlimit="10" stroke-linecap="round" stroke-linejoin="round"/>
<path d="M144.371 73.688L145.972 73.9242" stroke="#111828" stroke-width="0.5" stroke-miterlimit="10" stroke-linecap="round" stroke-linejoin="round"/>
<path d="M134.222 72.3384L143.077 73.5193" stroke="#111828" stroke-width="0.5" stroke-miterlimit="10" stroke-linecap="round" stroke-linejoin="round"/>
<path d="M123.494 70.8876L132.962 72.1697" stroke="#111828" stroke-width="0.5" stroke-miterlimit="10" stroke-linecap="round" stroke-linejoin="round"/>
<path d="M141.851 76.3197L145.597 76.8258" stroke="#111828" stroke-width="0.5" stroke-miterlimit="10" stroke-linecap="round" stroke-linejoin="round"/>
<path d="M123.119 73.8229L138.002 75.8136" stroke="#111828" stroke-width="0.5" stroke-miterlimit="10" stroke-linecap="round" stroke-linejoin="round"/>
<path d="M130.646 77.8043L145.188 79.7612" stroke="#111828" stroke-width="0.5" stroke-miterlimit="10" stroke-linecap="round" stroke-linejoin="round"/>
<path d="M122.71 76.7246L129.181 77.6018" stroke="#111828" stroke-width="0.5" stroke-miterlimit="10" stroke-linecap="round" stroke-linejoin="round"/>
<path d="M135.482 81.4144L144.78 82.6628" stroke="#111828" stroke-width="0.5" stroke-miterlimit="10" stroke-linecap="round" stroke-linejoin="round"/>
<path d="M127.581 80.3685L134.426 81.2795" stroke="#111828" stroke-width="0.5" stroke-miterlimit="10" stroke-linecap="round" stroke-linejoin="round"/>
<path d="M122.302 79.66L126.423 80.1998" stroke="#111828" stroke-width="0.5" stroke-miterlimit="10" stroke-linecap="round" stroke-linejoin="round"/>
<path d="M141.067 85.1596L144.371 85.5982" stroke="#111828" stroke-width="0.5" stroke-miterlimit="10" stroke-linecap="round" stroke-linejoin="round"/>
<path d="M121.893 82.5616L138.82 84.8559" stroke="#111828" stroke-width="0.5" stroke-miterlimit="10" stroke-linecap="round" stroke-linejoin="round"/>
<path d="M134.596 87.2515L143.996 88.4998" stroke="#111828" stroke-width="0.5" stroke-miterlimit="10" stroke-linecap="round" stroke-linejoin="round"/>
<path d="M121.518 85.497L132.996 87.049" stroke="#111828" stroke-width="0.5" stroke-miterlimit="10" stroke-linecap="round" stroke-linejoin="round"/>
<path d="M137.491 90.6255L143.588 91.4352" stroke="#111828" stroke-width="0.5" stroke-miterlimit="10" stroke-linecap="round" stroke-linejoin="round"/>
<path d="M125.128 88.9385L135.993 90.423" stroke="#111828" stroke-width="0.5" stroke-miterlimit="10" stroke-linecap="round" stroke-linejoin="round"/>
<path d="M121.11 88.3986L123.834 88.7698" stroke="#111828" stroke-width="0.5" stroke-miterlimit="10" stroke-linecap="round" stroke-linejoin="round"/>
<path d="M149.548 67.1425C149.548 67.1425 150.025 62.5538 151.728 64.4095" stroke="#111828" stroke-miterlimit="10" stroke-linecap="round" stroke-linejoin="round"/>
<path d="M140.114 102.434L140.08 105.336L138.377 102.941L131.497 80.0311L133.234 79.525L140.114 102.434Z" fill="white" stroke="#111828" stroke-miterlimit="10" stroke-linecap="round" stroke-linejoin="round"/>
<path d="M132.84 79.6323L131.893 79.9112L138.766 102.808L139.712 102.529L132.84 79.6323Z" fill="#FFB91D" stroke="#111828" stroke-width="0.5" stroke-miterlimit="10" stroke-linecap="round" stroke-linejoin="round"/>
<path d="M140.114 102.434L138.377 102.941L140.08 105.336L140.114 102.434Z" stroke="#111828" stroke-miterlimit="10" stroke-linecap="round" stroke-linejoin="round"/>
<path d="M139.228 104.155L140.08 105.336V103.885L139.228 104.155Z" fill="#111828" stroke="#111828" stroke-miterlimit="10" stroke-linecap="round" stroke-linejoin="round"/>
<path d="M131.599 77.2307C131.123 77.3656 130.85 77.8717 130.986 78.3441L131.497 80.0311L133.234 79.525L132.723 77.838C132.587 77.3319 132.076 77.062 131.599 77.2307Z" fill="white" stroke="#111828" stroke-miterlimit="10" stroke-linecap="round" stroke-linejoin="round"/>
<path d="M131.599 77.2307C131.123 77.3656 130.85 77.8717 130.986 78.3441L131.225 79.1539L132.962 78.6478L132.723 77.838C132.587 77.3319 132.076 77.062 131.599 77.2307Z" fill="#111828" stroke="#111828" stroke-miterlimit="10" stroke-linecap="round" stroke-linejoin="round"/>
<path d="M45.8418 63.6673C45.6375 63.971 45.3991 64.2746 45.1947 64.612" stroke="white" stroke-miterlimit="10" stroke-linecap="round" stroke-linejoin="round"/>
<path d="M49.3838 59.6185C49.3838 59.6185 48.1918 60.6645 46.7614 62.4527" stroke="white" stroke-miterlimit="10" stroke-linecap="round" stroke-linejoin="round"/>
<path d="M45.5353 61.4067C45.5353 61.4067 43.8324 63.8023 43.015 65.4555" stroke="white" stroke-miterlimit="10" stroke-linecap="round" stroke-linejoin="round"/>
<path d="M69.546 68.8295C69.3417 69.1331 69.1033 69.4368 68.8989 69.7742" stroke="white" stroke-miterlimit="10" stroke-linecap="round" stroke-linejoin="round"/>
<path d="M73.1221 64.7807C73.1221 64.7807 71.9301 65.8266 70.4997 67.6149" stroke="white" stroke-miterlimit="10" stroke-linecap="round" stroke-linejoin="round"/>
<path d="M69.2395 66.569C69.2395 66.569 67.5366 68.9645 66.7192 70.6178" stroke="white" stroke-miterlimit="10" stroke-linecap="round" stroke-linejoin="round"/>
<path d="M103.536 60.4957C103.229 60.2933 102.889 60.0909 102.548 59.8547" stroke="white" stroke-miterlimit="10" stroke-linecap="round" stroke-linejoin="round"/>
<path d="M107.691 63.9372C107.691 63.9372 106.601 62.7563 104.796 61.373" stroke="white" stroke-miterlimit="10" stroke-linecap="round" stroke-linejoin="round"/>
<path d="M105.818 60.1583C105.818 60.1583 103.365 58.5051 101.663 57.7291" stroke="white" stroke-miterlimit="10" stroke-linecap="round" stroke-linejoin="round"/>
<path d="M68.4902 81.3808C68.32 82.6629 68.0475 84.4174 67.775 85.4633" stroke="#111828" stroke-miterlimit="10" stroke-linecap="round" stroke-linejoin="round"/>
<path d="M68.6942 79.8625C68.6942 79.8625 68.6603 80.0987 68.6265 80.5036" stroke="#111828" stroke-miterlimit="10" stroke-linecap="round" stroke-linejoin="round"/>
<path d="M69.6141 83.4727C69.6141 83.4727 68.933 85.7332 68.2518 87.0828" stroke="#111828" stroke-miterlimit="10" stroke-linecap="round" stroke-linejoin="round"/>
<path d="M86.6431 85.2609C86.6431 85.2609 86.8815 88.1963 88.4481 89.7483" stroke="#111828" stroke-miterlimit="10" stroke-linecap="round" stroke-linejoin="round"/>
<path d="M86.4047 88.1962C86.4047 88.1962 87.0858 90.2206 88.4481 91.1316" stroke="#111828" stroke-miterlimit="10" stroke-linecap="round" stroke-linejoin="round"/>
<path d="M40.1541 103.818C40.1541 103.818 41.6527 102.603 41.6527 92.2451C41.6527 81.8869 43.3896 74.3291 45.5353 71.0226C47.6809 67.7161 49.6903 66.3665 50.6099 66.3665C51.5295 66.3665 50.8824 67.5474 49.5541 69.3019C48.2258 71.0226 46.9998 71.9674 46.4889 74.093C45.944 76.2186 45.944 78.884 46.6251 78.6141C47.3063 78.3442 48.3621 73.047 49.3157 71.0564C50.2693 69.0657 52.5171 66.5352 53.8794 65.3543C55.2077 64.1734 58.1707 60.5633 59.499 61.508C60.8272 62.4527 60.0439 63.7685 59.2265 64.3084C58.4091 64.8482 55.2077 68.0198 53.7432 70.0104C52.2787 72.0011 51.3251 77.0621 52.1425 77.1633C52.9599 77.2983 55.3439 69.8755 56.7062 68.256C58.0345 66.6702 63.4156 62.284 64.6077 62.149C65.7997 62.0141 65.9359 63.8698 64.8801 64.8145C63.8243 65.7592 60.1801 69.7405 58.9881 72.1023C57.7961 74.4978 57.2512 78.884 58.307 77.8044C59.3627 76.7584 61.1338 72.3722 62.5982 70.8877C64.0627 69.4369 68.4902 64.7807 69.5801 65.3206C70.6359 65.8604 70.3975 67.1763 69.4439 68.121C68.4902 69.0657 64.8801 74.093 63.9606 76.7584C63.0069 79.4239 61.9511 86.8467 62.4961 85.8007C63.041 84.7548 64.7779 79.2889 65.6975 77.0283C66.6511 74.7678 68.5243 73.7218 68.7627 74.7678C69.0352 75.8137 68.4902 76.3535 67.8091 78.7491C67.1279 81.1446 67.1279 87.5215 65.1185 91.0979C63.1091 94.6743 55.1055 102.3 54.0497 104.965C52.9939 107.63 51.2911 110.228 51.2911 110.228" fill="white"/>
<path d="M114.605 104.729C114.605 104.729 113.038 102.637 113.038 92.2787C113.038 81.9206 111.301 74.3628 109.155 71.0563C107.01 67.7498 105 66.4002 104.081 66.4002C103.127 66.4002 103.808 67.5811 105.136 69.3356C106.465 71.0563 107.691 72.001 108.202 74.1267C108.747 76.2523 108.747 78.9177 108.065 78.6478C107.384 78.3779 106.328 73.0807 105.375 71.0901C104.421 69.0994 102.173 66.5689 100.811 65.388C99.4829 64.2071 96.5198 60.5969 95.1916 61.5417C93.8633 62.4864 94.6466 63.8022 95.464 64.3421C96.2814 64.8819 99.4829 68.0535 100.947 70.0441C102.412 72.0348 103.365 77.0958 102.548 77.197C101.731 77.332 99.3466 69.9092 97.9843 68.2896C96.6561 66.7039 91.2749 62.3177 90.0829 62.1827C88.8909 62.0478 88.7546 63.9035 89.8104 64.8482C90.8662 65.7929 94.5104 69.7742 95.7024 72.136C96.8945 74.5315 97.4394 78.9177 96.3836 77.8381C95.3278 76.7921 93.5568 72.4059 92.0923 70.9214C90.6278 69.4705 86.2003 64.8144 85.1105 65.3543C84.0547 65.8941 84.2931 67.21 85.2467 68.1547C86.2003 69.0994 89.8104 74.1267 90.73 76.7921C91.6836 79.4576 92.7394 86.8804 92.1945 85.8344C91.6496 84.7885 89.9126 79.3226 88.993 77.062C88.0394 74.8015 86.1662 73.7555 85.9278 74.8015C85.6554 75.8474 86.2003 76.3872 86.8815 78.7828C87.5626 81.1783 87.5626 87.5552 89.572 91.1316C91.5814 94.708 99.3466 101.658 100.436 104.324C101.492 106.989 103.468 111.139 103.468 111.139" fill="white"/>
<path d="M39.6433 106.382C39.6433 106.382 41.6527 99.8702 41.6527 89.5121C41.6527 79.1539 43.3896 71.5962 45.5353 68.2897C47.6809 64.9831 49.6903 63.6336 50.6099 63.6336C51.5295 63.6336 50.8824 64.8144 49.5541 66.5689C48.2258 68.2897 46.9998 69.2344 46.4889 71.36C45.944 73.4856 45.944 76.1511 46.6251 75.8811C47.3063 75.6112 48.3621 70.3141 49.3157 68.3234C50.2693 66.3327 52.5171 63.8023 53.8794 62.6214C55.2077 61.4405 58.1707 57.8303 59.499 58.775C60.8272 59.7197 60.0439 61.0356 59.2265 61.5754C58.4091 62.1153 55.2077 65.2868 53.7432 67.2775C52.2787 69.2681 51.3251 74.3291 52.1425 74.4303C52.9599 74.5653 55.3439 67.1425 56.7062 65.523C58.0686 63.9035 63.4156 59.551 64.6077 59.4161C65.7997 59.2811 65.9359 61.1368 64.8801 62.0815C63.8243 63.0262 60.1801 67.0075 58.9881 69.3693C57.7961 71.7649 57.2512 76.1511 58.307 75.0714C59.3628 74.0255 61.1338 69.6393 62.5982 68.1547C64.0627 66.7039 68.4902 62.0478 69.5801 62.5876C70.6359 63.1275 70.3975 64.4433 69.4439 65.388C68.4902 66.3327 64.8801 71.36 63.9606 74.0255C63.0069 76.6909 61.9511 84.1137 62.4961 83.0678C63.041 82.0218 64.7779 76.5559 65.6975 74.2954C66.6511 72.0348 68.5243 70.9889 68.7627 72.0348C69.0352 73.0807 68.4902 73.6206 67.8091 76.0161C67.1279 78.4116 67.1279 84.7885 65.1185 88.3649C63.1091 91.9414 55.3439 101.625 54.2541 104.29C53.1983 106.956 50.7802 112.793 50.7802 112.793" fill="white"/>
<path d="M39.6433 106.382C39.6433 106.382 41.6527 99.8702 41.6527 89.5121C41.6527 79.1539 43.3896 71.5962 45.5353 68.2897C47.6809 64.9831 49.6903 63.6336 50.6099 63.6336C51.5295 63.6336 50.8824 64.8144 49.5541 66.5689C48.2258 68.2897 46.9998 69.2344 46.4889 71.36C45.944 73.4856 45.944 76.1511 46.6251 75.8811C47.3063 75.6112 48.3621 70.3141 49.3157 68.3234C50.2693 66.3327 52.5171 63.8023 53.8794 62.6214C55.2077 61.4405 58.1707 57.8303 59.499 58.775C60.8272 59.7197 60.0439 61.0356 59.2265 61.5754C58.4091 62.1153 55.2077 65.2868 53.7432 67.2775C52.2787 69.2681 51.3251 74.3291 52.1425 74.4303C52.9599 74.5653 55.3439 67.1425 56.7062 65.523C58.0686 63.9035 63.4156 59.551 64.6077 59.4161C65.7997 59.2811 65.9359 61.1368 64.8801 62.0815C63.8243 63.0262 60.1801 67.0075 58.9881 69.3693C57.7961 71.7649 57.2512 76.1511 58.307 75.0714C59.3628 74.0255 61.1338 69.6393 62.5982 68.1547C64.0627 66.7039 68.4902 62.0478 69.5801 62.5876C70.6359 63.1275 70.3975 64.4433 69.4439 65.388C68.4902 66.3327 64.8801 71.36 63.9606 74.0255C63.0069 76.6909 61.9511 84.1137 62.4961 83.0678C63.041 82.0218 64.7779 76.5559 65.6975 74.2954C66.6511 72.0348 68.5243 70.9889 68.7627 72.0348C69.0352 73.0807 68.4902 73.6206 67.8091 76.0161C67.1279 78.4116 67.1279 84.7885 65.1185 88.3649C63.1091 91.9414 55.3439 101.625 54.2541 104.29C53.1983 106.956 50.7802 112.793 50.7802 112.793" stroke="#111828" stroke-miterlimit="10" stroke-linecap="round" stroke-linejoin="round"/>
<path d="M115.047 106.382C115.047 106.382 113.038 99.8702 113.038 89.5121C113.038 79.1539 111.301 71.5962 109.155 68.2897C107.01 64.9831 105 63.6336 104.081 63.6336C103.127 63.6336 103.808 64.8144 105.136 66.5689C106.465 68.2897 107.691 69.2344 108.202 71.36C108.747 73.4856 108.747 76.1511 108.065 75.8811C107.384 75.6112 106.328 70.3141 105.375 68.3234C104.421 66.3327 102.173 63.8023 100.811 62.6214C99.4829 61.4405 96.5198 57.8303 95.1916 58.775C93.8633 59.7197 94.6466 61.0356 95.464 61.5754C96.2814 62.1153 99.4829 65.2868 100.947 67.2775C102.412 69.2681 103.365 74.3291 102.548 74.4303C101.731 74.5653 99.3466 67.1425 97.9843 65.523C96.6561 63.9372 91.2749 59.551 90.0829 59.4161C88.8909 59.2811 88.7546 61.1368 89.8104 62.0815C90.8662 63.0262 94.5104 67.0075 95.7024 69.3693C96.8945 71.7649 97.4394 76.1511 96.3836 75.0714C95.3278 74.0255 93.5568 69.6393 92.0923 68.1547C90.6278 66.7039 86.2003 62.0478 85.1105 62.5876C84.0547 63.1275 84.2931 64.4433 85.2467 65.388C86.2003 66.3327 89.8104 71.36 90.73 74.0255C91.6836 76.6909 92.7394 84.1137 92.1945 83.0678C91.6496 82.0218 89.9126 76.5559 88.993 74.2954C88.0394 72.0348 86.1662 70.9889 85.9278 72.0348C85.6554 73.0807 86.2003 73.6206 86.8815 76.0161C87.5626 78.4116 87.5626 84.7885 89.572 88.3649C91.5814 91.9414 99.3466 101.625 100.436 104.29C101.492 106.956 103.91 112.793 103.91 112.793" fill="white"/>
<path d="M115.047 106.382C115.047 106.382 113.038 99.8702 113.038 89.5121C113.038 79.1539 111.301 71.5962 109.155 68.2897C107.01 64.9831 105 63.6336 104.081 63.6336C103.127 63.6336 103.808 64.8144 105.136 66.5689C106.465 68.2897 107.691 69.2344 108.202 71.36C108.747 73.4856 108.747 76.1511 108.065 75.8811C107.384 75.6112 106.328 70.3141 105.375 68.3234C104.421 66.3327 102.173 63.8023 100.811 62.6214C99.4829 61.4405 96.5198 57.8303 95.1916 58.775C93.8633 59.7197 94.6466 61.0356 95.464 61.5754C96.2814 62.1153 99.4829 65.2868 100.947 67.2775C102.412 69.2681 103.365 74.3291 102.548 74.4303C101.731 74.5653 99.3466 67.1425 97.9843 65.523C96.6561 63.9372 91.2749 59.551 90.0829 59.4161C88.8909 59.2811 88.7546 61.1368 89.8104 62.0815C90.8662 63.0262 94.5104 67.0075 95.7024 69.3693C96.8945 71.7649 97.4394 76.1511 96.3836 75.0714C95.3278 74.0255 93.5568 69.6393 92.0923 68.1547C90.6278 66.7039 86.2003 62.0478 85.1105 62.5876C84.0547 63.1275 84.2931 64.4433 85.2467 65.388C86.2003 66.3327 89.8104 71.36 90.73 74.0255C91.6836 76.6909 92.7394 84.1137 92.1945 83.0678C91.6496 82.0218 89.9126 76.5559 88.993 74.2954C88.0394 72.0348 86.1662 70.9889 85.9278 72.0348C85.6554 73.0807 86.2003 73.6206 86.8815 76.0161C87.5626 78.4116 87.5626 84.7885 89.572 88.3649C91.5814 91.9414 99.3466 101.625 100.436 104.29C101.492 106.956 103.91 112.793 103.91 112.793" stroke="#111828" stroke-miterlimit="10" stroke-linecap="round" stroke-linejoin="round"/>
<path d="M31.1629 126.626H51.5976C51.87 125.614 52.2106 124.467 52.6193 123.252C54.22 118.495 59.4309 112.523 59.4309 112.523C59.4309 112.523 54.4244 107.765 46.5911 105.37C38.7578 102.974 33.0361 103.683 33.0361 103.683C33.0361 103.683 34.8071 109.891 33.3767 116.841C32.3209 121.734 31.6397 124.838 31.1629 126.626Z" fill="#D64773" stroke="#111828" stroke-miterlimit="10" stroke-linecap="round" stroke-linejoin="round"/>
<path d="M102.957 126.626H124.175C123.494 124.872 122.029 121.093 120.565 117.28C118.555 112.118 119.373 105.167 118.555 105.167C117.738 105.167 108.713 104.56 104.319 105.977C99.8915 107.361 94.885 111.342 94.885 111.342C94.885 111.342 98.2908 115.121 100.709 119.878C101.765 122.004 102.48 124.5 102.957 126.626Z" fill="#D64773" stroke="#111828" stroke-miterlimit="10" stroke-linecap="round" stroke-linejoin="round"/>
<path d="M43.9346 107.799C43.7983 107.226 41.6186 108.103 41.6186 108.103C41.6186 108.103 42.3339 105.37 41.1759 105.37C40.0179 105.37 39.8817 107.394 39.8817 107.394C39.8817 107.394 37.702 106.517 37.702 107.833C37.702 109.115 39.1665 109.115 39.1665 109.115C39.1665 109.115 37.4295 111.274 38.7237 111.713C40.0179 112.152 40.9034 110.566 40.9034 110.566C40.9034 110.566 41.7889 112.017 42.9469 111.443C44.1049 110.869 43.2534 109.587 43.2534 109.587C43.2534 109.587 44.0708 108.373 43.9346 107.799ZM41.0056 109.959C40.5969 109.959 40.2904 109.689 40.2904 109.385C40.2904 109.081 40.631 108.811 41.0056 108.811C41.4143 108.811 41.7208 109.081 41.7208 109.385C41.7549 109.689 41.4143 109.959 41.0056 109.959ZM47.136 123.893C46.9998 123.32 44.8201 124.197 44.8201 124.197C44.8201 124.197 45.5353 121.464 44.3773 121.464C43.2194 121.464 43.0831 123.488 43.0831 123.488C43.0831 123.488 40.9034 122.611 40.9034 123.927C40.9034 125.209 42.3679 125.209 42.3679 125.209C42.3679 125.209 40.631 127.368 41.9252 127.807C43.2194 128.246 44.1049 126.66 44.1049 126.66C44.1049 126.66 44.9904 128.111 46.1483 127.537C47.3063 126.963 46.4548 125.681 46.4548 125.681C46.4548 125.681 47.2722 124.467 47.136 123.893ZM44.207 126.052C43.7983 126.052 43.4918 125.783 43.4918 125.479C43.4918 125.175 43.8324 124.905 44.207 124.905C44.6157 124.905 44.9222 125.175 44.9222 125.479C44.9563 125.783 44.6157 126.052 44.207 126.052ZM34.3303 126.052C34.194 125.479 32.0143 126.356 32.0143 126.356C32.0143 126.356 32.7295 123.623 31.5716 123.623C30.4136 123.623 30.2774 125.648 30.2774 125.648C30.2774 125.648 28.0977 124.77 28.0977 126.086C28.0977 127.368 29.5622 127.368 29.5622 127.368C29.5622 127.368 27.8252 129.528 29.1194 129.966C30.4136 130.405 31.2991 128.819 31.2991 128.819C31.2991 128.819 32.1846 130.27 33.3426 129.696C34.5006 129.123 33.6491 127.841 33.6491 127.841C33.6491 127.841 34.5006 126.626 34.3303 126.052ZM31.4354 128.212C31.0267 128.212 30.7201 127.942 30.7201 127.638C30.7201 127.335 31.0607 127.065 31.4354 127.065C31.844 127.065 32.1506 127.335 32.1506 127.638C32.1506 127.942 31.844 128.212 31.4354 128.212ZM50.1671 114.817C50.1671 114.817 50.6099 114.817 51.7679 114.817C52.9258 114.817 53.641 116.099 53.641 116.099C51.1889 116.841 50.1671 114.817 50.1671 114.817ZM48.5664 126.052C48.5664 126.052 49.0092 126.052 50.1671 126.052C51.3251 126.052 52.0403 127.335 52.0403 127.335C49.5882 128.077 48.5664 126.052 48.5664 126.052ZM34.6368 123.893C34.6368 123.893 35.0795 123.893 36.2375 123.893C37.3955 123.893 38.1107 125.175 38.1107 125.175C35.6585 125.917 34.6368 123.893 34.6368 123.893ZM42.3679 113.737C42.3679 113.737 42.6063 114.075 43.2875 115.019C43.9686 115.964 43.3215 117.28 43.3215 117.28C41.3121 115.728 42.3679 113.737 42.3679 113.737ZM34.3303 118.056C34.3303 118.056 34.5346 117.685 35.0455 116.639C35.5904 115.627 37.0549 115.559 37.0549 115.559C36.6121 118.09 34.3303 118.056 34.3303 118.056Z" fill="white"/>
<path d="M112.323 110.532C112.186 109.958 110.007 110.836 110.007 110.836C110.007 110.836 110.722 108.103 109.564 108.103C108.406 108.103 108.27 110.127 108.27 110.127C108.27 110.127 106.09 109.25 106.09 110.566C106.09 111.848 107.555 111.848 107.555 111.848C107.555 111.848 105.818 114.007 107.112 114.446C108.406 114.885 109.291 113.299 109.291 113.299C109.291 113.299 110.177 114.75 111.335 114.176C112.493 113.602 111.641 112.32 111.641 112.32C111.641 112.32 112.459 111.106 112.323 110.532ZM109.428 112.691C109.019 112.691 108.713 112.421 108.713 112.118C108.713 111.814 109.053 111.544 109.428 111.544C109.836 111.544 110.143 111.814 110.143 112.118C110.143 112.421 109.802 112.691 109.428 112.691ZM119.134 121.734C118.998 121.16 116.818 122.037 116.818 122.037C116.818 122.037 117.533 119.304 116.376 119.304C115.218 119.304 115.081 121.329 115.081 121.329C115.081 121.329 112.902 120.452 112.902 121.767C112.902 123.05 114.366 123.05 114.366 123.05C114.366 123.05 112.629 125.209 113.923 125.648C115.218 126.086 116.103 124.5 116.103 124.5C116.103 124.5 116.989 125.951 118.147 125.378C119.304 124.804 118.453 123.522 118.453 123.522C118.453 123.522 119.304 122.307 119.134 121.734ZM116.239 123.893C115.831 123.893 115.524 123.623 115.524 123.319C115.524 123.016 115.865 122.746 116.239 122.746C116.648 122.746 116.954 123.016 116.954 123.319C116.954 123.623 116.648 123.893 116.239 123.893ZM111.88 126.052C111.744 125.479 109.564 126.356 109.564 126.356C109.564 126.356 110.279 123.623 109.121 123.623C107.963 123.623 107.827 125.648 107.827 125.648C107.827 125.648 105.647 124.77 105.647 126.086C105.647 127.368 107.112 127.368 107.112 127.368C107.112 127.368 105.375 129.528 106.669 129.966C107.963 130.405 108.849 128.819 108.849 128.819C108.849 128.819 109.734 130.27 110.892 129.696C112.05 129.123 111.199 127.841 111.199 127.841C111.199 127.841 112.016 126.626 111.88 126.052ZM108.985 128.212C108.576 128.212 108.27 127.942 108.27 127.638C108.27 127.335 108.61 127.065 108.985 127.065C109.394 127.065 109.7 127.335 109.7 127.638C109.7 127.942 109.394 128.212 108.985 128.212ZM118.555 117.55C118.555 117.55 118.998 117.55 120.156 117.55C121.314 117.55 122.029 118.832 122.029 118.832C119.577 119.574 118.555 117.55 118.555 117.55ZM101.424 125.749C101.424 125.749 101.867 125.749 103.025 125.749C104.183 125.749 104.898 127.031 104.898 127.031C102.446 127.773 101.424 125.749 101.424 125.749ZM110.756 116.47C110.756 116.47 110.994 116.808 111.676 117.752C112.357 118.697 111.71 120.013 111.71 120.013C109.7 118.461 110.756 116.47 110.756 116.47ZM120.19 124.534C120.19 124.534 120.428 124.872 121.11 125.816C121.791 126.761 121.144 128.077 121.144 128.077C119.134 126.525 120.19 124.534 120.19 124.534ZM102.752 120.789C102.752 120.789 102.957 120.418 103.468 119.372C104.013 118.36 105.477 118.292 105.477 118.292C105 120.823 102.752 120.789 102.752 120.789Z" fill="white"/>
</g>
<defs>
<clipPath id="clip0">
<rect width="152" height="130" fill="white"/>
</clipPath>
</defs>
</svg>
