<svg width="77" height="77" viewBox="0 0 77 77" fill="none" xmlns="http://www.w3.org/2000/svg">
<path d="M57.2753 0H19.7247C8.83104 0 0 8.83104 0 19.7247V57.2753C0 68.169 8.83104 77 19.7247 77H57.2753C68.169 77 77 68.169 77 57.2753V19.7247C77 8.83104 68.169 0 57.2753 0Z" fill="#F5F8FE"/>
<path d="M37.9753 38.2744C39.4491 38.2951 40.9117 38.0149 42.2736 37.4511C43.6355 36.8872 44.8681 36.0515 45.896 34.995C46.9528 33.9672 47.7888 32.7347 48.353 31.3728C48.9172 30.0109 49.1976 28.5482 49.1772 27.0742C49.1974 25.6002 48.9168 24.1375 48.3525 22.7756C47.7882 21.4137 46.952 20.1812 45.8952 19.1535C44.8552 18.1132 43.6204 17.2879 42.2614 16.7249C40.9024 16.1619 39.4458 15.8721 37.9748 15.8721C36.5038 15.8721 35.0473 16.1619 33.6883 16.7249C32.3293 17.2879 31.0945 18.1132 30.0545 19.1535C28.9977 20.1811 28.1616 21.4134 27.5972 22.7752C27.0329 24.1369 26.7523 25.5995 26.7725 27.0734C26.7522 28.5476 27.0328 30.0106 27.5973 31.3726C28.1618 32.7347 28.9982 33.9673 30.0554 34.995C31.0833 36.0512 32.3157 36.8868 33.6775 37.4507C35.0392 38.0145 36.5016 38.2948 37.9753 38.2744Z" fill="white"/>
<path d="M57.5763 51.634C57.5038 50.6498 57.3787 49.6702 57.2016 48.6993C57.0256 47.6998 56.7841 46.7128 56.4786 45.7449C56.1699 44.787 55.763 43.8636 55.2643 42.9895C54.7726 42.1093 54.1555 41.3053 53.4324 40.6028C52.6707 39.8865 51.7771 39.325 50.8013 38.9494C49.7301 38.5364 48.5902 38.3301 47.4422 38.3413C46.7723 38.4131 46.1388 38.6816 45.6215 39.1132C45.076 39.4691 44.4371 39.885 43.7245 40.3361C42.9541 40.7965 42.1297 41.1598 41.27 41.4175C39.3212 42.0643 37.2157 42.0643 35.2669 41.4175C34.4078 41.1602 33.5839 40.7972 32.8142 40.3369C32.1084 39.8859 31.4695 39.4742 30.9154 39.1132C30.3985 38.6816 29.7652 38.413 29.0956 38.3413C27.9478 38.3302 26.8082 38.5368 25.7373 38.9502C24.7614 39.3257 23.8678 39.8873 23.1062 40.6037C22.3834 41.3063 21.7666 42.1102 21.2752 42.9903C20.7764 43.8629 20.3689 44.7845 20.0592 45.7406C19.7539 46.71 19.5127 47.6984 19.3371 48.6993C19.159 49.6718 19.0333 50.6532 18.9606 51.6392C18.8988 52.5294 18.868 53.453 18.868 54.3835C18.82 55.4637 18.9994 56.542 19.3946 57.5485C19.7898 58.555 20.3919 59.4673 21.162 60.2263C22.7705 61.6968 24.8951 62.4718 27.0726 62.3823H49.4661C51.6436 62.472 53.7683 61.697 55.3766 60.2263C56.1471 59.4673 56.7494 58.5549 57.1446 57.5482C57.5398 56.5416 57.719 55.463 57.6707 54.3826C57.6707 53.4453 57.639 52.5208 57.5763 51.6383V51.634Z" fill="white"/>
</svg>
