<svg width="18" height="18" viewBox="0 0 18 18" fill="none" xmlns="http://www.w3.org/2000/svg">
<path d="M10.4889 0.406232C10.7336 0.274747 11.0088 0.199161 11.2873 0.195646C11.9053 0.182286 12.5142 0.538067 12.799 1.08791C13.3334 2.14928 13.8621 3.21346 14.3944 4.27588C14.4109 4.33072 14.4668 4.34338 14.5167 4.34971C15.0001 4.42389 15.4603 4.63342 15.8389 4.94244C16.3445 5.3492 16.6978 5.93912 16.8219 6.5758C16.9049 6.97201 16.8662 7.37842 16.875 7.7799C17.5018 7.99752 17.962 8.60467 18 9.26736V12.8508C17.9659 13.5163 17.5036 14.1267 16.8754 14.346C16.8666 14.7373 16.9024 15.1332 16.8279 15.5203C16.7207 16.1081 16.4159 16.6558 15.9785 17.0619C15.5415 17.4686 14.972 17.733 14.3775 17.7956C14.168 17.8195 13.9567 17.8163 13.7461 17.8156C10.113 17.8156 6.48 17.816 2.84695 17.8156C2.25914 17.8195 1.67098 17.6419 1.19109 17.3009C0.487969 16.8119 0.0379688 15.9878 0 15.1328V6.98221C0.0400781 6.24604 0.373711 5.5292 0.924961 5.03736C1.35773 4.64678 1.91285 4.39014 2.49434 4.33178C2.58328 4.32193 2.67574 4.3149 2.7573 4.27342C5.33391 2.98354 7.91227 1.69647 10.4889 0.406232ZM11.0809 1.37338C9.11496 2.35283 7.15254 3.34037 5.1852 4.31807C7.84125 4.31244 10.4973 4.31701 13.153 4.31561C12.7037 3.41982 12.2572 2.52229 11.8072 1.6265C11.6814 1.36881 11.34 1.24365 11.0809 1.37338ZM2.4293 5.4835C1.88648 5.60725 1.42066 6.01822 1.23082 6.54205C1.15699 6.74314 1.11973 6.9576 1.1243 7.1724C1.12641 9.79822 1.12359 12.424 1.1257 15.0499C1.13941 15.6844 1.54688 16.2877 2.12836 16.5408C2.36426 16.6488 2.62512 16.6913 2.88316 16.6906C6.56227 16.6906 10.2414 16.6903 13.9205 16.691C14.1841 16.6955 14.4524 16.6653 14.6971 16.5619C15.2701 16.3334 15.6902 15.7692 15.7426 15.1539C15.7588 14.9166 15.7461 14.6786 15.7496 14.441C15.0226 14.4406 14.2959 14.4403 13.5689 14.441C13.2237 14.4395 12.8763 14.4019 12.5452 14.3017C11.7928 14.0831 11.1259 13.5895 10.6914 12.938C10.3099 12.3717 10.112 11.6865 10.1246 11.0041C10.1355 10.2591 10.4006 9.52014 10.8724 8.94252C11.4107 8.26857 12.2179 7.81682 13.0746 7.71381C13.32 7.67865 13.5682 7.69342 13.8154 7.69061C14.4601 7.69061 15.1049 7.69025 15.7496 7.69061C15.7405 7.33271 15.7883 6.96322 15.6695 6.61764C15.4663 5.94721 14.8032 5.43744 14.0984 5.44518C10.4302 5.43463 6.7616 5.44377 3.09305 5.44061C2.87191 5.45221 2.64586 5.42514 2.4293 5.4835ZM13.1287 8.84408C12.6693 8.92283 12.2326 9.14502 11.9071 9.48006C11.5643 9.81896 11.3393 10.2735 11.2729 10.7506C11.1846 11.3398 11.3523 11.96 11.7172 12.43C12.1528 13.0112 12.8823 13.3409 13.6051 13.316C14.4499 13.3145 15.2947 13.317 16.1399 13.3149C16.2798 13.3079 16.4278 13.3198 16.5572 13.2555C16.7527 13.1599 16.8834 12.9472 16.8754 12.7288C16.8746 11.6144 16.875 10.4999 16.875 9.38549C16.8855 9.08631 16.6184 8.80119 16.3139 8.82018C15.3766 8.80963 14.439 8.81947 13.5014 8.81525C13.3766 8.81314 13.2518 8.82299 13.1287 8.84408Z" fill="#959499"/>
<path d="M13.2662 10.2503C13.5189 10.1814 13.8054 10.2271 14.0132 10.3906C14.2822 10.5913 14.408 10.9626 14.3145 11.2853C14.2333 11.6094 13.938 11.8626 13.6068 11.9005C13.3382 11.9367 13.0552 11.8334 12.8742 11.6312C12.652 11.3929 12.5919 11.0199 12.7265 10.7235C12.8235 10.4953 13.0271 10.3164 13.2662 10.2503Z" fill="#959499"/>
</svg>
