<svg id="Capa_1" enable-background="new 0 0 512.007 512.007" height="512" viewBox="0 0 512.007 512.007" width="512" xmlns="http://www.w3.org/2000/svg"><g><g><g><path d="m478.482 78.551-27.538 11.15c-1.882.762-4.044.192-5.285-1.409-6.151-7.996-13.178-15.12-20.886-21.288-1.591-1.265-2.122-3.456-1.333-5.318l11.555-27.443c.978-2.327-.107-5.006-2.424-5.988l-47.136-20.089c-2.318-.982-4.987.099-5.969 2.417l-11.556 27.443c-.785 1.871-2.719 3.01-4.726 2.744-9.768-1.288-19.749-1.4-29.742-.289-2.01.231-3.922-.947-4.684-2.829l-11.195-27.649c-.946-2.336-3.606-3.47-5.932-2.528l-47.393 19.189c-2.327.942-3.448 3.608-2.502 5.944l11.195 27.65c.762 1.882.208 4.059-1.396 5.291-7.952 6.154-15.044 13.179-21.163 20.9-1.256 1.587-3.438 2.115-5.304 1.317l-27.393-11.673c-2.318-.982-4.987.099-5.969 2.417l-19.88 47.223c-.982 2.318.103 4.997 2.424 5.988l27.393 11.673c1.862.789 3.005 2.732 2.742 4.748-1.246 9.793-1.337 19.799-.192 29.822.222 2.014-.934 3.928-2.816 4.69l-27.538 11.15c-2.326.942-3.448 3.608-2.502 5.944l19.268 47.587c.946 2.336 3.606 3.47 5.933 2.528l27.538-11.15c1.882-.762 4.044-.192 5.289 1.419 6.147 7.987 13.178 15.12 20.882 21.278 1.591 1.265 2.122 3.456 1.337 5.328l-11.555 27.443c-.982 2.318.103 4.997 2.424 5.988l47.131 20.08c2.318.982 4.987-.099 5.969-2.417l11.555-27.443c.785-1.871 2.719-3.01 4.726-2.744 9.767 1.288 19.753 1.41 29.742.289 2.01-.231 3.922.947 4.684 2.829l11.195 27.649c.95 2.345 3.606 3.47 5.933 2.528l47.393-19.189c2.327-.942 3.452-3.599 2.502-5.944l-11.195-27.649c-.762-1.882-.208-4.059 1.396-5.291 7.955-6.145 15.043-13.179 21.163-20.9 1.256-1.587 3.438-2.115 5.303-1.317l27.393 11.673c2.318.982 4.987-.099 5.969-2.417l19.884-47.214c.978-2.327-.107-5.006-2.424-5.988l-27.393-11.672c-1.866-.798-3.009-2.741-2.746-4.757 1.249-9.784 1.337-19.799.196-29.813-.226-2.023.93-3.937 2.812-4.699l27.538-11.15c2.327-.942 3.448-3.608 2.502-5.944l-19.268-47.587c-.945-2.338-3.605-3.473-5.931-2.531zm-108.461 141.239c-30.579 12.381-65.441-2.471-77.871-33.17s2.283-65.613 32.861-77.994c30.569-12.377 65.428 2.465 77.858 33.164s-2.279 65.623-32.848 78z" fill="#8ebac5"/></g><path d="m423.135 133.01c-12.719-30.578-42.412-50.336-75.648-50.336-10.767 0-21.299 2.093-31.303 6.22-20.201 8.332-35.935 24-44.302 44.117s-8.367 42.274.001 62.39c12.718 30.579 42.411 50.337 75.647 50.337 10.767 0 21.3-2.092 31.305-6.22 41.7-17.2 61.574-64.979 44.3-106.508zm-54.742 81.405c-27.845 11.486-59.767-1.682-71.301-29.411s1.689-59.519 29.534-71.005 59.767 1.682 71.301 29.411-1.689 59.519-29.534 71.005z" fill="#d8ecfe"/><g><path d="m252.368 158.425c0-55.005 29.014-103.227 72.566-130.219l-7.37-18.203c-.946-2.336-3.606-3.47-5.932-2.528l-47.393 19.189c-2.327.942-3.448 3.608-2.502 5.943l11.195 27.65c.762 1.882.208 4.058-1.396 5.291-7.952 6.154-15.044 13.179-21.163 20.9-1.256 1.588-3.438 2.115-5.304 1.317l-27.393-11.673c-2.318-.982-4.987.099-5.969 2.417l-19.88 47.223c-.982 2.318.103 4.997 2.424 5.988l27.393 11.673c1.862.789 3.005 2.732 2.742 4.748-1.246 9.793-1.337 19.799-.192 29.822.222 2.014-.934 3.928-2.816 4.69l-27.538 11.15c-2.326.942-3.448 3.608-2.502 5.943l19.268 47.587c.946 2.336 3.606 3.47 5.933 2.529l27.538-11.15c1.882-.762 4.044-.192 5.289 1.419 6.147 7.987 13.178 15.12 20.882 21.278 1.591 1.265 2.122 3.456 1.337 5.328l-11.555 27.443c-.982 2.318.103 4.997 2.424 5.988l47.131 20.08c2.318.982 4.987-.099 5.969-2.417l11.556-27.443c.047-.113.111-.213.167-.321-44.853-26.7-74.909-75.657-74.909-131.642z" fill="#7ca1b1"/></g><path d="m319.144 315.884h-29.71c-2.03 0-3.82-1.34-4.37-3.29-2.7-9.72-6.54-18.96-11.37-27.57-1-1.77-.67-4 .76-5.43l21.01-21.1c1.78-1.79 1.78-4.68 0-6.46l-36.15-36.31c-1.78-1.78-4.66-1.78-6.44 0l-21.01 21.1c-1.43 1.44-3.65 1.77-5.41.77-8.57-4.86-17.78-8.71-27.46-11.43-1.95-.54-3.28-2.35-3.28-4.38v-29.83c0-2.52-2.04-4.57-4.55-4.57h-51.13c-2.51 0-4.55 2.05-4.55 4.57v29.83c0 2.03-1.33 3.84-3.28 4.38-9.68 2.72-18.89 6.57-27.46 11.43-1.76 1-3.98.67-5.41-.77l-21.01-21.1c-1.78-1.78-4.66-1.78-6.44 0l-36.15 36.31c-1.78 1.78-1.78 4.67 0 6.46l21.01 21.1c1.43 1.43 1.76 3.66.76 5.43-4.83 8.61-8.67 17.85-11.37 27.57-.55 1.95-2.34 3.29-4.37 3.29h-29.71c-2.51 0-4.55 2.05-4.55 4.57v51.34c0 2.52 2.04 4.57 4.55 4.57h29.71c2.03 0 3.82 1.34 4.37 3.3 2.7 9.71 6.54 18.96 11.37 27.56 1 1.77.67 4-.76 5.44l-21.01 21.1c-1.78 1.78-1.78 4.67 0 6.46l36.15 36.3c1.78 1.78 4.66 1.78 6.44 0l21.01-21.1c1.43-1.44 3.65-1.77 5.41-.77 8.57 4.86 17.78 8.72 27.46 11.43 1.95.54 3.28 2.35 3.28 4.38v29.83c0 2.53 2.04 4.57 4.55 4.57h51.13c2.51 0 4.55-2.04 4.55-4.57v-29.83c0-2.03 1.33-3.84 3.28-4.38 9.68-2.71 18.89-6.57 27.46-11.43 1.76-1 3.98-.67 5.41.77l21.01 21.1c1.78 1.78 4.66 1.78 6.44 0l36.15-36.3c1.78-1.79 1.78-4.68 0-6.46l-21.01-21.1c-1.43-1.44-1.76-3.67-.76-5.44 4.83-8.6 8.67-17.85 11.37-27.56.55-1.96 2.34-3.3 4.37-3.3h29.71c2.51 0 4.55-2.05 4.55-4.57v-51.34c0-2.52-2.04-4.57-4.55-4.57zm-153.54 90.21c-32.99 0-59.73-26.85-59.73-59.97s26.74-59.96 59.73-59.96c32.98 0 59.72 26.84 59.72 59.96s-26.74 59.97-59.72 59.97z" fill="#8ebac5"/><path d="m165.599 258.902c-47.899 0-86.868 39.127-86.868 87.222s38.969 87.222 86.868 87.222 86.868-39.127 86.868-87.222c0-48.094-38.969-87.222-86.868-87.222zm0 147.188c-32.984 0-59.722-26.847-59.722-59.965s26.738-59.965 59.722-59.965c32.983 0 59.722 26.847 59.722 59.965s-26.739 59.965-59.722 59.965z" fill="#d8ecfe"/><g><path d="m67.85 346.124c0-44.377 17.968-84.557 47.025-113.665-3.464 1.56-6.846 3.271-10.131 5.135-1.76 1-3.98.67-5.41-.77l-21.01-21.1c-1.78-1.78-4.66-1.78-6.44 0l-36.15 36.31c-1.78 1.78-1.78 4.67 0 6.46l21.01 21.1c1.43 1.43 1.76 3.66.76 5.43-4.83 8.61-8.67 17.85-11.37 27.57-.55 1.95-2.34 3.29-4.37 3.29h-29.71c-2.51 0-4.55 2.05-4.55 4.57v51.34c0 2.52 2.04 4.57 4.55 4.57h29.71c2.03 0 3.82 1.34 4.37 3.3 2.7 9.71 6.54 18.96 11.37 27.56 1 1.77.67 4-.76 5.44l-21.01 21.1c-1.78 1.78-1.78 4.67 0 6.46l36.15 36.3c1.78 1.78 4.66 1.78 6.44 0l21.01-21.1c1.43-1.44 3.65-1.77 5.41-.77 3.287 1.864 6.67 3.578 10.136 5.139-29.06-29.107-47.03-69.289-47.03-113.669z" fill="#7ca1b1"/></g><path d="m264.623 136.768h-24.311c-4.418 0-8-3.582-8-8v-31.741c0-4.418 3.582-8 8-8h24.311c4.418 0 8 3.582 8 8v31.742c0 4.417-3.582 7.999-8 7.999z" fill="#62dbfb"/><circle cx="255.997" cy="256.364" fill="#e8ad8c" r="137.255"/><circle cx="256.004" cy="256.364" fill="#eaf6ff" r="105"/><path d="m153.742 255.944c.213-69.73 52.389-127.151 119.752-135.725-5.594-.712-11.293-1.091-17.077-1.109-75.804-.232-137.443 61.031-137.675 136.835s61.031 137.443 136.835 137.675c6.074.019 12.055-.362 17.923-1.109-67.717-8.618-119.972-66.548-119.758-136.567z" fill="#e19974"/><path d="m186.003 256.364c0-52.026 37.841-95.208 87.5-103.54-5.692-.955-11.537-1.46-17.5-1.46-57.99 0-105 47.01-105 105s47.01 105 105 105c5.963 0 11.808-.505 17.5-1.46-49.658-8.332-87.5-51.514-87.5-103.54z" fill="#d8ecfe"/><circle cx="256.004" cy="256.364" fill="#e8ad8c" r="12.5"/></g><g><path d="m504.539 187.876-25.547-10.533c.934-8.99.935-18.057.002-26.996l25.569-10.543c2.985-1.242 5.306-3.571 6.533-6.557 1.223-2.974 1.214-6.245-.021-9.197l-19.665-47.278c-1.231-2.976-3.552-5.293-6.533-6.525-2.985-1.233-6.27-1.229-9.227 0l-25.567 10.546c-5.707-6.993-12.144-13.406-19.195-19.117l10.562-25.401c1.24-2.965 1.25-6.235.027-9.209-1.228-2.985-3.547-5.314-6.557-6.568l-47.493-19.587c-6.128-2.515-13.194.404-15.751 6.519l-10.583 25.442c-9.018-.936-18.142-.935-27.175 0l-10.589-25.457c-2.555-6.108-9.619-9.024-15.748-6.499l-47.515 19.591c-2.985 1.243-5.305 3.572-6.532 6.558-1.223 2.974-1.213 6.244.021 9.195l10.569 25.411c-7.033 5.694-13.473 12.112-19.188 19.121l-25.555-10.536c-2.979-1.24-6.263-1.242-9.247-.01-2.982 1.231-5.302 3.549-6.53 6.514l-23.345 55.826c-9.429 5.811-18.259 12.743-26.31 20.745-19.788 19.668-33.192 44.048-39.168 70.625-3.99 1.677-7.912 3.558-11.716 5.626l-19.441-19.524c-2.277-2.278-5.305-3.532-8.524-3.532s-6.246 1.254-8.535 3.543l-36.139 36.299c-4.69 4.692-4.697 12.341-.01 17.055l19.458 19.542c-4.298 7.979-7.77 16.394-10.338 25.056h-27.486c-6.645-.001-12.05 5.414-12.05 12.069v51.34c0 6.655 5.405 12.07 12.05 12.07h27.484c2.578 8.687 6.047 17.095 10.343 25.063l-19.45 19.533c-4.693 4.691-4.7 12.341-.012 17.056l36.161 36.312c2.277 2.277 5.305 3.531 8.523 3.531 3.219 0 6.247-1.254 8.534-3.543l19.431-19.514c7.913 4.303 16.27 7.78 24.915 10.367v27.624c0 6.655 5.406 12.07 12.05 12.07h51.13c6.645 0 12.05-5.415 12.05-12.07v-27.624c8.635-2.582 16.995-6.061 24.916-10.367l19.44 19.524c2.278 2.278 5.305 3.532 8.524 3.532s6.246-1.254 8.535-3.543l36.153-36.303c4.686-4.712 4.678-12.362-.003-17.041l-19.461-19.545c1.938-3.595 3.717-7.302 5.317-11.076 16.265-3.508 31.853-9.803 46.088-18.709 3.512-2.197 4.577-6.825 2.38-10.336-2.196-3.512-6.824-4.577-10.336-2.381-20.717 12.962-44.656 19.802-69.169 19.688-71.543-.218-129.57-58.602-129.353-130.147.105-34.657 13.701-67.2 38.283-91.633 24.484-24.336 56.94-37.721 91.441-37.721.14 0 .283.001.423.001 71.548.218 129.58 58.602 129.363 130.147-.1 33.057-12.633 64.508-35.29 88.56-2.84 3.015-2.698 7.762.317 10.602 3.015 2.841 7.761 2.698 10.602-.316 7.48-7.94 13.961-16.608 19.396-25.826l54.141-22.232c2.987-1.23 5.312-3.55 6.547-6.531 1.233-2.978 1.23-6.258-.01-9.234l-10.568-25.399c7.031-5.686 13.475-12.111 19.189-19.131l25.578 10.556c2.972 1.224 6.246 1.223 9.216-.003 2.991-1.233 5.315-3.558 6.536-6.521l19.664-47.267c1.244-2.974 1.25-6.254.018-9.236-1.233-2.986-3.56-5.31-6.547-6.541zm-278.68 209.715c-14.996 17.636-36.793 27.89-60.259 27.89-43.765 0-79.37-35.763-79.37-79.721 0-23.676 10.274-45.621 27.949-60.68.935 4.567 2.083 9.058 3.439 13.459-12.278 12.567-19.248 29.501-19.248 47.221 0 37.203 30.159 67.471 67.23 67.471 17.56 0 34.371-6.938 46.884-19.158 4.372 1.38 8.835 2.553 13.375 3.518zm30.174 3.16c4.269 0 8.518-.209 12.742-.58-.527 1.008-1.06 2.013-1.615 2.999-2.637 4.667-1.828 10.595 1.975 14.422l18.957 19.038-32.002 32.135-18.909-18.99c-3.816-3.842-9.753-4.668-14.431-2.008-8.119 4.604-16.793 8.214-25.762 10.726-5.169 1.431-8.779 6.204-8.779 11.607v26.9h-45.23v-26.9c0-5.403-3.609-10.176-8.758-11.603-8.99-2.517-17.664-6.127-25.777-10.729-4.683-2.658-10.62-1.836-14.429 1.999l-18.915 18.998-32.002-32.135 18.963-19.045c3.795-3.821 4.604-9.749 1.978-14.397-4.577-8.149-8.171-16.862-10.688-25.913-1.449-5.166-6.216-8.774-11.591-8.774h-26.76v-45.48h26.76c5.37 0 10.135-3.6 11.597-8.781 2.505-9.021 6.1-17.737 10.674-25.89 2.643-4.679 1.826-10.609-1.976-14.41l-18.957-19.04 32.002-32.144 18.907 18.987c3.816 3.844 9.751 4.67 14.434 2.011 1.147-.651 2.311-1.277 3.483-1.889-.436 4.524-.669 9.091-.683 13.693-.013 4.202.165 8.361.505 12.474-25.452 17.766-40.516 46.478-40.516 77.728 0 52.229 42.334 94.721 94.37 94.721 30.972 0 59.491-14.996 77.214-40.336 4.196.38 8.44.592 12.731.605.163.001.325.001.488.001zm-59.453-12.764c-8.908 6.594-19.751 10.244-30.98 10.244-28.8 0-52.23-23.538-52.23-52.471 0-11.329 3.651-22.252 10.251-31.21 14.443 32.524 40.531 58.783 72.959 73.437zm19.751-302.764 10.267 4.233c-1.137 2.155-1.788 4.604-1.788 7.204v17.939c-8.152 1.781-16.103 4.257-23.779 7.405zm39.631 26.026c-5.436 0-10.825.309-16.152.897v-15.486c0-.275.224-.5.5-.5h24.31c.276 0 .5.225.5.5v14.885c-2.875-.18-5.769-.286-8.686-.295-.158 0-.314-.001-.472-.001zm63.725 14.786c2.998-2.182 6.267-4.015 9.791-5.472 23.994-9.887 51.589 1.489 61.518 25.369 6.381 15.326 4.076 32.539-5.46 45.523-14.18-28.34-37.389-51.417-65.849-65.42zm158.989 116.43-24.922-10.285c-4.956-2.03-10.729-.528-14.061 3.676-5.794 7.372-12.465 14.021-19.813 19.751-4.236 3.289-5.766 9.073-3.705 14.104l10.291 24.733-35.816 14.778c6.57-16.627 10.044-34.482 10.099-52.78.021-6.837-.446-13.563-1.348-20.153 15.519-11.04 27.2-26.899 33.122-45.159 6.516-20.091 5.639-41.883-2.47-61.361-9.892-23.771-29.533-42.097-53.886-50.278-3.926-1.32-8.179.795-9.498 4.721-1.319 3.927.794 8.179 4.721 9.498 20.251 6.804 36.585 22.047 44.815 41.823 12.449 29.908 3.942 63.711-20.04 84.283-1.141-4.416-2.482-8.753-4.02-12.997 17.09-17.587 22.247-43.717 12.7-66.648-13.093-31.49-49.468-46.507-81.089-33.472-7.389 3.053-13.927 7.369-19.53 12.824-4.289-1.52-8.669-2.843-13.131-3.958 7.522-8.738 17.022-15.598 27.948-20.102 6.62-2.733 13.523-4.491 20.517-5.223 4.12-.431 7.11-4.119 6.679-8.239-.431-4.119-4.12-7.12-8.24-6.679-8.427.881-16.731 2.993-24.677 6.274-12.934 5.331-24.215 13.421-33.202 23.721v-8.657c0-8.478-6.844-15.379-15.297-15.49 3.261-3.235 6.712-6.28 10.334-9.11 4.241-3.312 5.752-9.105 3.678-14.08l-10.292-24.744 42.066-17.344 10.309 24.785c2.066 4.952 7.223 7.972 12.551 7.339 9.332-1.128 18.775-1.127 28.05-.003 5.337.656 10.51-2.362 12.576-7.344l10.308-24.781 42.065 17.348-10.289 24.746c-2.083 4.993-.561 10.792 3.684 14.087 7.391 5.776 14.068 12.425 19.846 19.762 3.305 4.197 9.085 5.702 14.072 3.662l24.899-10.271 17.408 41.851-24.851 10.247c-4.988 2.044-8.028 7.199-7.391 12.56 1.13 9.242 1.129 18.638.001 27.909-.659 5.33 2.368 10.499 7.375 12.574l24.865 10.253z"/><path d="m256 143.5c-62.033 0-112.5 50.467-112.5 112.5s50.467 112.5 112.5 112.5 112.5-50.467 112.5-112.5-50.467-112.5-112.5-112.5zm55.082 192.905-7.108-12.312c-2.071-3.588-6.658-4.815-10.245-2.745-3.587 2.071-4.816 6.658-2.745 10.245l7.123 12.337c-10.618 5.105-22.295 8.344-34.606 9.284v-14.257c0-4.143-3.358-7.5-7.5-7.5s-7.5 3.357-7.5 7.5v14.257c-12.311-.941-23.989-4.179-34.606-9.284l7.123-12.337c2.071-3.587.842-8.174-2.745-10.245s-8.174-.843-10.245 2.745l-7.108 12.312c-9.914-6.813-18.51-15.409-25.323-25.323l12.312-7.108c3.587-2.071 4.816-6.658 2.745-10.245-2.071-3.588-6.659-4.814-10.245-2.745l-12.337 7.123c-5.105-10.618-8.343-22.295-9.284-34.606h14.257c4.142 0 7.5-3.357 7.5-7.5s-3.358-7.5-7.5-7.5h-14.257c.941-12.311 4.179-23.989 9.284-34.606l12.337 7.123c1.181.682 2.471 1.006 3.743 1.006 2.592 0 5.113-1.345 6.502-3.751 2.071-3.587.842-8.174-2.745-10.245l-12.312-7.108c6.813-9.914 15.409-18.51 25.323-25.323l7.108 12.312c1.389 2.406 3.91 3.751 6.502 3.751 1.272 0 2.562-.324 3.743-1.006 3.587-2.071 4.816-6.658 2.745-10.245l-7.123-12.337c10.618-5.105 22.295-8.344 34.606-9.284v14.257c0 4.143 3.358 7.5 7.5 7.5s7.5-3.357 7.5-7.5v-14.257c12.311.941 23.989 4.179 34.606 9.284l-7.123 12.337c-2.071 3.587-.842 8.174 2.745 10.245 1.181.682 2.471 1.006 3.743 1.006 2.592 0 5.113-1.345 6.502-3.751l7.108-12.312c9.914 6.813 18.51 15.409 25.323 25.323l-12.312 7.108c-3.587 2.071-4.816 6.658-2.745 10.245 1.389 2.406 3.91 3.751 6.502 3.751 1.272 0 2.562-.324 3.743-1.006l12.337-7.123c5.105 10.618 8.343 22.295 9.284 34.606h-14.257c-4.142 0-7.5 3.357-7.5 7.5s3.358 7.5 7.5 7.5h14.257c-.941 12.311-4.179 23.989-9.284 34.606l-12.337-7.123c-3.588-2.07-8.174-.843-10.245 2.745-2.071 3.587-.842 8.174 2.745 10.245l12.312 7.108c-6.813 9.914-15.409 18.51-25.323 25.323z"/><path d="m274.44 263.74c1.004-2.382 1.56-4.997 1.56-7.74 0-8.375-5.18-15.553-12.5-18.528v-33.792c0-4.143-3.358-7.5-7.5-7.5s-7.5 3.357-7.5 7.5v33.792c-7.32 2.975-12.5 10.153-12.5 18.528 0 11.028 8.972 20 20 20 2.793 0 5.451-.58 7.868-1.618l7.933 7.933c1.464 1.464 3.384 2.196 5.303 2.196s3.839-.732 5.303-2.196c2.929-2.93 2.929-7.678 0-10.607zm-23.44-7.74c0-2.757 2.243-5 5-5s5 2.243 5 5-2.243 5-5 5-5-2.243-5-5z"/></g></g></svg>