<svg width="40" height="40" viewBox="0 0 40 40" fill="none" xmlns="http://www.w3.org/2000/svg">
<path d="M19.7166 39.416C30.6059 39.416 39.4333 30.5925 39.4333 19.708C39.4333 8.82359 30.6059 0 19.7166 0C8.82744 0 0 8.82359 0 19.708C0 30.5925 8.82744 39.416 19.7166 39.416Z" fill="url(#paint0_linear)"/>
<path d="M30.2762 16.8368C30.2762 14.2216 28.1589 12.1052 25.5426 12.1052H13.4321C10.8158 12.1052 8.69852 14.2216 8.69852 16.8368V22.4715C8.69852 25.0866 10.8158 27.203 13.4321 27.203H25.5426C28.1589 27.203 30.2762 25.0866 30.2762 22.4715V16.8368ZM23.1556 20.072L17.7207 22.7546C17.5049 22.8759 16.7902 22.7141 16.7902 22.4715V16.9716C16.7902 16.7289 17.5184 16.5672 17.7342 16.6885L22.9263 19.5193C23.1421 19.6406 23.3714 19.9507 23.1556 20.072Z" fill="white"/>
<defs>
<linearGradient id="paint0_linear" x1="33.6608" y1="5.76453" x2="5.78681" y2="33.6508" gradientUnits="userSpaceOnUse">
<stop stop-color="#FF0000"/>
<stop offset="1" stop-color="#850000"/>
</linearGradient>
</defs>
</svg>
